<ttFont>
<head>
    <!-- Most of this table will be recalculated by the compiler -->
    <tableVersion value="1.0"/>
    <fontRevision value="1.013"/>
    <checkSumAdjustment value="0xc5c4699c"/>
    <magicNumber value="0x5f0f3cf5"/>
    <flags value="00000000 00000011"/>
    <unitsPerEm value="1000"/>
    <created value="Fri Apr 12 16:40:33 2019"/>
    <modified value="Fri Apr 12 16:40:34 2019"/>
    <xMin value="-319"/>
    <yMin value="-263"/>
    <xMax value="830"/>
    <yMax value="1035"/>
    <macStyle value="00000000 00000011"/>
    <lowestRecPPEM value="6"/>
    <fontDirectionHint value="2"/>
    <indexToLocFormat value="0"/>
    <glyphDataFormat value="0"/>
  </head>
    <TTGlyph name=".notdef" xMin="50" yMin="-250" xMax="450" yMax="750">
      <contour>
        <pt x="50" y="-250" on="1"/>
        <pt x="450" y="-250" on="1"/>
        <pt x="450" y="750" on="1"/>
        <pt x="50" y="750" on="1"/>
      </contour>
      <contour>
        <pt x="100" y="-200" on="1"/>
        <pt x="100" y="700" on="1"/>
        <pt x="400" y="700" on="1"/>
        <pt x="400" y="-200" on="1"/>
      </contour>
    </TTGlyph>
    <TTGlyph name="A" xMin="-32" yMin="0" xMax="524" yMax="702">
      <contour>
        <pt x="103" y="0" on="1"/>
        <pt x="-23" y="0" on="1"/>
        <pt x="-27" y="0" on="0"/>
        <pt x="-32" y="6" on="0"/>
        <pt x="-29" y="13" on="1"/>
        <pt x="83" y="255" on="0"/>
        <pt x="245" y="608" on="0"/>
        <pt x="291" y="702" on="1"/>
        <pt x="514" y="702" on="1"/>
        <pt x="520" y="702" on="0"/>
        <pt x="521" y="699" on="1"/>
        <pt x="522" y="698" on="0"/>
        <pt x="524" y="695" on="0"/>
        <pt x="523" y="690" on="1"/>
        <pt x="520" y="553" on="0"/>
        <pt x="508" y="202" on="0"/>
        <pt x="500" y="0" on="1"/>
        <pt x="378" y="0" on="1"/>
        <pt x="373" y="0" on="0"/>
        <pt x="371" y="3" on="1"/>
        <pt x="370" y="4" on="0"/>
        <pt x="370" y="12" on="1"/>
        <pt x="372" y="55" on="0"/>
        <pt x="375" y="133" on="0"/>
        <pt x="377" y="168" on="1"/>
        <pt x="178" y="168" on="1"/>
        <pt x="162" y="131" on="0"/>
        <pt x="124" y="47" on="0"/>
      </contour>
      <contour>
        <pt x="385" y="574" on="1"/>
        <pt x="363" y="574" on="1"/>
        <pt x="346" y="538" on="0"/>
        <pt x="309" y="457" on="0"/>
        <pt x="263" y="356" on="0"/>
        <pt x="233" y="289" on="1"/>
        <pt x="382" y="289" on="1"/>
        <pt x="385" y="375" on="0"/>
        <pt x="390" y="508" on="0"/>
        <pt x="392" y="568" on="1"/>
        <pt x="392" y="574" on="0"/>
      </contour>
    </TTGlyph>
    <TTGlyph name="AE" xMin="-58" yMin="0" xMax="687" yMax="700">
      <contour>
        <pt x="76" y="0" on="1"/>
        <pt x="-49" y="0" on="1"/>
        <pt x="-52" y="0" on="0"/>
        <pt x="-58" y="6" on="0"/>
        <pt x="-54" y="13" on="1"/>
        <pt x="252" y="700" on="1"/>
        <pt x="416" y="700" on="1"/>
        <pt x="429" y="700" on="0"/>
        <pt x="458" y="700" on="0"/>
        <pt x="474" y="700" on="1"/>
        <pt x="677" y="700" on="1"/>
        <pt x="683" y="700" on="0"/>
        <pt x="684" y="697" on="1"/>
        <pt x="687" y="694" on="0"/>
        <pt x="685" y="689" on="1"/>
        <pt x="678" y="660" on="0"/>
        <pt x="665" y="606" on="0"/>
        <pt x="657" y="577" on="1"/>
        <pt x="463" y="577" on="1"/>
        <pt x="456" y="535" on="0"/>
        <pt x="442" y="452" on="0"/>
        <pt x="434" y="410" on="1"/>
        <pt x="564" y="410" on="1"/>
        <pt x="575" y="410" on="0"/>
        <pt x="573" y="399" on="1"/>
        <pt x="566" y="371" on="0"/>
        <pt x="553" y="321" on="0"/>
        <pt x="546" y="293" on="1"/>
        <pt x="414" y="293" on="1"/>
        <pt x="407" y="250" on="0"/>
        <pt x="392" y="165" on="0"/>
        <pt x="384" y="123" on="1"/>
        <pt x="533" y="123" on="1"/>
        <pt x="543" y="123" on="0"/>
        <pt x="541" y="112" on="1"/>
        <pt x="534" y="84" on="0"/>
        <pt x="520" y="29" on="0"/>
        <pt x="513" y="0" on="1"/>
        <pt x="247" y="0" on="1"/>
        <pt x="238" y="0" on="0"/>
        <pt x="238" y="7" on="1"/>
        <pt x="244" y="40" on="0"/>
        <pt x="256" y="107" on="0"/>
        <pt x="262" y="140" on="1"/>
        <pt x="137" y="140" on="1"/>
        <pt x="122" y="105" on="0"/>
        <pt x="91" y="35" on="0"/>
      </contour>
      <contour>
        <pt x="332" y="577" on="1"/>
        <pt x="327" y="577" on="1"/>
        <pt x="292" y="497" on="0"/>
        <pt x="223" y="338" on="0"/>
        <pt x="189" y="259" on="1"/>
        <pt x="283" y="259" on="1"/>
        <pt x="296" y="336" on="0"/>
        <pt x="323" y="489" on="0"/>
        <pt x="337" y="566" on="1"/>
        <pt x="339" y="574" on="0"/>
        <pt x="336" y="577" on="0"/>
      </contour>
    </TTGlyph>
    <TTGlyph name="AEacute" xMin="-58" yMin="0" xMax="731" yMax="955">
      <contour>
        <pt x="526" y="775" on="1"/>
        <pt x="419" y="775" on="1"/>
        <pt x="457" y="821" on="0"/>
        <pt x="533" y="909" on="0"/>
        <pt x="571" y="955" on="1"/>
        <pt x="723" y="955" on="1"/>
        <pt x="729" y="955" on="0"/>
        <pt x="731" y="945" on="0"/>
        <pt x="726" y="940" on="1"/>
        <pt x="694" y="912" on="0"/>
        <pt x="645" y="869" on="0"/>
        <pt x="588" y="819" on="0"/>
        <pt x="544" y="781" on="1"/>
        <pt x="541" y="779" on="0"/>
        <pt x="532" y="775" on="0"/>
      </contour>
      <contour>
        <pt x="76" y="0" on="1"/>
        <pt x="-49" y="0" on="1"/>
        <pt x="-52" y="0" on="0"/>
        <pt x="-58" y="6" on="0"/>
        <pt x="-54" y="13" on="1"/>
        <pt x="252" y="700" on="1"/>
        <pt x="416" y="700" on="1"/>
        <pt x="429" y="700" on="0"/>
        <pt x="458" y="700" on="0"/>
        <pt x="474" y="700" on="1"/>
        <pt x="677" y="700" on="1"/>
        <pt x="683" y="700" on="0"/>
        <pt x="684" y="697" on="1"/>
        <pt x="687" y="694" on="0"/>
        <pt x="685" y="689" on="1"/>
        <pt x="678" y="660" on="0"/>
        <pt x="665" y="606" on="0"/>
        <pt x="657" y="577" on="1"/>
        <pt x="463" y="577" on="1"/>
        <pt x="456" y="535" on="0"/>
        <pt x="442" y="452" on="0"/>
        <pt x="434" y="410" on="1"/>
        <pt x="564" y="410" on="1"/>
        <pt x="575" y="410" on="0"/>
        <pt x="573" y="399" on="1"/>
        <pt x="566" y="371" on="0"/>
        <pt x="553" y="321" on="0"/>
        <pt x="546" y="293" on="1"/>
        <pt x="414" y="293" on="1"/>
        <pt x="407" y="250" on="0"/>
        <pt x="392" y="165" on="0"/>
        <pt x="384" y="123" on="1"/>
        <pt x="533" y="123" on="1"/>
        <pt x="543" y="123" on="0"/>
        <pt x="541" y="112" on="1"/>
        <pt x="534" y="84" on="0"/>
        <pt x="520" y="29" on="0"/>
        <pt x="513" y="0" on="1"/>
        <pt x="247" y="0" on="1"/>
        <pt x="238" y="0" on="0"/>
        <pt x="238" y="7" on="1"/>
        <pt x="244" y="40" on="0"/>
        <pt x="256" y="107" on="0"/>
        <pt x="262" y="140" on="1"/>
        <pt x="137" y="140" on="1"/>
        <pt x="122" y="105" on="0"/>
        <pt x="91" y="35" on="0"/>
      </contour>
      <contour>
        <pt x="332" y="577" on="1"/>
        <pt x="327" y="577" on="1"/>
        <pt x="292" y="497" on="0"/>
        <pt x="223" y="338" on="0"/>
        <pt x="189" y="259" on="1"/>
        <pt x="283" y="259" on="1"/>
        <pt x="296" y="336" on="0"/>
        <pt x="323" y="489" on="0"/>
        <pt x="337" y="566" on="1"/>
        <pt x="339" y="574" on="0"/>
        <pt x="336" y="577" on="0"/>
      </contour>
    </TTGlyph>
    <TTGlyph name="Aacute" xMin="-32" yMin="0" xMax="679" yMax="955">
      <contour>
        <pt x="474" y="775" on="1"/>
        <pt x="368" y="775" on="1"/>
        <pt x="406" y="821" on="0"/>
        <pt x="481" y="909" on="0"/>
        <pt x="519" y="955" on="1"/>
        <pt x="672" y="955" on="1"/>
        <pt x="678" y="955" on="0"/>
        <pt x="679" y="945" on="0"/>
        <pt x="674" y="940" on="1"/>
        <pt x="642" y="912" on="0"/>
        <pt x="593" y="869" on="0"/>
        <pt x="536" y="819" on="0"/>
        <pt x="492" y="781" on="1"/>
        <pt x="489" y="779" on="0"/>
        <pt x="480" y="775" on="0"/>
      </contour>
      <contour>
        <pt x="100" y="0" on="1"/>
        <pt x="-24" y="0" on="1"/>
        <pt x="-27" y="0" on="0"/>
        <pt x="-32" y="6" on="0"/>
        <pt x="-28" y="13" on="1"/>
        <pt x="83" y="255" on="0"/>
        <pt x="245" y="608" on="0"/>
        <pt x="291" y="702" on="1"/>
        <pt x="515" y="702" on="1"/>
        <pt x="520" y="702" on="0"/>
        <pt x="522" y="699" on="1"/>
        <pt x="524" y="697" on="0"/>
        <pt x="524" y="691" on="1"/>
        <pt x="520" y="553" on="0"/>
        <pt x="508" y="202" on="0"/>
        <pt x="501" y="0" on="1"/>
        <pt x="375" y="0" on="1"/>
        <pt x="370" y="0" on="0"/>
        <pt x="367" y="3" on="1"/>
        <pt x="367" y="4" on="0"/>
        <pt x="366" y="7" on="0"/>
        <pt x="366" y="12" on="1"/>
        <pt x="368" y="54" on="0"/>
        <pt x="372" y="130" on="0"/>
        <pt x="373" y="164" on="1"/>
        <pt x="174" y="164" on="1"/>
        <pt x="157" y="128" on="0"/>
        <pt x="121" y="46" on="0"/>
      </contour>
      <contour>
        <pt x="382" y="574" on="1"/>
        <pt x="362" y="574" on="1"/>
        <pt x="345" y="538" on="0"/>
        <pt x="307" y="458" on="0"/>
        <pt x="261" y="356" on="0"/>
        <pt x="230" y="289" on="1"/>
        <pt x="379" y="289" on="1"/>
        <pt x="382" y="375" on="0"/>
        <pt x="386" y="508" on="0"/>
        <pt x="388" y="568" on="1"/>
        <pt x="388" y="574" on="0"/>
      </contour>
    </TTGlyph>
    <TTGlyph name="Abreve" xMin="-32" yMin="0" xMax="660" yMax="947">
      <contour>
        <pt x="376" y="947" on="1"/>
        <pt x="381" y="914" on="0"/>
        <pt x="419" y="888" on="0"/>
        <pt x="455" y="888" on="1"/>
        <pt x="491" y="888" on="0"/>
        <pt x="541" y="914" on="0"/>
        <pt x="563" y="947" on="1"/>
        <pt x="646" y="947" on="1"/>
        <pt x="656" y="947" on="0"/>
        <pt x="660" y="939" on="0"/>
        <pt x="655" y="927" on="1"/>
        <pt x="640" y="890" on="0"/>
        <pt x="577" y="824" on="0"/>
        <pt x="496" y="783" on="0"/>
        <pt x="452" y="783" on="1"/>
        <pt x="405" y="783" on="1"/>
        <pt x="361" y="783" on="0"/>
        <pt x="300" y="824" on="0"/>
        <pt x="272" y="890" on="0"/>
        <pt x="275" y="927" on="1"/>
        <pt x="276" y="939" on="0"/>
        <pt x="283" y="947" on="0"/>
        <pt x="293" y="947" on="1"/>
      </contour>
      <contour>
        <pt x="100" y="0" on="1"/>
        <pt x="-24" y="0" on="1"/>
        <pt x="-27" y="0" on="0"/>
        <pt x="-32" y="6" on="0"/>
        <pt x="-28" y="13" on="1"/>
        <pt x="83" y="255" on="0"/>
        <pt x="245" y="608" on="0"/>
        <pt x="291" y="702" on="1"/>
        <pt x="515" y="702" on="1"/>
        <pt x="520" y="702" on="0"/>
        <pt x="522" y="699" on="1"/>
        <pt x="524" y="697" on="0"/>
        <pt x="524" y="691" on="1"/>
        <pt x="520" y="553" on="0"/>
        <pt x="508" y="202" on="0"/>
        <pt x="501" y="0" on="1"/>
        <pt x="375" y="0" on="1"/>
        <pt x="370" y="0" on="0"/>
        <pt x="367" y="3" on="1"/>
        <pt x="367" y="4" on="0"/>
        <pt x="366" y="7" on="0"/>
        <pt x="366" y="12" on="1"/>
        <pt x="368" y="54" on="0"/>
        <pt x="372" y="130" on="0"/>
        <pt x="373" y="164" on="1"/>
        <pt x="174" y="164" on="1"/>
        <pt x="157" y="128" on="0"/>
        <pt x="121" y="46" on="0"/>
      </contour>
      <contour>
        <pt x="382" y="574" on="1"/>
        <pt x="362" y="574" on="1"/>
        <pt x="345" y="538" on="0"/>
        <pt x="307" y="458" on="0"/>
        <pt x="261" y="356" on="0"/>
        <pt x="230" y="289" on="1"/>
        <pt x="379" y="289" on="1"/>
        <pt x="382" y="375" on="0"/>
        <pt x="386" y="508" on="0"/>
        <pt x="388" y="568" on="1"/>
        <pt x="388" y="574" on="0"/>
      </contour>
    </TTGlyph>
    <TTGlyph name="Acircumflex" xMin="-32" yMin="0" xMax="670" yMax="946">
      <contour>
        <pt x="320" y="775" on="1"/>
        <pt x="207" y="775" on="1"/>
        <pt x="196" y="775" on="0"/>
        <pt x="198" y="783" on="1"/>
        <pt x="199" y="787" on="0"/>
        <pt x="208" y="795" on="0"/>
        <pt x="224" y="808" on="1"/>
        <pt x="238" y="819" on="0"/>
        <pt x="285" y="857" on="0"/>
        <pt x="338" y="899" on="0"/>
        <pt x="384" y="936" on="0"/>
        <pt x="397" y="946" on="1"/>
        <pt x="531" y="946" on="1"/>
        <pt x="539" y="946" on="0"/>
        <pt x="547" y="939" on="0"/>
        <pt x="557" y="927" on="1"/>
        <pt x="565" y="918" on="0"/>
        <pt x="605" y="864" on="0"/>
        <pt x="652" y="800" on="0"/>
        <pt x="670" y="775" on="1"/>
        <pt x="552" y="775" on="1"/>
        <pt x="541" y="775" on="0"/>
        <pt x="531" y="779" on="0"/>
        <pt x="525" y="785" on="1"/>
        <pt x="516" y="795" on="0"/>
        <pt x="476" y="837" on="0"/>
        <pt x="450" y="864" on="1"/>
        <pt x="413" y="839" on="0"/>
        <pt x="350" y="796" on="0"/>
      </contour>
      <contour>
        <pt x="100" y="0" on="1"/>
        <pt x="-24" y="0" on="1"/>
        <pt x="-27" y="0" on="0"/>
        <pt x="-32" y="6" on="0"/>
        <pt x="-28" y="13" on="1"/>
        <pt x="83" y="255" on="0"/>
        <pt x="245" y="608" on="0"/>
        <pt x="291" y="702" on="1"/>
        <pt x="515" y="702" on="1"/>
        <pt x="520" y="702" on="0"/>
        <pt x="522" y="699" on="1"/>
        <pt x="524" y="697" on="0"/>
        <pt x="524" y="691" on="1"/>
        <pt x="520" y="553" on="0"/>
        <pt x="508" y="202" on="0"/>
        <pt x="501" y="0" on="1"/>
        <pt x="375" y="0" on="1"/>
        <pt x="370" y="0" on="0"/>
        <pt x="367" y="3" on="1"/>
        <pt x="367" y="4" on="0"/>
        <pt x="366" y="7" on="0"/>
        <pt x="366" y="12" on="1"/>
        <pt x="368" y="54" on="0"/>
        <pt x="372" y="130" on="0"/>
        <pt x="373" y="164" on="1"/>
        <pt x="174" y="164" on="1"/>
        <pt x="157" y="128" on="0"/>
        <pt x="121" y="46" on="0"/>
      </contour>
      <contour>
        <pt x="382" y="574" on="1"/>
        <pt x="362" y="574" on="1"/>
        <pt x="345" y="538" on="0"/>
        <pt x="307" y="458" on="0"/>
        <pt x="261" y="356" on="0"/>
        <pt x="230" y="289" on="1"/>
        <pt x="379" y="289" on="1"/>
        <pt x="382" y="375" on="0"/>
        <pt x="386" y="508" on="0"/>
        <pt x="388" y="568" on="1"/>
        <pt x="388" y="574" on="0"/>
      </contour>
    </TTGlyph>
    <TTGlyph name="Adieresis" xMin="-32" yMin="0" xMax="644" yMax="927">
      <contour>
        <pt x="394" y="791" on="1"/>
        <pt x="262" y="791" on="1"/>
        <pt x="250" y="791" on="0"/>
        <pt x="254" y="802" on="1"/>
        <pt x="285" y="927" on="1"/>
        <pt x="417" y="927" on="1"/>
        <pt x="429" y="927" on="0"/>
        <pt x="425" y="916" on="1"/>
      </contour>
      <contour>
        <pt x="610" y="791" on="1"/>
        <pt x="479" y="791" on="1"/>
        <pt x="468" y="791" on="0"/>
        <pt x="470" y="802" on="1"/>
        <pt x="501" y="927" on="1"/>
        <pt x="633" y="927" on="1"/>
        <pt x="644" y="927" on="0"/>
        <pt x="642" y="916" on="1"/>
      </contour>
      <contour>
        <pt x="100" y="0" on="1"/>
        <pt x="-24" y="0" on="1"/>
        <pt x="-27" y="0" on="0"/>
        <pt x="-32" y="6" on="0"/>
        <pt x="-28" y="13" on="1"/>
        <pt x="83" y="255" on="0"/>
        <pt x="245" y="608" on="0"/>
        <pt x="291" y="702" on="1"/>
        <pt x="515" y="702" on="1"/>
        <pt x="520" y="702" on="0"/>
        <pt x="522" y="699" on="1"/>
        <pt x="524" y="697" on="0"/>
        <pt x="524" y="691" on="1"/>
        <pt x="520" y="553" on="0"/>
        <pt x="508" y="202" on="0"/>
        <pt x="501" y="0" on="1"/>
        <pt x="375" y="0" on="1"/>
        <pt x="370" y="0" on="0"/>
        <pt x="367" y="3" on="1"/>
        <pt x="367" y="4" on="0"/>
        <pt x="366" y="7" on="0"/>
        <pt x="366" y="12" on="1"/>
        <pt x="368" y="54" on="0"/>
        <pt x="372" y="130" on="0"/>
        <pt x="373" y="164" on="1"/>
        <pt x="174" y="164" on="1"/>
        <pt x="157" y="128" on="0"/>
        <pt x="121" y="46" on="0"/>
      </contour>
      <contour>
        <pt x="382" y="574" on="1"/>
        <pt x="362" y="574" on="1"/>
        <pt x="345" y="538" on="0"/>
        <pt x="307" y="458" on="0"/>
        <pt x="261" y="356" on="0"/>
        <pt x="230" y="289" on="1"/>
        <pt x="379" y="289" on="1"/>
        <pt x="382" y="375" on="0"/>
        <pt x="386" y="508" on="0"/>
        <pt x="388" y="568" on="1"/>
        <pt x="388" y="574" on="0"/>
      </contour>
    </TTGlyph>
    <TTGlyph name="Adotbelow" xMin="-32" yMin="-239" xMax="524" yMax="702">
      <contour>
        <pt x="100" y="0" on="1"/>
        <pt x="-24" y="0" on="1"/>
        <pt x="-27" y="0" on="0"/>
        <pt x="-32" y="6" on="0"/>
        <pt x="-28" y="13" on="1"/>
        <pt x="83" y="255" on="0"/>
        <pt x="245" y="608" on="0"/>
        <pt x="291" y="702" on="1"/>
        <pt x="515" y="702" on="1"/>
        <pt x="520" y="702" on="0"/>
        <pt x="522" y="699" on="1"/>
        <pt x="524" y="697" on="0"/>
        <pt x="524" y="691" on="1"/>
        <pt x="520" y="553" on="0"/>
        <pt x="508" y="202" on="0"/>
        <pt x="501" y="0" on="1"/>
        <pt x="375" y="0" on="1"/>
        <pt x="370" y="0" on="0"/>
        <pt x="367" y="3" on="1"/>
        <pt x="367" y="4" on="0"/>
        <pt x="366" y="7" on="0"/>
        <pt x="366" y="12" on="1"/>
        <pt x="368" y="54" on="0"/>
        <pt x="372" y="130" on="0"/>
        <pt x="373" y="164" on="1"/>
        <pt x="174" y="164" on="1"/>
        <pt x="157" y="128" on="0"/>
        <pt x="121" y="46" on="0"/>
      </contour>
      <contour>
        <pt x="382" y="574" on="1"/>
        <pt x="362" y="574" on="1"/>
        <pt x="345" y="538" on="0"/>
        <pt x="307" y="458" on="0"/>
        <pt x="261" y="356" on="0"/>
        <pt x="230" y="289" on="1"/>
        <pt x="379" y="289" on="1"/>
        <pt x="382" y="375" on="0"/>
        <pt x="386" y="508" on="0"/>
        <pt x="388" y="568" on="1"/>
        <pt x="388" y="574" on="0"/>
      </contour>
      <contour>
        <pt x="254" y="-239" on="1"/>
        <pt x="103" y="-239" on="1"/>
        <pt x="92" y="-239" on="0"/>
        <pt x="94" y="-228" on="1"/>
        <pt x="126" y="-101" on="1"/>
        <pt x="278" y="-101" on="1"/>
        <pt x="290" y="-101" on="0"/>
        <pt x="286" y="-112" on="1"/>
      </contour>
    </TTGlyph>
    <TTGlyph name="Agrave" xMin="-32" yMin="0" xMax="524" yMax="955">
      <contour>
        <pt x="485" y="775" on="1"/>
        <pt x="379" y="775" on="1"/>
        <pt x="368" y="775" on="0"/>
        <pt x="364" y="782" on="1"/>
        <pt x="339" y="820" on="0"/>
        <pt x="307" y="869" on="0"/>
        <pt x="280" y="913" on="0"/>
        <pt x="262" y="941" on="1"/>
        <pt x="259" y="946" on="0"/>
        <pt x="265" y="955" on="0"/>
        <pt x="271" y="955" on="1"/>
        <pt x="424" y="955" on="1"/>
        <pt x="439" y="909" on="0"/>
        <pt x="470" y="821" on="0"/>
      </contour>
      <contour>
        <pt x="100" y="0" on="1"/>
        <pt x="-24" y="0" on="1"/>
        <pt x="-27" y="0" on="0"/>
        <pt x="-32" y="6" on="0"/>
        <pt x="-28" y="13" on="1"/>
        <pt x="83" y="255" on="0"/>
        <pt x="245" y="608" on="0"/>
        <pt x="291" y="702" on="1"/>
        <pt x="515" y="702" on="1"/>
        <pt x="520" y="702" on="0"/>
        <pt x="522" y="699" on="1"/>
        <pt x="524" y="697" on="0"/>
        <pt x="524" y="691" on="1"/>
        <pt x="520" y="553" on="0"/>
        <pt x="508" y="202" on="0"/>
        <pt x="501" y="0" on="1"/>
        <pt x="375" y="0" on="1"/>
        <pt x="370" y="0" on="0"/>
        <pt x="367" y="3" on="1"/>
        <pt x="367" y="4" on="0"/>
        <pt x="366" y="7" on="0"/>
        <pt x="366" y="12" on="1"/>
        <pt x="368" y="54" on="0"/>
        <pt x="372" y="130" on="0"/>
        <pt x="373" y="164" on="1"/>
        <pt x="174" y="164" on="1"/>
        <pt x="157" y="128" on="0"/>
        <pt x="121" y="46" on="0"/>
      </contour>
      <contour>
        <pt x="382" y="574" on="1"/>
        <pt x="362" y="574" on="1"/>
        <pt x="345" y="538" on="0"/>
        <pt x="307" y="458" on="0"/>
        <pt x="261" y="356" on="0"/>
        <pt x="230" y="289" on="1"/>
        <pt x="379" y="289" on="1"/>
        <pt x="382" y="375" on="0"/>
        <pt x="386" y="508" on="0"/>
        <pt x="388" y="568" on="1"/>
        <pt x="388" y="574" on="0"/>
      </contour>
    </TTGlyph>
    <TTGlyph name="Amacron" xMin="-32" yMin="0" xMax="639" yMax="912">
      <contour>
        <pt x="282" y="912" on="1"/>
        <pt x="629" y="912" on="1"/>
        <pt x="639" y="912" on="0"/>
        <pt x="637" y="901" on="1"/>
        <pt x="630" y="875" on="0"/>
        <pt x="619" y="827" on="0"/>
        <pt x="612" y="801" on="1"/>
        <pt x="265" y="801" on="1"/>
        <pt x="254" y="801" on="0"/>
        <pt x="257" y="812" on="1"/>
        <pt x="264" y="838" on="0"/>
        <pt x="275" y="886" on="0"/>
      </contour>
      <contour>
        <pt x="100" y="0" on="1"/>
        <pt x="-24" y="0" on="1"/>
        <pt x="-27" y="0" on="0"/>
        <pt x="-32" y="6" on="0"/>
        <pt x="-28" y="13" on="1"/>
        <pt x="83" y="255" on="0"/>
        <pt x="245" y="608" on="0"/>
        <pt x="291" y="702" on="1"/>
        <pt x="515" y="702" on="1"/>
        <pt x="520" y="702" on="0"/>
        <pt x="522" y="699" on="1"/>
        <pt x="524" y="697" on="0"/>
        <pt x="524" y="691" on="1"/>
        <pt x="520" y="553" on="0"/>
        <pt x="508" y="202" on="0"/>
        <pt x="501" y="0" on="1"/>
        <pt x="375" y="0" on="1"/>
        <pt x="370" y="0" on="0"/>
        <pt x="367" y="3" on="1"/>
        <pt x="367" y="4" on="0"/>
        <pt x="366" y="7" on="0"/>
        <pt x="366" y="12" on="1"/>
        <pt x="368" y="54" on="0"/>
        <pt x="372" y="130" on="0"/>
        <pt x="373" y="164" on="1"/>
        <pt x="174" y="164" on="1"/>
        <pt x="157" y="128" on="0"/>
        <pt x="121" y="46" on="0"/>
      </contour>
      <contour>
        <pt x="382" y="574" on="1"/>
        <pt x="362" y="574" on="1"/>
        <pt x="345" y="538" on="0"/>
        <pt x="307" y="458" on="0"/>
        <pt x="261" y="356" on="0"/>
        <pt x="230" y="289" on="1"/>
        <pt x="379" y="289" on="1"/>
        <pt x="382" y="375" on="0"/>
        <pt x="386" y="508" on="0"/>
        <pt x="388" y="568" on="1"/>
        <pt x="388" y="574" on="0"/>
      </contour>
    </TTGlyph>
    <TTGlyph name="Aogonek" xMin="-32" yMin="-250" xMax="524" yMax="702">
      <contour>
        <pt x="100" y="0" on="1"/>
        <pt x="-24" y="0" on="1"/>
        <pt x="-27" y="0" on="0"/>
        <pt x="-32" y="6" on="0"/>
        <pt x="-28" y="13" on="1"/>
        <pt x="83" y="255" on="0"/>
        <pt x="245" y="608" on="0"/>
        <pt x="291" y="702" on="1"/>
        <pt x="515" y="702" on="1"/>
        <pt x="520" y="702" on="0"/>
        <pt x="522" y="699" on="1"/>
        <pt x="524" y="697" on="0"/>
        <pt x="524" y="691" on="1"/>
        <pt x="520" y="553" on="0"/>
        <pt x="508" y="202" on="0"/>
        <pt x="501" y="0" on="1"/>
        <pt x="500" y="0" on="1"/>
        <pt x="499" y="-4" on="0"/>
        <pt x="494" y="-9" on="0"/>
        <pt x="485" y="-11" on="1"/>
        <pt x="430" y="-21" on="0"/>
        <pt x="370" y="-60" on="0"/>
        <pt x="364" y="-86" on="1"/>
        <pt x="355" y="-123" on="0"/>
        <pt x="398" y="-123" on="1"/>
        <pt x="412" y="-123" on="0"/>
        <pt x="437" y="-115" on="0"/>
        <pt x="450" y="-108" on="1"/>
        <pt x="469" y="-108" on="1"/>
        <pt x="467" y="-117" on="0"/>
        <pt x="461" y="-140" on="0"/>
        <pt x="451" y="-180" on="0"/>
        <pt x="442" y="-216" on="1"/>
        <pt x="438" y="-230" on="0"/>
        <pt x="385" y="-250" on="0"/>
        <pt x="351" y="-250" on="1"/>
        <pt x="284" y="-250" on="0"/>
        <pt x="221" y="-184" on="0"/>
        <pt x="236" y="-125" on="1"/>
        <pt x="249" y="-73" on="0"/>
        <pt x="323" y="0" on="0"/>
        <pt x="366" y="19" on="1"/>
        <pt x="368" y="59" on="0"/>
        <pt x="372" y="131" on="0"/>
        <pt x="373" y="164" on="1"/>
        <pt x="174" y="164" on="1"/>
        <pt x="157" y="128" on="0"/>
        <pt x="121" y="46" on="0"/>
      </contour>
      <contour>
        <pt x="382" y="574" on="1"/>
        <pt x="362" y="574" on="1"/>
        <pt x="345" y="538" on="0"/>
        <pt x="307" y="458" on="0"/>
        <pt x="261" y="356" on="0"/>
        <pt x="230" y="289" on="1"/>
        <pt x="379" y="289" on="1"/>
        <pt x="382" y="375" on="0"/>
        <pt x="386" y="508" on="0"/>
        <pt x="388" y="568" on="1"/>
        <pt x="388" y="574" on="0"/>
      </contour>
    </TTGlyph>
    <TTGlyph name="Aring" xMin="-32" yMin="0" xMax="608" yMax="898">
      <contour>
        <pt x="100" y="0" on="1"/>
        <pt x="-24" y="0" on="1"/>
        <pt x="-27" y="0" on="0"/>
        <pt x="-32" y="6" on="0"/>
        <pt x="-28" y="13" on="1"/>
        <pt x="71" y="230" on="0"/>
        <pt x="223" y="559" on="0"/>
        <pt x="270" y="659" on="1"/>
        <pt x="238" y="692" on="0"/>
        <pt x="252" y="747" on="1"/>
        <pt x="259" y="773" on="1"/>
        <pt x="273" y="831" on="0"/>
        <pt x="378" y="898" on="0"/>
        <pt x="457" y="898" on="1"/>
        <pt x="537" y="898" on="0"/>
        <pt x="608" y="831" on="0"/>
        <pt x="593" y="773" on="1"/>
        <pt x="587" y="747" on="1"/>
        <pt x="573" y="692" on="0"/>
        <pt x="523" y="658" on="1"/>
        <pt x="519" y="524" on="0"/>
        <pt x="507" y="190" on="0"/>
        <pt x="501" y="0" on="1"/>
        <pt x="375" y="0" on="1"/>
        <pt x="370" y="0" on="0"/>
        <pt x="367" y="3" on="1"/>
        <pt x="367" y="4" on="0"/>
        <pt x="366" y="7" on="0"/>
        <pt x="366" y="12" on="1"/>
        <pt x="368" y="54" on="0"/>
        <pt x="372" y="130" on="0"/>
        <pt x="373" y="164" on="1"/>
        <pt x="174" y="164" on="1"/>
        <pt x="157" y="128" on="0"/>
        <pt x="121" y="46" on="0"/>
      </contour>
      <contour>
        <pt x="361" y="752" on="1"/>
        <pt x="355" y="730" on="0"/>
        <pt x="381" y="704" on="0"/>
        <pt x="409" y="704" on="1"/>
        <pt x="438" y="704" on="0"/>
        <pt x="476" y="730" on="0"/>
        <pt x="481" y="752" on="1"/>
        <pt x="485" y="768" on="1"/>
        <pt x="491" y="791" on="0"/>
        <pt x="466" y="816" on="0"/>
        <pt x="437" y="816" on="1"/>
        <pt x="409" y="816" on="0"/>
        <pt x="370" y="791" on="0"/>
        <pt x="365" y="768" on="1"/>
      </contour>
      <contour>
        <pt x="382" y="574" on="1"/>
        <pt x="362" y="574" on="1"/>
        <pt x="345" y="538" on="0"/>
        <pt x="307" y="458" on="0"/>
        <pt x="261" y="356" on="0"/>
        <pt x="230" y="289" on="1"/>
        <pt x="379" y="289" on="1"/>
        <pt x="382" y="375" on="0"/>
        <pt x="386" y="508" on="0"/>
        <pt x="388" y="568" on="1"/>
        <pt x="388" y="574" on="0"/>
      </contour>
    </TTGlyph>
    <TTGlyph name="Aringacute" xMin="-32" yMin="0" xMax="708" yMax="1035">
      <contour>
        <pt x="100" y="0" on="1"/>
        <pt x="-24" y="0" on="1"/>
        <pt x="-27" y="0" on="0"/>
        <pt x="-32" y="6" on="0"/>
        <pt x="-28" y="13" on="1"/>
        <pt x="71" y="230" on="0"/>
        <pt x="223" y="559" on="0"/>
        <pt x="270" y="659" on="1"/>
        <pt x="238" y="692" on="0"/>
        <pt x="252" y="747" on="1"/>
        <pt x="259" y="773" on="1"/>
        <pt x="272" y="826" on="0"/>
        <pt x="362" y="891" on="0"/>
        <pt x="430" y="897" on="1"/>
        <pt x="460" y="931" on="0"/>
        <pt x="518" y="1000" on="0"/>
        <pt x="548" y="1035" on="1"/>
        <pt x="700" y="1035" on="1"/>
        <pt x="706" y="1035" on="0"/>
        <pt x="708" y="1026" on="0"/>
        <pt x="703" y="1021" on="1"/>
        <pt x="674" y="996" on="0"/>
        <pt x="629" y="956" on="0"/>
        <pt x="580" y="913" on="0"/>
        <pt x="545" y="882" on="1"/>
        <pt x="613" y="851" on="0"/>
        <pt x="593" y="773" on="1"/>
        <pt x="587" y="747" on="1"/>
        <pt x="573" y="692" on="0"/>
        <pt x="523" y="658" on="1"/>
        <pt x="519" y="524" on="0"/>
        <pt x="507" y="190" on="0"/>
        <pt x="501" y="0" on="1"/>
        <pt x="375" y="0" on="1"/>
        <pt x="370" y="0" on="0"/>
        <pt x="367" y="3" on="1"/>
        <pt x="367" y="4" on="0"/>
        <pt x="366" y="7" on="0"/>
        <pt x="366" y="12" on="1"/>
        <pt x="368" y="54" on="0"/>
        <pt x="372" y="130" on="0"/>
        <pt x="373" y="164" on="1"/>
        <pt x="174" y="164" on="1"/>
        <pt x="157" y="128" on="0"/>
        <pt x="121" y="46" on="0"/>
      </contour>
      <contour>
        <pt x="361" y="752" on="1"/>
        <pt x="355" y="730" on="0"/>
        <pt x="381" y="704" on="0"/>
        <pt x="409" y="704" on="1"/>
        <pt x="438" y="704" on="0"/>
        <pt x="476" y="730" on="0"/>
        <pt x="481" y="752" on="1"/>
        <pt x="485" y="768" on="1"/>
        <pt x="491" y="791" on="0"/>
        <pt x="466" y="816" on="0"/>
        <pt x="437" y="816" on="1"/>
        <pt x="409" y="816" on="0"/>
        <pt x="370" y="791" on="0"/>
        <pt x="365" y="768" on="1"/>
      </contour>
      <contour>
        <pt x="382" y="574" on="1"/>
        <pt x="362" y="574" on="1"/>
        <pt x="345" y="538" on="0"/>
        <pt x="307" y="458" on="0"/>
        <pt x="261" y="356" on="0"/>
        <pt x="230" y="289" on="1"/>
        <pt x="379" y="289" on="1"/>
        <pt x="382" y="375" on="0"/>
        <pt x="386" y="508" on="0"/>
        <pt x="388" y="568" on="1"/>
        <pt x="388" y="574" on="0"/>
      </contour>
    </TTGlyph>
    <TTGlyph name="Atilde" xMin="-32" yMin="0" xMax="669" yMax="954">
      <contour>
        <pt x="563" y="897" on="1"/>
        <pt x="586" y="897" on="0"/>
        <pt x="629" y="916" on="0"/>
        <pt x="651" y="938" on="1"/>
        <pt x="669" y="938" on="1"/>
        <pt x="663" y="913" on="0"/>
        <pt x="647" y="850" on="0"/>
        <pt x="642" y="830" on="1"/>
        <pt x="641" y="822" on="0"/>
        <pt x="637" y="813" on="0"/>
        <pt x="630" y="808" on="1"/>
        <pt x="610" y="792" on="0"/>
        <pt x="560" y="771" on="0"/>
        <pt x="527" y="771" on="1"/>
        <pt x="495" y="771" on="0"/>
        <pt x="446" y="788" on="0"/>
        <pt x="403" y="811" on="0"/>
        <pt x="360" y="828" on="0"/>
        <pt x="334" y="828" on="1"/>
        <pt x="287" y="828" on="0"/>
        <pt x="246" y="787" on="1"/>
        <pt x="228" y="787" on="1"/>
        <pt x="234" y="812" on="0"/>
        <pt x="250" y="876" on="0"/>
        <pt x="255" y="895" on="1"/>
        <pt x="257" y="903" on="0"/>
        <pt x="260" y="911" on="0"/>
        <pt x="267" y="917" on="1"/>
        <pt x="287" y="934" on="0"/>
        <pt x="337" y="954" on="0"/>
        <pt x="370" y="954" on="1"/>
        <pt x="402" y="954" on="0"/>
        <pt x="451" y="937" on="0"/>
        <pt x="494" y="914" on="0"/>
        <pt x="537" y="897" on="0"/>
      </contour>
      <contour>
        <pt x="100" y="0" on="1"/>
        <pt x="-24" y="0" on="1"/>
        <pt x="-27" y="0" on="0"/>
        <pt x="-32" y="6" on="0"/>
        <pt x="-28" y="13" on="1"/>
        <pt x="83" y="255" on="0"/>
        <pt x="245" y="608" on="0"/>
        <pt x="291" y="702" on="1"/>
        <pt x="515" y="702" on="1"/>
        <pt x="520" y="702" on="0"/>
        <pt x="522" y="699" on="1"/>
        <pt x="524" y="697" on="0"/>
        <pt x="524" y="691" on="1"/>
        <pt x="520" y="553" on="0"/>
        <pt x="508" y="202" on="0"/>
        <pt x="501" y="0" on="1"/>
        <pt x="375" y="0" on="1"/>
        <pt x="370" y="0" on="0"/>
        <pt x="367" y="3" on="1"/>
        <pt x="367" y="4" on="0"/>
        <pt x="366" y="7" on="0"/>
        <pt x="366" y="12" on="1"/>
        <pt x="368" y="54" on="0"/>
        <pt x="372" y="130" on="0"/>
        <pt x="373" y="164" on="1"/>
        <pt x="174" y="164" on="1"/>
        <pt x="157" y="128" on="0"/>
        <pt x="121" y="46" on="0"/>
      </contour>
      <contour>
        <pt x="382" y="574" on="1"/>
        <pt x="362" y="574" on="1"/>
        <pt x="345" y="538" on="0"/>
        <pt x="307" y="458" on="0"/>
        <pt x="261" y="356" on="0"/>
        <pt x="230" y="289" on="1"/>
        <pt x="379" y="289" on="1"/>
        <pt x="382" y="375" on="0"/>
        <pt x="386" y="508" on="0"/>
        <pt x="388" y="568" on="1"/>
        <pt x="388" y="574" on="0"/>
      </contour>
    </TTGlyph>
    <TTGlyph name="B" xMin="12" yMin="0" xMax="604" yMax="700">
      <contour>
        <pt x="516" y="171" on="1"/>
        <pt x="494" y="83" on="0"/>
        <pt x="356" y="0" on="0"/>
        <pt x="259" y="0" on="1"/>
        <pt x="23" y="0" on="1"/>
        <pt x="12" y="0" on="0"/>
        <pt x="15" y="11" on="1"/>
        <pt x="15" y="12" on="0"/>
        <pt x="15" y="13" on="1"/>
        <pt x="157" y="579" on="1"/>
        <pt x="118" y="579" on="1"/>
        <pt x="113" y="579" on="0"/>
        <pt x="111" y="582" on="1"/>
        <pt x="108" y="585" on="0"/>
        <pt x="110" y="590" on="1"/>
        <pt x="118" y="619" on="0"/>
        <pt x="132" y="678" on="0"/>
        <pt x="137" y="700" on="1"/>
        <pt x="407" y="700" on="1"/>
        <pt x="408" y="700" on="0"/>
        <pt x="409" y="700" on="1"/>
        <pt x="409" y="700" on="0"/>
        <pt x="409" y="700" on="1"/>
        <pt x="494" y="700" on="0"/>
        <pt x="581" y="646" on="0"/>
        <pt x="604" y="565" on="0"/>
        <pt x="594" y="522" on="1"/>
        <pt x="587" y="494" on="1"/>
        <pt x="574" y="442" on="0"/>
        <pt x="496" y="370" on="0"/>
        <pt x="439" y="355" on="1"/>
        <pt x="491" y="337" on="0"/>
        <pt x="539" y="258" on="0"/>
        <pt x="525" y="205" on="1"/>
      </contour>
      <contour>
        <pt x="387" y="579" on="1"/>
        <pt x="293" y="579" on="1"/>
        <pt x="249" y="400" on="1"/>
        <pt x="337" y="400" on="1"/>
        <pt x="386" y="400" on="0"/>
        <pt x="436" y="438" on="0"/>
        <pt x="445" y="473" on="1"/>
        <pt x="453" y="509" on="1"/>
        <pt x="471" y="579" on="0"/>
      </contour>
      <contour>
        <pt x="315" y="307" on="1"/>
        <pt x="225" y="307" on="1"/>
        <pt x="179" y="121" on="1"/>
        <pt x="280" y="121" on="1"/>
        <pt x="324" y="121" on="0"/>
        <pt x="375" y="156" on="0"/>
        <pt x="384" y="188" on="1"/>
        <pt x="394" y="228" on="1"/>
        <pt x="403" y="264" on="0"/>
        <pt x="368" y="307" on="0"/>
      </contour>
    </TTGlyph>
    <TTGlyph name="C" xMin="20" yMin="-20" xMax="634" yMax="720">
      <contour>
        <pt x="280" y="-20" on="1"/>
        <pt x="133" y="-20" on="0"/>
        <pt x="20" y="127" on="0"/>
        <pt x="52" y="264" on="1"/>
        <pt x="53" y="267" on="0"/>
        <pt x="54" y="271" on="1"/>
        <pt x="105" y="475" on="1"/>
        <pt x="136" y="596" on="0"/>
        <pt x="300" y="720" on="0"/>
        <pt x="424" y="720" on="1"/>
        <pt x="508" y="720" on="0"/>
        <pt x="610" y="678" on="0"/>
        <pt x="629" y="653" on="1"/>
        <pt x="634" y="647" on="0"/>
        <pt x="630" y="634" on="1"/>
        <pt x="630" y="633" on="0"/>
        <pt x="630" y="633" on="1"/>
        <pt x="588" y="465" on="1"/>
        <pt x="474" y="465" on="1"/>
        <pt x="470" y="465" on="0"/>
        <pt x="467" y="468" on="1"/>
        <pt x="464" y="471" on="0"/>
        <pt x="466" y="476" on="1"/>
        <pt x="493" y="582" on="1"/>
        <pt x="477" y="590" on="0"/>
        <pt x="437" y="598" on="0"/>
        <pt x="410" y="598" on="1"/>
        <pt x="348" y="598" on="0"/>
        <pt x="262" y="534" on="0"/>
        <pt x="243" y="461" on="1"/>
        <pt x="193" y="260" on="1"/>
        <pt x="173" y="178" on="0"/>
        <pt x="225" y="108" on="0"/>
        <pt x="299" y="108" on="1"/>
        <pt x="358" y="108" on="0"/>
        <pt x="452" y="133" on="0"/>
        <pt x="499" y="159" on="1"/>
        <pt x="517" y="159" on="1"/>
        <pt x="503" y="100" on="0"/>
        <pt x="488" y="40" on="1"/>
        <pt x="487" y="36" on="0"/>
        <pt x="483" y="32" on="1"/>
        <pt x="458" y="11" on="0"/>
        <pt x="345" y="-20" on="0"/>
      </contour>
    </TTGlyph>
    <TTGlyph name="Cacute" xMin="18" yMin="-20" xMax="685" yMax="955">
      <contour>
        <pt x="480" y="775" on="1"/>
        <pt x="374" y="775" on="1"/>
        <pt x="412" y="821" on="0"/>
        <pt x="487" y="909" on="0"/>
        <pt x="525" y="955" on="1"/>
        <pt x="678" y="955" on="1"/>
        <pt x="684" y="955" on="0"/>
        <pt x="685" y="945" on="0"/>
        <pt x="680" y="940" on="1"/>
        <pt x="648" y="912" on="0"/>
        <pt x="599" y="869" on="0"/>
        <pt x="542" y="819" on="0"/>
        <pt x="498" y="781" on="1"/>
        <pt x="495" y="779" on="0"/>
        <pt x="486" y="775" on="0"/>
      </contour>
      <contour>
        <pt x="265" y="-20" on="1"/>
        <pt x="123" y="-20" on="0"/>
        <pt x="18" y="124" on="0"/>
        <pt x="51" y="254" on="1"/>
        <pt x="100" y="451" on="1"/>
        <pt x="120" y="532" on="0"/>
        <pt x="215" y="653" on="0"/>
        <pt x="356" y="720" on="0"/>
        <pt x="445" y="720" on="1"/>
        <pt x="522" y="720" on="0"/>
        <pt x="611" y="678" on="0"/>
        <pt x="630" y="653" on="1"/>
        <pt x="635" y="647" on="0"/>
        <pt x="631" y="634" on="1"/>
        <pt x="589" y="465" on="1"/>
        <pt x="475" y="465" on="1"/>
        <pt x="471" y="465" on="0"/>
        <pt x="468" y="468" on="1"/>
        <pt x="466" y="472" on="0"/>
        <pt x="467" y="476" on="1"/>
        <pt x="492" y="577" on="1"/>
        <pt x="477" y="585" on="0"/>
        <pt x="437" y="593" on="0"/>
        <pt x="411" y="593" on="1"/>
        <pt x="347" y="593" on="0"/>
        <pt x="260" y="525" on="0"/>
        <pt x="241" y="449" on="1"/>
        <pt x="197" y="273" on="1"/>
        <pt x="175" y="187" on="0"/>
        <pt x="227" y="112" on="0"/>
        <pt x="298" y="112" on="1"/>
        <pt x="357" y="112" on="0"/>
        <pt x="454" y="137" on="0"/>
        <pt x="500" y="162" on="1"/>
        <pt x="519" y="162" on="1"/>
        <pt x="512" y="132" on="0"/>
        <pt x="497" y="71" on="0"/>
        <pt x="489" y="40" on="1"/>
        <pt x="488" y="36" on="0"/>
        <pt x="484" y="32" on="1"/>
        <pt x="457" y="11" on="0"/>
        <pt x="336" y="-20" on="0"/>
      </contour>
    </TTGlyph>
    <TTGlyph name="Ccaron" xMin="18" yMin="-20" xMax="707" yMax="946">
      <contour>
        <pt x="233" y="946" on="1"/>
        <pt x="351" y="946" on="1"/>
        <pt x="362" y="946" on="0"/>
        <pt x="372" y="942" on="0"/>
        <pt x="377" y="936" on="1"/>
        <pt x="387" y="927" on="0"/>
        <pt x="427" y="884" on="0"/>
        <pt x="453" y="857" on="1"/>
        <pt x="490" y="882" on="0"/>
        <pt x="553" y="926" on="0"/>
        <pt x="583" y="946" on="1"/>
        <pt x="695" y="946" on="1"/>
        <pt x="707" y="946" on="0"/>
        <pt x="705" y="939" on="1"/>
        <pt x="704" y="935" on="0"/>
        <pt x="696" y="927" on="0"/>
        <pt x="679" y="914" on="1"/>
        <pt x="665" y="903" on="0"/>
        <pt x="618" y="865" on="0"/>
        <pt x="564" y="822" on="0"/>
        <pt x="518" y="785" on="0"/>
        <pt x="506" y="775" on="1"/>
        <pt x="372" y="775" on="1"/>
        <pt x="365" y="775" on="0"/>
        <pt x="356" y="782" on="0"/>
        <pt x="346" y="795" on="1"/>
        <pt x="339" y="805" on="0"/>
        <pt x="298" y="858" on="0"/>
        <pt x="251" y="922" on="0"/>
      </contour>
      <contour>
        <pt x="265" y="-20" on="1"/>
        <pt x="123" y="-20" on="0"/>
        <pt x="18" y="124" on="0"/>
        <pt x="51" y="254" on="1"/>
        <pt x="100" y="451" on="1"/>
        <pt x="120" y="532" on="0"/>
        <pt x="215" y="653" on="0"/>
        <pt x="356" y="720" on="0"/>
        <pt x="445" y="720" on="1"/>
        <pt x="522" y="720" on="0"/>
        <pt x="611" y="678" on="0"/>
        <pt x="630" y="653" on="1"/>
        <pt x="635" y="647" on="0"/>
        <pt x="631" y="634" on="1"/>
        <pt x="589" y="465" on="1"/>
        <pt x="475" y="465" on="1"/>
        <pt x="471" y="465" on="0"/>
        <pt x="468" y="468" on="1"/>
        <pt x="466" y="472" on="0"/>
        <pt x="467" y="476" on="1"/>
        <pt x="492" y="577" on="1"/>
        <pt x="477" y="585" on="0"/>
        <pt x="437" y="593" on="0"/>
        <pt x="411" y="593" on="1"/>
        <pt x="347" y="593" on="0"/>
        <pt x="260" y="525" on="0"/>
        <pt x="241" y="449" on="1"/>
        <pt x="197" y="273" on="1"/>
        <pt x="175" y="187" on="0"/>
        <pt x="227" y="112" on="0"/>
        <pt x="298" y="112" on="1"/>
        <pt x="357" y="112" on="0"/>
        <pt x="454" y="137" on="0"/>
        <pt x="500" y="162" on="1"/>
        <pt x="519" y="162" on="1"/>
        <pt x="512" y="132" on="0"/>
        <pt x="497" y="71" on="0"/>
        <pt x="489" y="40" on="1"/>
        <pt x="488" y="36" on="0"/>
        <pt x="484" y="32" on="1"/>
        <pt x="457" y="11" on="0"/>
        <pt x="336" y="-20" on="0"/>
      </contour>
    </TTGlyph>
    <TTGlyph name="Ccedilla" xMin="22" yMin="-245" xMax="635" yMax="720">
      <contour>
        <pt x="342" y="-113" on="1"/>
        <pt x="329" y="-168" on="0"/>
        <pt x="234" y="-245" on="0"/>
        <pt x="157" y="-245" on="1"/>
        <pt x="107" y="-245" on="0"/>
        <pt x="74" y="-222" on="0"/>
        <pt x="75" y="-215" on="1"/>
        <pt x="81" y="-192" on="0"/>
        <pt x="96" y="-131" on="0"/>
        <pt x="100" y="-114" on="1"/>
        <pt x="112" y="-114" on="1"/>
        <pt x="124" y="-122" on="0"/>
        <pt x="150" y="-130" on="0"/>
        <pt x="171" y="-130" on="1"/>
        <pt x="199" y="-130" on="0"/>
        <pt x="236" y="-106" on="0"/>
        <pt x="241" y="-87" on="1"/>
        <pt x="246" y="-66" on="0"/>
        <pt x="227" y="-47" on="0"/>
        <pt x="196" y="-47" on="1"/>
        <pt x="191" y="-47" on="0"/>
        <pt x="188" y="-39" on="0"/>
        <pt x="192" y="-32" on="1"/>
        <pt x="198" y="-24" on="0"/>
        <pt x="203" y="-16" on="1"/>
        <pt x="96" y="0" on="0"/>
        <pt x="22" y="140" on="0"/>
        <pt x="51" y="254" on="1"/>
        <pt x="100" y="451" on="1"/>
        <pt x="120" y="532" on="0"/>
        <pt x="215" y="653" on="0"/>
        <pt x="356" y="720" on="0"/>
        <pt x="445" y="720" on="1"/>
        <pt x="522" y="720" on="0"/>
        <pt x="611" y="678" on="0"/>
        <pt x="630" y="653" on="1"/>
        <pt x="635" y="647" on="0"/>
        <pt x="631" y="634" on="1"/>
        <pt x="589" y="465" on="1"/>
        <pt x="475" y="465" on="1"/>
        <pt x="471" y="465" on="0"/>
        <pt x="468" y="468" on="1"/>
        <pt x="466" y="472" on="0"/>
        <pt x="467" y="476" on="1"/>
        <pt x="492" y="577" on="1"/>
        <pt x="477" y="585" on="0"/>
        <pt x="437" y="593" on="0"/>
        <pt x="411" y="593" on="1"/>
        <pt x="347" y="593" on="0"/>
        <pt x="260" y="525" on="0"/>
        <pt x="241" y="449" on="1"/>
        <pt x="197" y="273" on="1"/>
        <pt x="175" y="187" on="0"/>
        <pt x="227" y="112" on="0"/>
        <pt x="298" y="112" on="1"/>
        <pt x="357" y="112" on="0"/>
        <pt x="454" y="137" on="0"/>
        <pt x="500" y="162" on="1"/>
        <pt x="519" y="162" on="1"/>
        <pt x="512" y="132" on="0"/>
        <pt x="497" y="71" on="0"/>
        <pt x="489" y="40" on="1"/>
        <pt x="488" y="35" on="0"/>
        <pt x="484" y="32" on="1"/>
        <pt x="461" y="14" on="0"/>
        <pt x="366" y="-14" on="0"/>
        <pt x="307" y="-18" on="1"/>
        <pt x="358" y="-46" on="0"/>
      </contour>
    </TTGlyph>
    <TTGlyph name="Ccircumflex" xMin="18" yMin="-20" xMax="676" yMax="946">
      <contour>
        <pt x="326" y="775" on="1"/>
        <pt x="213" y="775" on="1"/>
        <pt x="202" y="775" on="0"/>
        <pt x="204" y="783" on="1"/>
        <pt x="205" y="787" on="0"/>
        <pt x="214" y="795" on="0"/>
        <pt x="230" y="808" on="1"/>
        <pt x="244" y="819" on="0"/>
        <pt x="291" y="857" on="0"/>
        <pt x="344" y="899" on="0"/>
        <pt x="390" y="936" on="0"/>
        <pt x="403" y="946" on="1"/>
        <pt x="537" y="946" on="1"/>
        <pt x="545" y="946" on="0"/>
        <pt x="553" y="939" on="0"/>
        <pt x="563" y="927" on="1"/>
        <pt x="571" y="918" on="0"/>
        <pt x="611" y="864" on="0"/>
        <pt x="658" y="800" on="0"/>
        <pt x="676" y="775" on="1"/>
        <pt x="558" y="775" on="1"/>
        <pt x="547" y="775" on="0"/>
        <pt x="537" y="779" on="0"/>
        <pt x="531" y="785" on="1"/>
        <pt x="522" y="795" on="0"/>
        <pt x="482" y="837" on="0"/>
        <pt x="456" y="864" on="1"/>
        <pt x="419" y="839" on="0"/>
        <pt x="356" y="796" on="0"/>
      </contour>
      <contour>
        <pt x="265" y="-20" on="1"/>
        <pt x="123" y="-20" on="0"/>
        <pt x="18" y="124" on="0"/>
        <pt x="51" y="254" on="1"/>
        <pt x="100" y="451" on="1"/>
        <pt x="120" y="532" on="0"/>
        <pt x="215" y="653" on="0"/>
        <pt x="356" y="720" on="0"/>
        <pt x="445" y="720" on="1"/>
        <pt x="522" y="720" on="0"/>
        <pt x="611" y="678" on="0"/>
        <pt x="630" y="653" on="1"/>
        <pt x="635" y="647" on="0"/>
        <pt x="631" y="634" on="1"/>
        <pt x="589" y="465" on="1"/>
        <pt x="475" y="465" on="1"/>
        <pt x="471" y="465" on="0"/>
        <pt x="468" y="468" on="1"/>
        <pt x="466" y="472" on="0"/>
        <pt x="467" y="476" on="1"/>
        <pt x="492" y="577" on="1"/>
        <pt x="477" y="585" on="0"/>
        <pt x="437" y="593" on="0"/>
        <pt x="411" y="593" on="1"/>
        <pt x="347" y="593" on="0"/>
        <pt x="260" y="525" on="0"/>
        <pt x="241" y="449" on="1"/>
        <pt x="197" y="273" on="1"/>
        <pt x="175" y="187" on="0"/>
        <pt x="227" y="112" on="0"/>
        <pt x="298" y="112" on="1"/>
        <pt x="357" y="112" on="0"/>
        <pt x="454" y="137" on="0"/>
        <pt x="500" y="162" on="1"/>
        <pt x="519" y="162" on="1"/>
        <pt x="512" y="132" on="0"/>
        <pt x="497" y="71" on="0"/>
        <pt x="489" y="40" on="1"/>
        <pt x="488" y="36" on="0"/>
        <pt x="484" y="32" on="1"/>
        <pt x="457" y="11" on="0"/>
        <pt x="336" y="-20" on="0"/>
      </contour>
    </TTGlyph>
    <TTGlyph name="Cdotaccent" xMin="18" yMin="-20" xMax="635" yMax="929">
      <contour>
        <pt x="518" y="791" on="1"/>
        <pt x="366" y="791" on="1"/>
        <pt x="354" y="791" on="0"/>
        <pt x="358" y="802" on="1"/>
        <pt x="390" y="929" on="1"/>
        <pt x="541" y="929" on="1"/>
        <pt x="552" y="929" on="0"/>
        <pt x="550" y="918" on="1"/>
      </contour>
      <contour>
        <pt x="265" y="-20" on="1"/>
        <pt x="123" y="-20" on="0"/>
        <pt x="18" y="124" on="0"/>
        <pt x="51" y="254" on="1"/>
        <pt x="100" y="451" on="1"/>
        <pt x="120" y="532" on="0"/>
        <pt x="215" y="653" on="0"/>
        <pt x="356" y="720" on="0"/>
        <pt x="445" y="720" on="1"/>
        <pt x="522" y="720" on="0"/>
        <pt x="611" y="678" on="0"/>
        <pt x="630" y="653" on="1"/>
        <pt x="635" y="647" on="0"/>
        <pt x="631" y="634" on="1"/>
        <pt x="589" y="465" on="1"/>
        <pt x="475" y="465" on="1"/>
        <pt x="471" y="465" on="0"/>
        <pt x="468" y="468" on="1"/>
        <pt x="466" y="472" on="0"/>
        <pt x="467" y="476" on="1"/>
        <pt x="492" y="577" on="1"/>
        <pt x="477" y="585" on="0"/>
        <pt x="437" y="593" on="0"/>
        <pt x="411" y="593" on="1"/>
        <pt x="347" y="593" on="0"/>
        <pt x="260" y="525" on="0"/>
        <pt x="241" y="449" on="1"/>
        <pt x="197" y="273" on="1"/>
        <pt x="175" y="187" on="0"/>
        <pt x="227" y="112" on="0"/>
        <pt x="298" y="112" on="1"/>
        <pt x="357" y="112" on="0"/>
        <pt x="454" y="137" on="0"/>
        <pt x="500" y="162" on="1"/>
        <pt x="519" y="162" on="1"/>
        <pt x="512" y="132" on="0"/>
        <pt x="497" y="71" on="0"/>
        <pt x="489" y="40" on="1"/>
        <pt x="488" y="36" on="0"/>
        <pt x="484" y="32" on="1"/>
        <pt x="457" y="11" on="0"/>
        <pt x="336" y="-20" on="0"/>
      </contour>
    </TTGlyph>
    <TTGlyph name="D" xMin="13" yMin="0" xMax="615" yMax="700">
      <contour>
        <pt x="528" y="226" on="1"/>
        <pt x="500" y="114" on="0"/>
        <pt x="346" y="0" on="0"/>
        <pt x="231" y="0" on="1"/>
        <pt x="23" y="0" on="1"/>
        <pt x="19" y="0" on="0"/>
        <pt x="13" y="6" on="0"/>
        <pt x="15" y="10" on="1"/>
        <pt x="15" y="10" on="0"/>
        <pt x="15" y="11" on="1"/>
        <pt x="17" y="18" on="0"/>
        <pt x="18" y="24" on="1"/>
        <pt x="157" y="579" on="1"/>
        <pt x="127" y="579" on="1"/>
        <pt x="122" y="579" on="0"/>
        <pt x="120" y="582" on="1"/>
        <pt x="117" y="585" on="0"/>
        <pt x="119" y="590" on="1"/>
        <pt x="126" y="619" on="0"/>
        <pt x="139" y="671" on="0"/>
        <pt x="146" y="700" on="1"/>
        <pt x="394" y="700" on="1"/>
        <pt x="509" y="700" on="0"/>
        <pt x="615" y="568" on="0"/>
        <pt x="583" y="440" on="1"/>
      </contour>
      <contour>
        <pt x="368" y="579" on="1"/>
        <pt x="294" y="579" on="1"/>
        <pt x="179" y="121" on="1"/>
        <pt x="253" y="121" on="1"/>
        <pt x="305" y="121" on="0"/>
        <pt x="380" y="178" on="0"/>
        <pt x="392" y="228" on="1"/>
        <pt x="445" y="440" on="1"/>
        <pt x="465" y="517" on="0"/>
        <pt x="429" y="579" on="0"/>
      </contour>
    </TTGlyph>
    <TTGlyph name="Dcaron" xMin="13" yMin="0" xMax="689" yMax="946">
      <contour>
        <pt x="216" y="946" on="1"/>
        <pt x="333" y="946" on="1"/>
        <pt x="344" y="946" on="0"/>
        <pt x="355" y="942" on="0"/>
        <pt x="360" y="936" on="1"/>
        <pt x="369" y="927" on="0"/>
        <pt x="410" y="884" on="0"/>
        <pt x="436" y="857" on="1"/>
        <pt x="506" y="906" on="0"/>
        <pt x="566" y="946" on="1"/>
        <pt x="678" y="946" on="1"/>
        <pt x="689" y="946" on="0"/>
        <pt x="687" y="939" on="1"/>
        <pt x="686" y="935" on="0"/>
        <pt x="678" y="927" on="0"/>
        <pt x="662" y="914" on="1"/>
        <pt x="648" y="903" on="0"/>
        <pt x="601" y="865" on="0"/>
        <pt x="547" y="822" on="0"/>
        <pt x="501" y="785" on="0"/>
        <pt x="488" y="775" on="1"/>
        <pt x="355" y="775" on="1"/>
        <pt x="348" y="775" on="0"/>
        <pt x="338" y="782" on="0"/>
        <pt x="328" y="795" on="1"/>
        <pt x="321" y="805" on="0"/>
        <pt x="281" y="858" on="0"/>
        <pt x="234" y="922" on="0"/>
      </contour>
      <contour>
        <pt x="532" y="242" on="1"/>
        <pt x="504" y="128" on="0"/>
        <pt x="344" y="0" on="0"/>
        <pt x="232" y="0" on="1"/>
        <pt x="23" y="0" on="1"/>
        <pt x="19" y="0" on="0"/>
        <pt x="13" y="6" on="0"/>
        <pt x="15" y="10" on="1"/>
        <pt x="15" y="10" on="0"/>
        <pt x="15" y="11" on="1"/>
        <pt x="16" y="15" on="0"/>
        <pt x="17" y="17" on="1"/>
        <pt x="156" y="574" on="1"/>
        <pt x="126" y="574" on="1"/>
        <pt x="121" y="574" on="0"/>
        <pt x="118" y="577" on="1"/>
        <pt x="117" y="579" on="0"/>
        <pt x="117" y="585" on="1"/>
        <pt x="125" y="616" on="0"/>
        <pt x="139" y="670" on="0"/>
        <pt x="146" y="700" on="1"/>
        <pt x="394" y="700" on="1"/>
        <pt x="525" y="700" on="0"/>
        <pt x="615" y="573" on="0"/>
        <pt x="585" y="451" on="1"/>
      </contour>
      <contour>
        <pt x="368" y="574" on="1"/>
        <pt x="293" y="574" on="1"/>
        <pt x="181" y="126" on="1"/>
        <pt x="255" y="126" on="1"/>
        <pt x="307" y="126" on="0"/>
        <pt x="382" y="190" on="0"/>
        <pt x="395" y="242" on="1"/>
        <pt x="446" y="446" on="1"/>
        <pt x="464" y="517" on="0"/>
        <pt x="429" y="574" on="0"/>
      </contour>
    </TTGlyph>
    <TTGlyph name="Dcroat" xMin="13" yMin="0" xMax="615" yMax="700">
      <contour>
        <pt x="47" y="405" on="1"/>
        <pt x="114" y="405" on="1"/>
        <pt x="156" y="574" on="1"/>
        <pt x="126" y="574" on="1"/>
        <pt x="121" y="574" on="0"/>
        <pt x="118" y="577" on="1"/>
        <pt x="117" y="579" on="0"/>
        <pt x="117" y="585" on="1"/>
        <pt x="125" y="616" on="0"/>
        <pt x="139" y="670" on="0"/>
        <pt x="146" y="700" on="1"/>
        <pt x="394" y="700" on="1"/>
        <pt x="525" y="700" on="0"/>
        <pt x="615" y="573" on="0"/>
        <pt x="585" y="451" on="1"/>
        <pt x="532" y="242" on="1"/>
        <pt x="504" y="128" on="0"/>
        <pt x="344" y="0" on="0"/>
        <pt x="232" y="0" on="1"/>
        <pt x="23" y="0" on="1"/>
        <pt x="19" y="0" on="0"/>
        <pt x="13" y="6" on="0"/>
        <pt x="15" y="10" on="1"/>
        <pt x="15" y="10" on="0"/>
        <pt x="15" y="11" on="1"/>
        <pt x="16" y="15" on="0"/>
        <pt x="17" y="17" on="1"/>
        <pt x="89" y="306" on="1"/>
        <pt x="33" y="306" on="1"/>
        <pt x="22" y="306" on="0"/>
        <pt x="25" y="317" on="1"/>
        <pt x="35" y="361" on="0"/>
      </contour>
      <contour>
        <pt x="339" y="306" on="1"/>
        <pt x="226" y="306" on="1"/>
        <pt x="181" y="126" on="1"/>
        <pt x="255" y="126" on="1"/>
        <pt x="307" y="126" on="0"/>
        <pt x="382" y="190" on="0"/>
        <pt x="395" y="242" on="1"/>
        <pt x="446" y="446" on="1"/>
        <pt x="464" y="517" on="0"/>
        <pt x="429" y="574" on="0"/>
        <pt x="368" y="574" on="1"/>
        <pt x="293" y="574" on="1"/>
        <pt x="250" y="405" on="1"/>
        <pt x="352" y="405" on="1"/>
        <pt x="363" y="405" on="0"/>
        <pt x="361" y="394" on="1"/>
        <pt x="349" y="350" on="0"/>
      </contour>
    </TTGlyph>
    <TTGlyph name="E" xMin="11" yMin="0" xMax="645" yMax="700">
      <contour>
        <pt x="42" y="121" on="1"/>
        <pt x="157" y="579" on="1"/>
        <pt x="118" y="579" on="1"/>
        <pt x="113" y="579" on="0"/>
        <pt x="111" y="582" on="1"/>
        <pt x="108" y="585" on="0"/>
        <pt x="110" y="590" on="1"/>
        <pt x="118" y="619" on="0"/>
        <pt x="130" y="671" on="0"/>
        <pt x="137" y="700" on="1"/>
        <pt x="635" y="700" on="1"/>
        <pt x="639" y="700" on="0"/>
        <pt x="642" y="697" on="1"/>
        <pt x="645" y="694" on="0"/>
        <pt x="643" y="689" on="1"/>
        <pt x="636" y="660" on="0"/>
        <pt x="623" y="608" on="0"/>
        <pt x="616" y="579" on="1"/>
        <pt x="297" y="579" on="1"/>
        <pt x="256" y="413" on="1"/>
        <pt x="505" y="413" on="1"/>
        <pt x="511" y="413" on="0"/>
        <pt x="512" y="410" on="1"/>
        <pt x="515" y="407" on="0"/>
        <pt x="513" y="402" on="1"/>
        <pt x="506" y="373" on="0"/>
        <pt x="492" y="321" on="0"/>
        <pt x="486" y="296" on="1"/>
        <pt x="227" y="296" on="1"/>
        <pt x="183" y="121" on="1"/>
        <pt x="490" y="121" on="1"/>
        <pt x="501" y="121" on="0"/>
        <pt x="499" y="110" on="1"/>
        <pt x="491" y="81" on="0"/>
        <pt x="478" y="29" on="0"/>
        <pt x="471" y="0" on="1"/>
        <pt x="23" y="0" on="1"/>
        <pt x="11" y="0" on="0"/>
        <pt x="15" y="11" on="1"/>
      </contour>
    </TTGlyph>
    <TTGlyph name="Eacute" xMin="11" yMin="0" xMax="679" yMax="955">
      <contour>
        <pt x="474" y="775" on="1"/>
        <pt x="368" y="775" on="1"/>
        <pt x="406" y="821" on="0"/>
        <pt x="481" y="909" on="0"/>
        <pt x="519" y="955" on="1"/>
        <pt x="672" y="955" on="1"/>
        <pt x="678" y="955" on="0"/>
        <pt x="679" y="945" on="0"/>
        <pt x="674" y="940" on="1"/>
        <pt x="642" y="912" on="0"/>
        <pt x="593" y="869" on="0"/>
        <pt x="536" y="819" on="0"/>
        <pt x="492" y="781" on="1"/>
        <pt x="489" y="779" on="0"/>
        <pt x="480" y="775" on="0"/>
      </contour>
      <contour>
        <pt x="44" y="126" on="1"/>
        <pt x="155" y="574" on="1"/>
        <pt x="117" y="574" on="1"/>
        <pt x="113" y="574" on="0"/>
        <pt x="110" y="577" on="1"/>
        <pt x="108" y="581" on="0"/>
        <pt x="109" y="585" on="1"/>
        <pt x="117" y="616" on="0"/>
        <pt x="131" y="670" on="0"/>
        <pt x="138" y="700" on="1"/>
        <pt x="635" y="700" on="1"/>
        <pt x="641" y="700" on="0"/>
        <pt x="642" y="697" on="1"/>
        <pt x="645" y="694" on="0"/>
        <pt x="643" y="689" on="1"/>
        <pt x="636" y="659" on="0"/>
        <pt x="623" y="605" on="0"/>
        <pt x="615" y="574" on="1"/>
        <pt x="297" y="574" on="1"/>
        <pt x="257" y="413" on="1"/>
        <pt x="505" y="413" on="1"/>
        <pt x="511" y="413" on="0"/>
        <pt x="512" y="410" on="1"/>
        <pt x="515" y="407" on="0"/>
        <pt x="513" y="402" on="1"/>
        <pt x="506" y="371" on="0"/>
        <pt x="492" y="317" on="0"/>
        <pt x="486" y="291" on="1"/>
        <pt x="226" y="291" on="1"/>
        <pt x="185" y="126" on="1"/>
        <pt x="491" y="126" on="1"/>
        <pt x="502" y="126" on="0"/>
        <pt x="500" y="115" on="1"/>
        <pt x="493" y="84" on="0"/>
        <pt x="479" y="30" on="0"/>
        <pt x="471" y="0" on="1"/>
        <pt x="23" y="0" on="1"/>
        <pt x="11" y="0" on="0"/>
        <pt x="15" y="11" on="1"/>
      </contour>
    </TTGlyph>
    <TTGlyph name="Ebreve" xMin="11" yMin="0" xMax="660" yMax="947">
      <contour>
        <pt x="376" y="947" on="1"/>
        <pt x="381" y="914" on="0"/>
        <pt x="419" y="888" on="0"/>
        <pt x="455" y="888" on="1"/>
        <pt x="491" y="888" on="0"/>
        <pt x="541" y="914" on="0"/>
        <pt x="563" y="947" on="1"/>
        <pt x="646" y="947" on="1"/>
        <pt x="656" y="947" on="0"/>
        <pt x="660" y="939" on="0"/>
        <pt x="655" y="927" on="1"/>
        <pt x="640" y="890" on="0"/>
        <pt x="577" y="824" on="0"/>
        <pt x="496" y="783" on="0"/>
        <pt x="452" y="783" on="1"/>
        <pt x="405" y="783" on="1"/>
        <pt x="361" y="783" on="0"/>
        <pt x="300" y="824" on="0"/>
        <pt x="272" y="890" on="0"/>
        <pt x="275" y="927" on="1"/>
        <pt x="276" y="939" on="0"/>
        <pt x="283" y="947" on="0"/>
        <pt x="293" y="947" on="1"/>
      </contour>
      <contour>
        <pt x="44" y="126" on="1"/>
        <pt x="155" y="574" on="1"/>
        <pt x="117" y="574" on="1"/>
        <pt x="113" y="574" on="0"/>
        <pt x="110" y="577" on="1"/>
        <pt x="108" y="581" on="0"/>
        <pt x="109" y="585" on="1"/>
        <pt x="117" y="616" on="0"/>
        <pt x="131" y="670" on="0"/>
        <pt x="138" y="700" on="1"/>
        <pt x="635" y="700" on="1"/>
        <pt x="641" y="700" on="0"/>
        <pt x="642" y="697" on="1"/>
        <pt x="645" y="694" on="0"/>
        <pt x="643" y="689" on="1"/>
        <pt x="636" y="659" on="0"/>
        <pt x="623" y="605" on="0"/>
        <pt x="615" y="574" on="1"/>
        <pt x="297" y="574" on="1"/>
        <pt x="257" y="413" on="1"/>
        <pt x="505" y="413" on="1"/>
        <pt x="511" y="413" on="0"/>
        <pt x="512" y="410" on="1"/>
        <pt x="515" y="407" on="0"/>
        <pt x="513" y="402" on="1"/>
        <pt x="506" y="371" on="0"/>
        <pt x="492" y="317" on="0"/>
        <pt x="486" y="291" on="1"/>
        <pt x="226" y="291" on="1"/>
        <pt x="185" y="126" on="1"/>
        <pt x="491" y="126" on="1"/>
        <pt x="502" y="126" on="0"/>
        <pt x="500" y="115" on="1"/>
        <pt x="493" y="84" on="0"/>
        <pt x="479" y="30" on="0"/>
        <pt x="471" y="0" on="1"/>
        <pt x="23" y="0" on="1"/>
        <pt x="11" y="0" on="0"/>
        <pt x="15" y="11" on="1"/>
      </contour>
    </TTGlyph>
    <TTGlyph name="Ecaron" xMin="11" yMin="0" xMax="701" yMax="946">
      <contour>
        <pt x="227" y="946" on="1"/>
        <pt x="345" y="946" on="1"/>
        <pt x="356" y="946" on="0"/>
        <pt x="366" y="942" on="0"/>
        <pt x="371" y="936" on="1"/>
        <pt x="381" y="926" on="0"/>
        <pt x="421" y="884" on="0"/>
        <pt x="447" y="857" on="1"/>
        <pt x="484" y="882" on="0"/>
        <pt x="547" y="926" on="0"/>
        <pt x="577" y="946" on="1"/>
        <pt x="689" y="946" on="1"/>
        <pt x="701" y="946" on="0"/>
        <pt x="699" y="939" on="1"/>
        <pt x="698" y="935" on="0"/>
        <pt x="690" y="927" on="0"/>
        <pt x="673" y="914" on="1"/>
        <pt x="659" y="903" on="0"/>
        <pt x="612" y="865" on="0"/>
        <pt x="558" y="822" on="0"/>
        <pt x="512" y="785" on="0"/>
        <pt x="500" y="775" on="1"/>
        <pt x="366" y="775" on="1"/>
        <pt x="359" y="775" on="0"/>
        <pt x="350" y="782" on="0"/>
        <pt x="340" y="795" on="1"/>
        <pt x="333" y="805" on="0"/>
        <pt x="292" y="858" on="0"/>
        <pt x="245" y="922" on="0"/>
      </contour>
      <contour>
        <pt x="44" y="126" on="1"/>
        <pt x="155" y="574" on="1"/>
        <pt x="117" y="574" on="1"/>
        <pt x="113" y="574" on="0"/>
        <pt x="110" y="577" on="1"/>
        <pt x="108" y="581" on="0"/>
        <pt x="109" y="585" on="1"/>
        <pt x="117" y="616" on="0"/>
        <pt x="131" y="670" on="0"/>
        <pt x="138" y="700" on="1"/>
        <pt x="635" y="700" on="1"/>
        <pt x="641" y="700" on="0"/>
        <pt x="642" y="697" on="1"/>
        <pt x="645" y="694" on="0"/>
        <pt x="643" y="689" on="1"/>
        <pt x="636" y="659" on="0"/>
        <pt x="623" y="605" on="0"/>
        <pt x="615" y="574" on="1"/>
        <pt x="297" y="574" on="1"/>
        <pt x="257" y="413" on="1"/>
        <pt x="505" y="413" on="1"/>
        <pt x="511" y="413" on="0"/>
        <pt x="512" y="410" on="1"/>
        <pt x="515" y="407" on="0"/>
        <pt x="513" y="402" on="1"/>
        <pt x="506" y="371" on="0"/>
        <pt x="492" y="317" on="0"/>
        <pt x="486" y="291" on="1"/>
        <pt x="226" y="291" on="1"/>
        <pt x="185" y="126" on="1"/>
        <pt x="491" y="126" on="1"/>
        <pt x="502" y="126" on="0"/>
        <pt x="500" y="115" on="1"/>
        <pt x="493" y="84" on="0"/>
        <pt x="479" y="30" on="0"/>
        <pt x="471" y="0" on="1"/>
        <pt x="23" y="0" on="1"/>
        <pt x="11" y="0" on="0"/>
        <pt x="15" y="11" on="1"/>
      </contour>
    </TTGlyph>
    <TTGlyph name="Ecircumflex" xMin="11" yMin="0" xMax="670" yMax="946">
      <contour>
        <pt x="320" y="775" on="1"/>
        <pt x="207" y="775" on="1"/>
        <pt x="196" y="775" on="0"/>
        <pt x="198" y="783" on="1"/>
        <pt x="199" y="787" on="0"/>
        <pt x="208" y="795" on="0"/>
        <pt x="224" y="808" on="1"/>
        <pt x="238" y="819" on="0"/>
        <pt x="285" y="857" on="0"/>
        <pt x="338" y="899" on="0"/>
        <pt x="384" y="936" on="0"/>
        <pt x="397" y="946" on="1"/>
        <pt x="531" y="946" on="1"/>
        <pt x="539" y="946" on="0"/>
        <pt x="547" y="939" on="0"/>
        <pt x="557" y="927" on="1"/>
        <pt x="565" y="918" on="0"/>
        <pt x="605" y="864" on="0"/>
        <pt x="652" y="800" on="0"/>
        <pt x="670" y="775" on="1"/>
        <pt x="552" y="775" on="1"/>
        <pt x="541" y="775" on="0"/>
        <pt x="531" y="779" on="0"/>
        <pt x="525" y="785" on="1"/>
        <pt x="516" y="795" on="0"/>
        <pt x="476" y="837" on="0"/>
        <pt x="450" y="864" on="1"/>
        <pt x="413" y="839" on="0"/>
        <pt x="350" y="796" on="0"/>
      </contour>
      <contour>
        <pt x="44" y="126" on="1"/>
        <pt x="155" y="574" on="1"/>
        <pt x="117" y="574" on="1"/>
        <pt x="113" y="574" on="0"/>
        <pt x="110" y="577" on="1"/>
        <pt x="108" y="581" on="0"/>
        <pt x="109" y="585" on="1"/>
        <pt x="117" y="616" on="0"/>
        <pt x="131" y="670" on="0"/>
        <pt x="138" y="700" on="1"/>
        <pt x="635" y="700" on="1"/>
        <pt x="641" y="700" on="0"/>
        <pt x="642" y="697" on="1"/>
        <pt x="645" y="694" on="0"/>
        <pt x="643" y="689" on="1"/>
        <pt x="636" y="659" on="0"/>
        <pt x="623" y="605" on="0"/>
        <pt x="615" y="574" on="1"/>
        <pt x="297" y="574" on="1"/>
        <pt x="257" y="413" on="1"/>
        <pt x="505" y="413" on="1"/>
        <pt x="511" y="413" on="0"/>
        <pt x="512" y="410" on="1"/>
        <pt x="515" y="407" on="0"/>
        <pt x="513" y="402" on="1"/>
        <pt x="506" y="371" on="0"/>
        <pt x="492" y="317" on="0"/>
        <pt x="486" y="291" on="1"/>
        <pt x="226" y="291" on="1"/>
        <pt x="185" y="126" on="1"/>
        <pt x="491" y="126" on="1"/>
        <pt x="502" y="126" on="0"/>
        <pt x="500" y="115" on="1"/>
        <pt x="493" y="84" on="0"/>
        <pt x="479" y="30" on="0"/>
        <pt x="471" y="0" on="1"/>
        <pt x="23" y="0" on="1"/>
        <pt x="11" y="0" on="0"/>
        <pt x="15" y="11" on="1"/>
      </contour>
    </TTGlyph>
    <TTGlyph name="Edieresis" xMin="11" yMin="0" xMax="645" yMax="927">
      <contour>
        <pt x="394" y="791" on="1"/>
        <pt x="262" y="791" on="1"/>
        <pt x="250" y="791" on="0"/>
        <pt x="254" y="802" on="1"/>
        <pt x="285" y="927" on="1"/>
        <pt x="417" y="927" on="1"/>
        <pt x="429" y="927" on="0"/>
        <pt x="425" y="916" on="1"/>
      </contour>
      <contour>
        <pt x="610" y="791" on="1"/>
        <pt x="479" y="791" on="1"/>
        <pt x="468" y="791" on="0"/>
        <pt x="470" y="802" on="1"/>
        <pt x="501" y="927" on="1"/>
        <pt x="633" y="927" on="1"/>
        <pt x="644" y="927" on="0"/>
        <pt x="642" y="916" on="1"/>
      </contour>
      <contour>
        <pt x="44" y="126" on="1"/>
        <pt x="155" y="574" on="1"/>
        <pt x="117" y="574" on="1"/>
        <pt x="113" y="574" on="0"/>
        <pt x="110" y="577" on="1"/>
        <pt x="108" y="581" on="0"/>
        <pt x="109" y="585" on="1"/>
        <pt x="117" y="616" on="0"/>
        <pt x="131" y="670" on="0"/>
        <pt x="138" y="700" on="1"/>
        <pt x="635" y="700" on="1"/>
        <pt x="641" y="700" on="0"/>
        <pt x="642" y="697" on="1"/>
        <pt x="645" y="694" on="0"/>
        <pt x="643" y="689" on="1"/>
        <pt x="636" y="659" on="0"/>
        <pt x="623" y="605" on="0"/>
        <pt x="615" y="574" on="1"/>
        <pt x="297" y="574" on="1"/>
        <pt x="257" y="413" on="1"/>
        <pt x="505" y="413" on="1"/>
        <pt x="511" y="413" on="0"/>
        <pt x="512" y="410" on="1"/>
        <pt x="515" y="407" on="0"/>
        <pt x="513" y="402" on="1"/>
        <pt x="506" y="371" on="0"/>
        <pt x="492" y="317" on="0"/>
        <pt x="486" y="291" on="1"/>
        <pt x="226" y="291" on="1"/>
        <pt x="185" y="126" on="1"/>
        <pt x="491" y="126" on="1"/>
        <pt x="502" y="126" on="0"/>
        <pt x="500" y="115" on="1"/>
        <pt x="493" y="84" on="0"/>
        <pt x="479" y="30" on="0"/>
        <pt x="471" y="0" on="1"/>
        <pt x="23" y="0" on="1"/>
        <pt x="11" y="0" on="0"/>
        <pt x="15" y="11" on="1"/>
      </contour>
    </TTGlyph>
    <TTGlyph name="Edotaccent" xMin="11" yMin="0" xMax="645" yMax="929">
      <contour>
        <pt x="512" y="791" on="1"/>
        <pt x="360" y="791" on="1"/>
        <pt x="348" y="791" on="0"/>
        <pt x="352" y="802" on="1"/>
        <pt x="384" y="929" on="1"/>
        <pt x="535" y="929" on="1"/>
        <pt x="546" y="929" on="0"/>
        <pt x="544" y="918" on="1"/>
      </contour>
      <contour>
        <pt x="44" y="126" on="1"/>
        <pt x="155" y="574" on="1"/>
        <pt x="117" y="574" on="1"/>
        <pt x="113" y="574" on="0"/>
        <pt x="110" y="577" on="1"/>
        <pt x="108" y="581" on="0"/>
        <pt x="109" y="585" on="1"/>
        <pt x="117" y="616" on="0"/>
        <pt x="131" y="670" on="0"/>
        <pt x="138" y="700" on="1"/>
        <pt x="635" y="700" on="1"/>
        <pt x="641" y="700" on="0"/>
        <pt x="642" y="697" on="1"/>
        <pt x="645" y="694" on="0"/>
        <pt x="643" y="689" on="1"/>
        <pt x="636" y="659" on="0"/>
        <pt x="623" y="605" on="0"/>
        <pt x="615" y="574" on="1"/>
        <pt x="297" y="574" on="1"/>
        <pt x="257" y="413" on="1"/>
        <pt x="505" y="413" on="1"/>
        <pt x="511" y="413" on="0"/>
        <pt x="512" y="410" on="1"/>
        <pt x="515" y="407" on="0"/>
        <pt x="513" y="402" on="1"/>
        <pt x="506" y="371" on="0"/>
        <pt x="492" y="317" on="0"/>
        <pt x="486" y="291" on="1"/>
        <pt x="226" y="291" on="1"/>
        <pt x="185" y="126" on="1"/>
        <pt x="491" y="126" on="1"/>
        <pt x="502" y="126" on="0"/>
        <pt x="500" y="115" on="1"/>
        <pt x="493" y="84" on="0"/>
        <pt x="479" y="30" on="0"/>
        <pt x="471" y="0" on="1"/>
        <pt x="23" y="0" on="1"/>
        <pt x="11" y="0" on="0"/>
        <pt x="15" y="11" on="1"/>
      </contour>
    </TTGlyph>
    <TTGlyph name="Edotbelow" xMin="11" yMin="-239" xMax="645" yMax="700">
      <contour>
        <pt x="44" y="126" on="1"/>
        <pt x="155" y="574" on="1"/>
        <pt x="117" y="574" on="1"/>
        <pt x="113" y="574" on="0"/>
        <pt x="110" y="577" on="1"/>
        <pt x="108" y="581" on="0"/>
        <pt x="109" y="585" on="1"/>
        <pt x="117" y="616" on="0"/>
        <pt x="131" y="670" on="0"/>
        <pt x="138" y="700" on="1"/>
        <pt x="635" y="700" on="1"/>
        <pt x="641" y="700" on="0"/>
        <pt x="642" y="697" on="1"/>
        <pt x="645" y="694" on="0"/>
        <pt x="643" y="689" on="1"/>
        <pt x="636" y="659" on="0"/>
        <pt x="623" y="605" on="0"/>
        <pt x="615" y="574" on="1"/>
        <pt x="297" y="574" on="1"/>
        <pt x="257" y="413" on="1"/>
        <pt x="505" y="413" on="1"/>
        <pt x="511" y="413" on="0"/>
        <pt x="512" y="410" on="1"/>
        <pt x="515" y="407" on="0"/>
        <pt x="513" y="402" on="1"/>
        <pt x="506" y="371" on="0"/>
        <pt x="492" y="317" on="0"/>
        <pt x="486" y="291" on="1"/>
        <pt x="226" y="291" on="1"/>
        <pt x="185" y="126" on="1"/>
        <pt x="491" y="126" on="1"/>
        <pt x="502" y="126" on="0"/>
        <pt x="500" y="115" on="1"/>
        <pt x="493" y="84" on="0"/>
        <pt x="479" y="30" on="0"/>
        <pt x="471" y="0" on="1"/>
        <pt x="23" y="0" on="1"/>
        <pt x="11" y="0" on="0"/>
        <pt x="15" y="11" on="1"/>
      </contour>
      <contour>
        <pt x="274" y="-239" on="1"/>
        <pt x="123" y="-239" on="1"/>
        <pt x="112" y="-239" on="0"/>
        <pt x="114" y="-228" on="1"/>
        <pt x="146" y="-101" on="1"/>
        <pt x="298" y="-101" on="1"/>
        <pt x="310" y="-101" on="0"/>
        <pt x="306" y="-112" on="1"/>
      </contour>
    </TTGlyph>
    <TTGlyph name="Egrave" xMin="11" yMin="0" xMax="645" yMax="955">
      <contour>
        <pt x="485" y="775" on="1"/>
        <pt x="379" y="775" on="1"/>
        <pt x="368" y="775" on="0"/>
        <pt x="364" y="782" on="1"/>
        <pt x="339" y="820" on="0"/>
        <pt x="307" y="869" on="0"/>
        <pt x="280" y="913" on="0"/>
        <pt x="262" y="941" on="1"/>
        <pt x="259" y="946" on="0"/>
        <pt x="265" y="955" on="0"/>
        <pt x="271" y="955" on="1"/>
        <pt x="424" y="955" on="1"/>
        <pt x="439" y="909" on="0"/>
        <pt x="470" y="821" on="0"/>
      </contour>
      <contour>
        <pt x="44" y="126" on="1"/>
        <pt x="155" y="574" on="1"/>
        <pt x="117" y="574" on="1"/>
        <pt x="113" y="574" on="0"/>
        <pt x="110" y="577" on="1"/>
        <pt x="108" y="581" on="0"/>
        <pt x="109" y="585" on="1"/>
        <pt x="117" y="616" on="0"/>
        <pt x="131" y="670" on="0"/>
        <pt x="138" y="700" on="1"/>
        <pt x="635" y="700" on="1"/>
        <pt x="641" y="700" on="0"/>
        <pt x="642" y="697" on="1"/>
        <pt x="645" y="694" on="0"/>
        <pt x="643" y="689" on="1"/>
        <pt x="636" y="659" on="0"/>
        <pt x="623" y="605" on="0"/>
        <pt x="615" y="574" on="1"/>
        <pt x="297" y="574" on="1"/>
        <pt x="257" y="413" on="1"/>
        <pt x="505" y="413" on="1"/>
        <pt x="511" y="413" on="0"/>
        <pt x="512" y="410" on="1"/>
        <pt x="515" y="407" on="0"/>
        <pt x="513" y="402" on="1"/>
        <pt x="506" y="371" on="0"/>
        <pt x="492" y="317" on="0"/>
        <pt x="486" y="291" on="1"/>
        <pt x="226" y="291" on="1"/>
        <pt x="185" y="126" on="1"/>
        <pt x="491" y="126" on="1"/>
        <pt x="502" y="126" on="0"/>
        <pt x="500" y="115" on="1"/>
        <pt x="493" y="84" on="0"/>
        <pt x="479" y="30" on="0"/>
        <pt x="471" y="0" on="1"/>
        <pt x="23" y="0" on="1"/>
        <pt x="11" y="0" on="0"/>
        <pt x="15" y="11" on="1"/>
      </contour>
    </TTGlyph>
    <TTGlyph name="Emacron" xMin="11" yMin="0" xMax="645" yMax="912">
      <contour>
        <pt x="282" y="912" on="1"/>
        <pt x="629" y="912" on="1"/>
        <pt x="639" y="912" on="0"/>
        <pt x="637" y="901" on="1"/>
        <pt x="630" y="875" on="0"/>
        <pt x="619" y="827" on="0"/>
        <pt x="612" y="801" on="1"/>
        <pt x="265" y="801" on="1"/>
        <pt x="254" y="801" on="0"/>
        <pt x="257" y="812" on="1"/>
        <pt x="264" y="838" on="0"/>
        <pt x="275" y="886" on="0"/>
      </contour>
      <contour>
        <pt x="44" y="126" on="1"/>
        <pt x="155" y="574" on="1"/>
        <pt x="117" y="574" on="1"/>
        <pt x="113" y="574" on="0"/>
        <pt x="110" y="577" on="1"/>
        <pt x="108" y="581" on="0"/>
        <pt x="109" y="585" on="1"/>
        <pt x="117" y="616" on="0"/>
        <pt x="131" y="670" on="0"/>
        <pt x="138" y="700" on="1"/>
        <pt x="635" y="700" on="1"/>
        <pt x="641" y="700" on="0"/>
        <pt x="642" y="697" on="1"/>
        <pt x="645" y="694" on="0"/>
        <pt x="643" y="689" on="1"/>
        <pt x="636" y="659" on="0"/>
        <pt x="623" y="605" on="0"/>
        <pt x="615" y="574" on="1"/>
        <pt x="297" y="574" on="1"/>
        <pt x="257" y="413" on="1"/>
        <pt x="505" y="413" on="1"/>
        <pt x="511" y="413" on="0"/>
        <pt x="512" y="410" on="1"/>
        <pt x="515" y="407" on="0"/>
        <pt x="513" y="402" on="1"/>
        <pt x="506" y="371" on="0"/>
        <pt x="492" y="317" on="0"/>
        <pt x="486" y="291" on="1"/>
        <pt x="226" y="291" on="1"/>
        <pt x="185" y="126" on="1"/>
        <pt x="491" y="126" on="1"/>
        <pt x="502" y="126" on="0"/>
        <pt x="500" y="115" on="1"/>
        <pt x="493" y="84" on="0"/>
        <pt x="479" y="30" on="0"/>
        <pt x="471" y="0" on="1"/>
        <pt x="23" y="0" on="1"/>
        <pt x="11" y="0" on="0"/>
        <pt x="15" y="11" on="1"/>
      </contour>
    </TTGlyph>
    <TTGlyph name="Eng" xMin="-3" yMin="-250" xMax="645" yMax="700">
      <contour>
        <pt x="129" y="0" on="1"/>
        <pt x="8" y="0" on="1"/>
        <pt x="-3" y="0" on="0"/>
        <pt x="-1" y="11" on="1"/>
        <pt x="137" y="560" on="1"/>
        <pt x="145" y="595" on="0"/>
        <pt x="163" y="665" on="0"/>
        <pt x="172" y="700" on="1"/>
        <pt x="298" y="700" on="1"/>
        <pt x="306" y="700" on="0"/>
        <pt x="312" y="697" on="0"/>
        <pt x="313" y="690" on="1"/>
        <pt x="337" y="580" on="0"/>
        <pt x="385" y="353" on="0"/>
        <pt x="410" y="240" on="1"/>
        <pt x="417" y="282" on="0"/>
        <pt x="429" y="356" on="0"/>
        <pt x="438" y="406" on="0"/>
        <pt x="439" y="411" on="1"/>
        <pt x="511" y="700" on="1"/>
        <pt x="633" y="700" on="1"/>
        <pt x="645" y="700" on="0"/>
        <pt x="641" y="689" on="1"/>
        <pt x="469" y="0" on="1"/>
        <pt x="438" y="-122" on="0"/>
        <pt x="295" y="-250" on="0"/>
        <pt x="183" y="-250" on="1"/>
        <pt x="130" y="-250" on="0"/>
        <pt x="51" y="-229" on="0"/>
        <pt x="43" y="-219" on="1"/>
        <pt x="41" y="-215" on="0"/>
        <pt x="42" y="-211" on="1"/>
        <pt x="50" y="-182" on="0"/>
        <pt x="65" y="-122" on="0"/>
        <pt x="72" y="-92" on="1"/>
        <pt x="90" y="-92" on="1"/>
        <pt x="116" y="-105" on="0"/>
        <pt x="168" y="-118" on="0"/>
        <pt x="201" y="-118" on="1"/>
        <pt x="257" y="-118" on="0"/>
        <pt x="326" y="-60" on="0"/>
        <pt x="345" y="2" on="1"/>
        <pt x="343" y="4" on="0"/>
        <pt x="342" y="8" on="1"/>
        <pt x="315" y="127" on="0"/>
        <pt x="261" y="365" on="0"/>
        <pt x="234" y="484" on="1"/>
        <pt x="225" y="431" on="0"/>
        <pt x="208" y="331" on="0"/>
        <pt x="195" y="261" on="0"/>
        <pt x="193" y="253" on="1"/>
      </contour>
    </TTGlyph>
    <TTGlyph name="Eogonek" xMin="11" yMin="-250" xMax="645" yMax="700">
      <contour>
        <pt x="44" y="126" on="1"/>
        <pt x="155" y="574" on="1"/>
        <pt x="117" y="574" on="1"/>
        <pt x="113" y="574" on="0"/>
        <pt x="110" y="577" on="1"/>
        <pt x="108" y="581" on="0"/>
        <pt x="109" y="585" on="1"/>
        <pt x="117" y="616" on="0"/>
        <pt x="131" y="670" on="0"/>
        <pt x="138" y="700" on="1"/>
        <pt x="635" y="700" on="1"/>
        <pt x="641" y="700" on="0"/>
        <pt x="642" y="697" on="1"/>
        <pt x="645" y="694" on="0"/>
        <pt x="643" y="689" on="1"/>
        <pt x="636" y="659" on="0"/>
        <pt x="623" y="605" on="0"/>
        <pt x="615" y="574" on="1"/>
        <pt x="297" y="574" on="1"/>
        <pt x="257" y="413" on="1"/>
        <pt x="505" y="413" on="1"/>
        <pt x="511" y="413" on="0"/>
        <pt x="512" y="410" on="1"/>
        <pt x="515" y="407" on="0"/>
        <pt x="513" y="402" on="1"/>
        <pt x="506" y="371" on="0"/>
        <pt x="492" y="317" on="0"/>
        <pt x="486" y="291" on="1"/>
        <pt x="226" y="291" on="1"/>
        <pt x="185" y="126" on="1"/>
        <pt x="491" y="126" on="1"/>
        <pt x="502" y="126" on="0"/>
        <pt x="500" y="115" on="1"/>
        <pt x="493" y="84" on="0"/>
        <pt x="479" y="30" on="0"/>
        <pt x="471" y="0" on="1"/>
        <pt x="470" y="-4" on="0"/>
        <pt x="464" y="-9" on="0"/>
        <pt x="455" y="-11" on="1"/>
        <pt x="401" y="-21" on="0"/>
        <pt x="341" y="-60" on="0"/>
        <pt x="334" y="-86" on="1"/>
        <pt x="325" y="-123" on="0"/>
        <pt x="368" y="-123" on="1"/>
        <pt x="382" y="-123" on="0"/>
        <pt x="408" y="-115" on="0"/>
        <pt x="421" y="-108" on="1"/>
        <pt x="439" y="-108" on="1"/>
        <pt x="437" y="-117" on="0"/>
        <pt x="431" y="-140" on="0"/>
        <pt x="421" y="-180" on="0"/>
        <pt x="412" y="-216" on="1"/>
        <pt x="408" y="-230" on="0"/>
        <pt x="356" y="-250" on="0"/>
        <pt x="322" y="-250" on="1"/>
        <pt x="254" y="-250" on="0"/>
        <pt x="192" y="-184" on="0"/>
        <pt x="207" y="-125" on="1"/>
        <pt x="217" y="-84" on="0"/>
        <pt x="268" y="-21" on="0"/>
        <pt x="301" y="0" on="1"/>
        <pt x="23" y="0" on="1"/>
        <pt x="11" y="0" on="0"/>
        <pt x="15" y="11" on="1"/>
      </contour>
    </TTGlyph>
    <TTGlyph name="Eth" xMin="13" yMin="0" xMax="615" yMax="700">
      <contour>
        <pt x="47" y="405" on="1"/>
        <pt x="114" y="405" on="1"/>
        <pt x="156" y="574" on="1"/>
        <pt x="126" y="574" on="1"/>
        <pt x="121" y="574" on="0"/>
        <pt x="118" y="577" on="1"/>
        <pt x="117" y="579" on="0"/>
        <pt x="117" y="585" on="1"/>
        <pt x="125" y="616" on="0"/>
        <pt x="139" y="670" on="0"/>
        <pt x="146" y="700" on="1"/>
        <pt x="394" y="700" on="1"/>
        <pt x="525" y="700" on="0"/>
        <pt x="615" y="573" on="0"/>
        <pt x="585" y="451" on="1"/>
        <pt x="532" y="242" on="1"/>
        <pt x="504" y="128" on="0"/>
        <pt x="344" y="0" on="0"/>
        <pt x="232" y="0" on="1"/>
        <pt x="23" y="0" on="1"/>
        <pt x="19" y="0" on="0"/>
        <pt x="13" y="6" on="0"/>
        <pt x="15" y="10" on="1"/>
        <pt x="15" y="10" on="0"/>
        <pt x="15" y="11" on="1"/>
        <pt x="16" y="15" on="0"/>
        <pt x="17" y="17" on="1"/>
        <pt x="89" y="306" on="1"/>
        <pt x="33" y="306" on="1"/>
        <pt x="22" y="306" on="0"/>
        <pt x="25" y="317" on="1"/>
        <pt x="35" y="361" on="0"/>
      </contour>
      <contour>
        <pt x="339" y="306" on="1"/>
        <pt x="226" y="306" on="1"/>
        <pt x="181" y="126" on="1"/>
        <pt x="255" y="126" on="1"/>
        <pt x="307" y="126" on="0"/>
        <pt x="382" y="190" on="0"/>
        <pt x="395" y="242" on="1"/>
        <pt x="446" y="446" on="1"/>
        <pt x="464" y="517" on="0"/>
        <pt x="429" y="574" on="0"/>
        <pt x="368" y="574" on="1"/>
        <pt x="293" y="574" on="1"/>
        <pt x="250" y="405" on="1"/>
        <pt x="352" y="405" on="1"/>
        <pt x="363" y="405" on="0"/>
        <pt x="361" y="394" on="1"/>
        <pt x="349" y="350" on="0"/>
      </contour>
    </TTGlyph>
    <TTGlyph name="Etilde" xMin="11" yMin="0" xMax="669" yMax="954">
      <contour>
        <pt x="563" y="897" on="1"/>
        <pt x="586" y="897" on="0"/>
        <pt x="629" y="916" on="0"/>
        <pt x="651" y="938" on="1"/>
        <pt x="669" y="938" on="1"/>
        <pt x="663" y="913" on="0"/>
        <pt x="647" y="850" on="0"/>
        <pt x="642" y="830" on="1"/>
        <pt x="641" y="822" on="0"/>
        <pt x="637" y="813" on="0"/>
        <pt x="630" y="808" on="1"/>
        <pt x="610" y="792" on="0"/>
        <pt x="560" y="771" on="0"/>
        <pt x="527" y="771" on="1"/>
        <pt x="495" y="771" on="0"/>
        <pt x="446" y="788" on="0"/>
        <pt x="403" y="811" on="0"/>
        <pt x="360" y="828" on="0"/>
        <pt x="334" y="828" on="1"/>
        <pt x="287" y="828" on="0"/>
        <pt x="246" y="787" on="1"/>
        <pt x="228" y="787" on="1"/>
        <pt x="234" y="812" on="0"/>
        <pt x="250" y="876" on="0"/>
        <pt x="255" y="895" on="1"/>
        <pt x="257" y="903" on="0"/>
        <pt x="260" y="911" on="0"/>
        <pt x="267" y="917" on="1"/>
        <pt x="287" y="934" on="0"/>
        <pt x="337" y="954" on="0"/>
        <pt x="370" y="954" on="1"/>
        <pt x="402" y="954" on="0"/>
        <pt x="451" y="937" on="0"/>
        <pt x="494" y="914" on="0"/>
        <pt x="537" y="897" on="0"/>
      </contour>
      <contour>
        <pt x="44" y="126" on="1"/>
        <pt x="155" y="574" on="1"/>
        <pt x="117" y="574" on="1"/>
        <pt x="113" y="574" on="0"/>
        <pt x="110" y="577" on="1"/>
        <pt x="108" y="581" on="0"/>
        <pt x="109" y="585" on="1"/>
        <pt x="117" y="616" on="0"/>
        <pt x="131" y="670" on="0"/>
        <pt x="138" y="700" on="1"/>
        <pt x="635" y="700" on="1"/>
        <pt x="641" y="700" on="0"/>
        <pt x="642" y="697" on="1"/>
        <pt x="645" y="694" on="0"/>
        <pt x="643" y="689" on="1"/>
        <pt x="636" y="659" on="0"/>
        <pt x="623" y="605" on="0"/>
        <pt x="615" y="574" on="1"/>
        <pt x="297" y="574" on="1"/>
        <pt x="257" y="413" on="1"/>
        <pt x="505" y="413" on="1"/>
        <pt x="511" y="413" on="0"/>
        <pt x="512" y="410" on="1"/>
        <pt x="515" y="407" on="0"/>
        <pt x="513" y="402" on="1"/>
        <pt x="506" y="371" on="0"/>
        <pt x="492" y="317" on="0"/>
        <pt x="486" y="291" on="1"/>
        <pt x="226" y="291" on="1"/>
        <pt x="185" y="126" on="1"/>
        <pt x="491" y="126" on="1"/>
        <pt x="502" y="126" on="0"/>
        <pt x="500" y="115" on="1"/>
        <pt x="493" y="84" on="0"/>
        <pt x="479" y="30" on="0"/>
        <pt x="471" y="0" on="1"/>
        <pt x="23" y="0" on="1"/>
        <pt x="11" y="0" on="0"/>
        <pt x="15" y="11" on="1"/>
      </contour>
    </TTGlyph>
    <TTGlyph name="Euro" xMin="-4" yMin="-20" xMax="634" yMax="720">
      <contour>
        <pt x="265" y="-20" on="1"/>
        <pt x="136" y="-20" on="0"/>
        <pt x="26" y="98" on="0"/>
        <pt x="41" y="206" on="1"/>
        <pt x="8" y="206" on="1"/>
        <pt x="-4" y="206" on="0"/>
        <pt x="0" y="217" on="1"/>
        <pt x="10" y="261" on="0"/>
        <pt x="22" y="305" on="1"/>
        <pt x="64" y="305" on="1"/>
        <pt x="80" y="372" on="1"/>
        <pt x="50" y="372" on="1"/>
        <pt x="39" y="372" on="0"/>
        <pt x="41" y="383" on="1"/>
        <pt x="53" y="427" on="0"/>
        <pt x="63" y="471" on="1"/>
        <pt x="105" y="471" on="1"/>
        <pt x="128" y="546" on="0"/>
        <pt x="223" y="658" on="0"/>
        <pt x="360" y="720" on="0"/>
        <pt x="445" y="720" on="1"/>
        <pt x="520" y="720" on="0"/>
        <pt x="609" y="682" on="0"/>
        <pt x="628" y="657" on="1"/>
        <pt x="634" y="649" on="0"/>
        <pt x="631" y="633" on="1"/>
        <pt x="605" y="529" on="1"/>
        <pt x="491" y="529" on="1"/>
        <pt x="481" y="529" on="0"/>
        <pt x="483" y="540" on="1"/>
        <pt x="493" y="582" on="1"/>
        <pt x="478" y="589" on="0"/>
        <pt x="438" y="598" on="0"/>
        <pt x="412" y="598" on="1"/>
        <pt x="352" y="598" on="0"/>
        <pt x="268" y="537" on="0"/>
        <pt x="247" y="471" on="1"/>
        <pt x="418" y="471" on="1"/>
        <pt x="429" y="471" on="0"/>
        <pt x="427" y="460" on="1"/>
        <pt x="415" y="416" on="0"/>
        <pt x="405" y="372" on="1"/>
        <pt x="222" y="372" on="1"/>
        <pt x="205" y="305" on="1"/>
        <pt x="377" y="305" on="1"/>
        <pt x="383" y="305" on="0"/>
        <pt x="384" y="302" on="1"/>
        <pt x="387" y="299" on="0"/>
        <pt x="385" y="294" on="1"/>
        <pt x="375" y="250" on="0"/>
        <pt x="363" y="206" on="1"/>
        <pt x="186" y="206" on="1"/>
        <pt x="185" y="154" on="0"/>
        <pt x="243" y="108" on="0"/>
        <pt x="303" y="108" on="1"/>
        <pt x="358" y="108" on="0"/>
        <pt x="452" y="133" on="0"/>
        <pt x="499" y="158" on="1"/>
        <pt x="518" y="158" on="1"/>
        <pt x="511" y="129" on="0"/>
        <pt x="496" y="69" on="0"/>
        <pt x="489" y="40" on="1"/>
        <pt x="488" y="36" on="0"/>
        <pt x="484" y="32" on="1"/>
        <pt x="457" y="11" on="0"/>
        <pt x="336" y="-20" on="0"/>
      </contour>
    </TTGlyph>
    <TTGlyph name="F" xMin="31" yMin="0" xMax="645" yMax="700">
      <contour>
        <pt x="174" y="0" on="1"/>
        <pt x="43" y="0" on="1"/>
        <pt x="31" y="0" on="0"/>
        <pt x="35" y="11" on="1"/>
        <pt x="177" y="579" on="1"/>
        <pt x="139" y="579" on="1"/>
        <pt x="134" y="579" on="0"/>
        <pt x="132" y="582" on="1"/>
        <pt x="129" y="585" on="0"/>
        <pt x="131" y="590" on="1"/>
        <pt x="139" y="619" on="0"/>
        <pt x="151" y="671" on="0"/>
        <pt x="158" y="700" on="1"/>
        <pt x="635" y="700" on="1"/>
        <pt x="641" y="700" on="0"/>
        <pt x="642" y="697" on="1"/>
        <pt x="645" y="694" on="0"/>
        <pt x="643" y="689" on="1"/>
        <pt x="636" y="660" on="0"/>
        <pt x="623" y="608" on="0"/>
        <pt x="616" y="579" on="1"/>
        <pt x="318" y="579" on="1"/>
        <pt x="270" y="385" on="1"/>
        <pt x="515" y="385" on="1"/>
        <pt x="519" y="385" on="0"/>
        <pt x="522" y="382" on="1"/>
        <pt x="524" y="378" on="0"/>
        <pt x="523" y="373" on="1"/>
        <pt x="516" y="345" on="0"/>
        <pt x="503" y="294" on="0"/>
        <pt x="495" y="265" on="1"/>
        <pt x="240" y="265" on="1"/>
        <pt x="199" y="98" on="1"/>
        <pt x="192" y="72" on="0"/>
        <pt x="179" y="22" on="0"/>
      </contour>
    </TTGlyph>
    <TTGlyph name="G" xMin="32" yMin="-20" xMax="617" yMax="720">
      <contour>
        <pt x="260" y="100" on="1"/>
        <pt x="293" y="100" on="0"/>
        <pt x="340" y="116" on="0"/>
        <pt x="366" y="134" on="0"/>
        <pt x="367" y="137" on="1"/>
        <pt x="375" y="169" on="0"/>
        <pt x="391" y="234" on="0"/>
        <pt x="398" y="266" on="1"/>
        <pt x="311" y="266" on="1"/>
        <pt x="306" y="266" on="0"/>
        <pt x="303" y="269" on="1"/>
        <pt x="302" y="271" on="0"/>
        <pt x="302" y="277" on="1"/>
        <pt x="309" y="303" on="0"/>
        <pt x="322" y="355" on="0"/>
        <pt x="329" y="381" on="1"/>
        <pt x="578" y="381" on="1"/>
        <pt x="590" y="381" on="0"/>
        <pt x="586" y="370" on="1"/>
        <pt x="561" y="266" on="1"/>
        <pt x="524" y="266" on="1"/>
        <pt x="475" y="71" on="1"/>
        <pt x="474" y="65" on="0"/>
        <pt x="442" y="36" on="0"/>
        <pt x="383" y="4" on="0"/>
        <pt x="299" y="-20" on="0"/>
        <pt x="245" y="-20" on="1"/>
        <pt x="158" y="-20" on="0"/>
        <pt x="59" y="51" on="0"/>
        <pt x="32" y="176" on="0"/>
        <pt x="51" y="256" on="1"/>
        <pt x="106" y="474" on="1"/>
        <pt x="138" y="600" on="0"/>
        <pt x="296" y="720" on="0"/>
        <pt x="417" y="720" on="1"/>
        <pt x="495" y="720" on="0"/>
        <pt x="593" y="683" on="0"/>
        <pt x="612" y="658" on="1"/>
        <pt x="617" y="652" on="0"/>
        <pt x="614" y="643" on="1"/>
        <pt x="614" y="641" on="0"/>
        <pt x="613" y="639" on="1"/>
        <pt x="613" y="638" on="0"/>
        <pt x="613" y="637" on="1"/>
        <pt x="578" y="496" on="1"/>
        <pt x="464" y="496" on="1"/>
        <pt x="453" y="496" on="0"/>
        <pt x="456" y="507" on="1"/>
        <pt x="476" y="590" on="1"/>
        <pt x="447" y="601" on="0"/>
        <pt x="395" y="601" on="1"/>
        <pt x="329" y="601" on="0"/>
        <pt x="253" y="533" on="0"/>
        <pt x="236" y="463" on="1"/>
        <pt x="179" y="237" on="1"/>
        <pt x="179" y="235" on="0"/>
        <pt x="178" y="233" on="1"/>
        <pt x="163" y="166" on="0"/>
        <pt x="206" y="100" on="0"/>
      </contour>
    </TTGlyph>
    <TTGlyph name="Gbreve" xMin="17" yMin="-20" xMax="668" yMax="947">
      <contour>
        <pt x="384" y="947" on="1"/>
        <pt x="389" y="914" on="0"/>
        <pt x="427" y="888" on="0"/>
        <pt x="463" y="888" on="1"/>
        <pt x="499" y="888" on="0"/>
        <pt x="549" y="914" on="0"/>
        <pt x="571" y="947" on="1"/>
        <pt x="654" y="947" on="1"/>
        <pt x="664" y="947" on="0"/>
        <pt x="668" y="939" on="0"/>
        <pt x="663" y="927" on="1"/>
        <pt x="647" y="890" on="0"/>
        <pt x="585" y="824" on="0"/>
        <pt x="504" y="783" on="0"/>
        <pt x="460" y="783" on="1"/>
        <pt x="413" y="783" on="1"/>
        <pt x="369" y="783" on="0"/>
        <pt x="308" y="824" on="0"/>
        <pt x="279" y="890" on="0"/>
        <pt x="282" y="927" on="1"/>
        <pt x="284" y="939" on="0"/>
        <pt x="291" y="947" on="0"/>
        <pt x="301" y="947" on="1"/>
      </contour>
      <contour>
        <pt x="267" y="104" on="1"/>
        <pt x="312" y="104" on="0"/>
        <pt x="364" y="125" on="0"/>
        <pt x="365" y="130" on="1"/>
        <pt x="373" y="163" on="0"/>
        <pt x="390" y="232" on="0"/>
        <pt x="399" y="266" on="1"/>
        <pt x="311" y="266" on="1"/>
        <pt x="306" y="266" on="0"/>
        <pt x="304" y="269" on="1"/>
        <pt x="301" y="272" on="0"/>
        <pt x="303" y="277" on="1"/>
        <pt x="310" y="303" on="0"/>
        <pt x="322" y="355" on="0"/>
        <pt x="329" y="381" on="1"/>
        <pt x="579" y="381" on="1"/>
        <pt x="591" y="381" on="0"/>
        <pt x="587" y="370" on="1"/>
        <pt x="561" y="266" on="1"/>
        <pt x="524" y="266" on="1"/>
        <pt x="475" y="69" on="1"/>
        <pt x="474" y="63" on="0"/>
        <pt x="439" y="35" on="0"/>
        <pt x="376" y="3" on="0"/>
        <pt x="287" y="-20" on="0"/>
        <pt x="230" y="-20" on="1"/>
        <pt x="109" y="-20" on="0"/>
        <pt x="17" y="118" on="0"/>
        <pt x="47" y="239" on="1"/>
        <pt x="102" y="459" on="1"/>
        <pt x="134" y="587" on="0"/>
        <pt x="307" y="720" on="0"/>
        <pt x="433" y="720" on="1"/>
        <pt x="505" y="720" on="0"/>
        <pt x="594" y="682" on="0"/>
        <pt x="613" y="658" on="1"/>
        <pt x="618" y="652" on="0"/>
        <pt x="614" y="639" on="1"/>
        <pt x="578" y="496" on="1"/>
        <pt x="465" y="496" on="1"/>
        <pt x="454" y="496" on="0"/>
        <pt x="456" y="507" on="1"/>
        <pt x="475" y="584" on="1"/>
        <pt x="446" y="597" on="0"/>
        <pt x="396" y="597" on="1"/>
        <pt x="330" y="597" on="0"/>
        <pt x="252" y="529" on="0"/>
        <pt x="235" y="461" on="1"/>
        <pt x="180" y="239" on="1"/>
        <pt x="163" y="169" on="0"/>
        <pt x="208" y="104" on="0"/>
      </contour>
    </TTGlyph>
    <TTGlyph name="Gcaron" xMin="17" yMin="-20" xMax="708" yMax="946">
      <contour>
        <pt x="235" y="946" on="1"/>
        <pt x="352" y="946" on="1"/>
        <pt x="363" y="946" on="0"/>
        <pt x="374" y="942" on="0"/>
        <pt x="379" y="936" on="1"/>
        <pt x="388" y="927" on="0"/>
        <pt x="429" y="884" on="0"/>
        <pt x="455" y="857" on="1"/>
        <pt x="492" y="882" on="0"/>
        <pt x="555" y="926" on="0"/>
        <pt x="585" y="946" on="1"/>
        <pt x="697" y="946" on="1"/>
        <pt x="708" y="946" on="0"/>
        <pt x="706" y="939" on="1"/>
        <pt x="705" y="935" on="0"/>
        <pt x="697" y="927" on="0"/>
        <pt x="681" y="914" on="1"/>
        <pt x="667" y="903" on="0"/>
        <pt x="620" y="865" on="0"/>
        <pt x="566" y="822" on="0"/>
        <pt x="520" y="785" on="0"/>
        <pt x="508" y="775" on="1"/>
        <pt x="374" y="775" on="1"/>
        <pt x="367" y="775" on="0"/>
        <pt x="358" y="782" on="0"/>
        <pt x="348" y="795" on="1"/>
        <pt x="341" y="805" on="0"/>
        <pt x="300" y="858" on="0"/>
        <pt x="253" y="922" on="0"/>
      </contour>
      <contour>
        <pt x="267" y="104" on="1"/>
        <pt x="312" y="104" on="0"/>
        <pt x="364" y="125" on="0"/>
        <pt x="365" y="130" on="1"/>
        <pt x="373" y="163" on="0"/>
        <pt x="390" y="232" on="0"/>
        <pt x="399" y="266" on="1"/>
        <pt x="311" y="266" on="1"/>
        <pt x="306" y="266" on="0"/>
        <pt x="304" y="269" on="1"/>
        <pt x="301" y="272" on="0"/>
        <pt x="303" y="277" on="1"/>
        <pt x="310" y="303" on="0"/>
        <pt x="322" y="355" on="0"/>
        <pt x="329" y="381" on="1"/>
        <pt x="579" y="381" on="1"/>
        <pt x="591" y="381" on="0"/>
        <pt x="587" y="370" on="1"/>
        <pt x="561" y="266" on="1"/>
        <pt x="524" y="266" on="1"/>
        <pt x="475" y="69" on="1"/>
        <pt x="474" y="63" on="0"/>
        <pt x="439" y="35" on="0"/>
        <pt x="376" y="3" on="0"/>
        <pt x="287" y="-20" on="0"/>
        <pt x="230" y="-20" on="1"/>
        <pt x="109" y="-20" on="0"/>
        <pt x="17" y="118" on="0"/>
        <pt x="47" y="239" on="1"/>
        <pt x="102" y="459" on="1"/>
        <pt x="134" y="587" on="0"/>
        <pt x="307" y="720" on="0"/>
        <pt x="433" y="720" on="1"/>
        <pt x="505" y="720" on="0"/>
        <pt x="594" y="682" on="0"/>
        <pt x="613" y="658" on="1"/>
        <pt x="618" y="652" on="0"/>
        <pt x="614" y="639" on="1"/>
        <pt x="578" y="496" on="1"/>
        <pt x="465" y="496" on="1"/>
        <pt x="454" y="496" on="0"/>
        <pt x="456" y="507" on="1"/>
        <pt x="475" y="584" on="1"/>
        <pt x="446" y="597" on="0"/>
        <pt x="396" y="597" on="1"/>
        <pt x="330" y="597" on="0"/>
        <pt x="252" y="529" on="0"/>
        <pt x="235" y="461" on="1"/>
        <pt x="180" y="239" on="1"/>
        <pt x="163" y="169" on="0"/>
        <pt x="208" y="104" on="0"/>
      </contour>
    </TTGlyph>
    <TTGlyph name="Gcircumflex" xMin="17" yMin="-20" xMax="678" yMax="946">
      <contour>
        <pt x="328" y="775" on="1"/>
        <pt x="215" y="775" on="1"/>
        <pt x="204" y="775" on="0"/>
        <pt x="206" y="783" on="1"/>
        <pt x="207" y="787" on="0"/>
        <pt x="215" y="795" on="0"/>
        <pt x="231" y="808" on="1"/>
        <pt x="245" y="819" on="0"/>
        <pt x="293" y="857" on="0"/>
        <pt x="346" y="899" on="0"/>
        <pt x="392" y="936" on="0"/>
        <pt x="405" y="946" on="1"/>
        <pt x="539" y="946" on="1"/>
        <pt x="547" y="946" on="0"/>
        <pt x="555" y="939" on="0"/>
        <pt x="565" y="927" on="1"/>
        <pt x="573" y="918" on="0"/>
        <pt x="613" y="864" on="0"/>
        <pt x="660" y="800" on="0"/>
        <pt x="678" y="775" on="1"/>
        <pt x="560" y="775" on="1"/>
        <pt x="549" y="775" on="0"/>
        <pt x="539" y="779" on="0"/>
        <pt x="533" y="785" on="1"/>
        <pt x="524" y="795" on="0"/>
        <pt x="484" y="837" on="0"/>
        <pt x="458" y="864" on="1"/>
        <pt x="421" y="839" on="0"/>
        <pt x="358" y="796" on="0"/>
      </contour>
      <contour>
        <pt x="267" y="104" on="1"/>
        <pt x="312" y="104" on="0"/>
        <pt x="364" y="125" on="0"/>
        <pt x="365" y="130" on="1"/>
        <pt x="373" y="163" on="0"/>
        <pt x="390" y="232" on="0"/>
        <pt x="399" y="266" on="1"/>
        <pt x="311" y="266" on="1"/>
        <pt x="306" y="266" on="0"/>
        <pt x="304" y="269" on="1"/>
        <pt x="301" y="272" on="0"/>
        <pt x="303" y="277" on="1"/>
        <pt x="310" y="303" on="0"/>
        <pt x="322" y="355" on="0"/>
        <pt x="329" y="381" on="1"/>
        <pt x="579" y="381" on="1"/>
        <pt x="591" y="381" on="0"/>
        <pt x="587" y="370" on="1"/>
        <pt x="561" y="266" on="1"/>
        <pt x="524" y="266" on="1"/>
        <pt x="475" y="69" on="1"/>
        <pt x="474" y="63" on="0"/>
        <pt x="439" y="35" on="0"/>
        <pt x="376" y="3" on="0"/>
        <pt x="287" y="-20" on="0"/>
        <pt x="230" y="-20" on="1"/>
        <pt x="109" y="-20" on="0"/>
        <pt x="17" y="118" on="0"/>
        <pt x="47" y="239" on="1"/>
        <pt x="102" y="459" on="1"/>
        <pt x="134" y="587" on="0"/>
        <pt x="307" y="720" on="0"/>
        <pt x="433" y="720" on="1"/>
        <pt x="505" y="720" on="0"/>
        <pt x="594" y="682" on="0"/>
        <pt x="613" y="658" on="1"/>
        <pt x="618" y="652" on="0"/>
        <pt x="614" y="639" on="1"/>
        <pt x="578" y="496" on="1"/>
        <pt x="465" y="496" on="1"/>
        <pt x="454" y="496" on="0"/>
        <pt x="456" y="507" on="1"/>
        <pt x="475" y="584" on="1"/>
        <pt x="446" y="597" on="0"/>
        <pt x="396" y="597" on="1"/>
        <pt x="330" y="597" on="0"/>
        <pt x="252" y="529" on="0"/>
        <pt x="235" y="461" on="1"/>
        <pt x="180" y="239" on="1"/>
        <pt x="163" y="169" on="0"/>
        <pt x="208" y="104" on="0"/>
      </contour>
    </TTGlyph>
    <TTGlyph name="Gcommaaccent" xMin="17" yMin="-249" xMax="618" yMax="720">
      <contour>
        <pt x="267" y="104" on="1"/>
        <pt x="312" y="104" on="0"/>
        <pt x="364" y="125" on="0"/>
        <pt x="365" y="130" on="1"/>
        <pt x="373" y="163" on="0"/>
        <pt x="390" y="232" on="0"/>
        <pt x="399" y="266" on="1"/>
        <pt x="311" y="266" on="1"/>
        <pt x="306" y="266" on="0"/>
        <pt x="304" y="269" on="1"/>
        <pt x="301" y="272" on="0"/>
        <pt x="303" y="277" on="1"/>
        <pt x="310" y="303" on="0"/>
        <pt x="322" y="355" on="0"/>
        <pt x="329" y="381" on="1"/>
        <pt x="579" y="381" on="1"/>
        <pt x="591" y="381" on="0"/>
        <pt x="587" y="370" on="1"/>
        <pt x="561" y="266" on="1"/>
        <pt x="524" y="266" on="1"/>
        <pt x="475" y="69" on="1"/>
        <pt x="474" y="63" on="0"/>
        <pt x="439" y="35" on="0"/>
        <pt x="376" y="3" on="0"/>
        <pt x="287" y="-20" on="0"/>
        <pt x="230" y="-20" on="1"/>
        <pt x="109" y="-20" on="0"/>
        <pt x="17" y="118" on="0"/>
        <pt x="47" y="239" on="1"/>
        <pt x="102" y="459" on="1"/>
        <pt x="134" y="587" on="0"/>
        <pt x="307" y="720" on="0"/>
        <pt x="433" y="720" on="1"/>
        <pt x="505" y="720" on="0"/>
        <pt x="594" y="682" on="0"/>
        <pt x="613" y="658" on="1"/>
        <pt x="618" y="652" on="0"/>
        <pt x="614" y="639" on="1"/>
        <pt x="578" y="496" on="1"/>
        <pt x="465" y="496" on="1"/>
        <pt x="454" y="496" on="0"/>
        <pt x="456" y="507" on="1"/>
        <pt x="475" y="584" on="1"/>
        <pt x="446" y="597" on="0"/>
        <pt x="396" y="597" on="1"/>
        <pt x="330" y="597" on="0"/>
        <pt x="252" y="529" on="0"/>
        <pt x="235" y="461" on="1"/>
        <pt x="180" y="239" on="1"/>
        <pt x="163" y="169" on="0"/>
        <pt x="208" y="104" on="0"/>
      </contour>
      <contour>
        <pt x="191" y="-249" on="1"/>
        <pt x="86" y="-249" on="1"/>
        <pt x="109" y="-199" on="0"/>
        <pt x="152" y="-107" on="0"/>
        <pt x="172" y="-62" on="1"/>
        <pt x="304" y="-62" on="1"/>
        <pt x="310" y="-62" on="0"/>
        <pt x="316" y="-69" on="0"/>
        <pt x="312" y="-75" on="1"/>
        <pt x="285" y="-118" on="0"/>
        <pt x="238" y="-193" on="0"/>
        <pt x="209" y="-239" on="1"/>
        <pt x="207" y="-243" on="0"/>
        <pt x="198" y="-249" on="0"/>
      </contour>
    </TTGlyph>
    <TTGlyph name="Gdotaccent" xMin="17" yMin="-20" xMax="618" yMax="929">
      <contour>
        <pt x="520" y="791" on="1"/>
        <pt x="368" y="791" on="1"/>
        <pt x="356" y="791" on="0"/>
        <pt x="360" y="802" on="1"/>
        <pt x="392" y="929" on="1"/>
        <pt x="543" y="929" on="1"/>
        <pt x="554" y="929" on="0"/>
        <pt x="552" y="918" on="1"/>
      </contour>
      <contour>
        <pt x="267" y="104" on="1"/>
        <pt x="312" y="104" on="0"/>
        <pt x="364" y="125" on="0"/>
        <pt x="365" y="130" on="1"/>
        <pt x="373" y="163" on="0"/>
        <pt x="390" y="232" on="0"/>
        <pt x="399" y="266" on="1"/>
        <pt x="311" y="266" on="1"/>
        <pt x="306" y="266" on="0"/>
        <pt x="304" y="269" on="1"/>
        <pt x="301" y="272" on="0"/>
        <pt x="303" y="277" on="1"/>
        <pt x="310" y="303" on="0"/>
        <pt x="322" y="355" on="0"/>
        <pt x="329" y="381" on="1"/>
        <pt x="579" y="381" on="1"/>
        <pt x="591" y="381" on="0"/>
        <pt x="587" y="370" on="1"/>
        <pt x="561" y="266" on="1"/>
        <pt x="524" y="266" on="1"/>
        <pt x="475" y="69" on="1"/>
        <pt x="474" y="63" on="0"/>
        <pt x="439" y="35" on="0"/>
        <pt x="376" y="3" on="0"/>
        <pt x="287" y="-20" on="0"/>
        <pt x="230" y="-20" on="1"/>
        <pt x="109" y="-20" on="0"/>
        <pt x="17" y="118" on="0"/>
        <pt x="47" y="239" on="1"/>
        <pt x="102" y="459" on="1"/>
        <pt x="134" y="587" on="0"/>
        <pt x="307" y="720" on="0"/>
        <pt x="433" y="720" on="1"/>
        <pt x="505" y="720" on="0"/>
        <pt x="594" y="682" on="0"/>
        <pt x="613" y="658" on="1"/>
        <pt x="618" y="652" on="0"/>
        <pt x="614" y="639" on="1"/>
        <pt x="578" y="496" on="1"/>
        <pt x="465" y="496" on="1"/>
        <pt x="454" y="496" on="0"/>
        <pt x="456" y="507" on="1"/>
        <pt x="475" y="584" on="1"/>
        <pt x="446" y="597" on="0"/>
        <pt x="396" y="597" on="1"/>
        <pt x="330" y="597" on="0"/>
        <pt x="252" y="529" on="0"/>
        <pt x="235" y="461" on="1"/>
        <pt x="180" y="239" on="1"/>
        <pt x="163" y="169" on="0"/>
        <pt x="208" y="104" on="0"/>
      </contour>
    </TTGlyph>
    <TTGlyph name="H" xMin="3" yMin="0" xMax="636" yMax="700">
      <contour>
        <pt x="460" y="0" on="1"/>
        <pt x="330" y="0" on="1"/>
        <pt x="325" y="0" on="0"/>
        <pt x="323" y="3" on="1"/>
        <pt x="320" y="6" on="0"/>
        <pt x="322" y="11" on="1"/>
        <pt x="392" y="292" on="1"/>
        <pt x="219" y="292" on="1"/>
        <pt x="146" y="0" on="1"/>
        <pt x="15" y="0" on="1"/>
        <pt x="3" y="0" on="0"/>
        <pt x="7" y="11" on="1"/>
        <pt x="153" y="594" on="1"/>
        <pt x="160" y="621" on="0"/>
        <pt x="173" y="674" on="0"/>
        <pt x="179" y="700" on="1"/>
        <pt x="310" y="700" on="1"/>
        <pt x="316" y="700" on="0"/>
        <pt x="317" y="697" on="1"/>
        <pt x="320" y="694" on="0"/>
        <pt x="318" y="689" on="1"/>
        <pt x="249" y="413" on="1"/>
        <pt x="422" y="413" on="1"/>
        <pt x="494" y="700" on="1"/>
        <pt x="624" y="700" on="1"/>
        <pt x="636" y="700" on="0"/>
        <pt x="632" y="689" on="1"/>
        <pt x="488" y="108" on="1"/>
        <pt x="481" y="79" on="0"/>
        <pt x="466" y="24" on="0"/>
      </contour>
    </TTGlyph>
    <TTGlyph name="Hbar" xMin="4" yMin="0" xMax="665" yMax="700">
      <contour>
        <pt x="461" y="0" on="1"/>
        <pt x="331" y="0" on="1"/>
        <pt x="326" y="0" on="0"/>
        <pt x="323" y="3" on="1"/>
        <pt x="322" y="5" on="0"/>
        <pt x="322" y="11" on="1"/>
        <pt x="391" y="287" on="1"/>
        <pt x="218" y="287" on="1"/>
        <pt x="146" y="0" on="1"/>
        <pt x="16" y="0" on="1"/>
        <pt x="4" y="0" on="0"/>
        <pt x="8" y="11" on="1"/>
        <pt x="133" y="512" on="1"/>
        <pt x="92" y="512" on="1"/>
        <pt x="81" y="512" on="0"/>
        <pt x="84" y="523" on="1"/>
        <pt x="94" y="567" on="0"/>
        <pt x="106" y="611" on="1"/>
        <pt x="157" y="611" on="1"/>
        <pt x="163" y="634" on="0"/>
        <pt x="174" y="678" on="0"/>
        <pt x="180" y="700" on="1"/>
        <pt x="310" y="700" on="1"/>
        <pt x="316" y="700" on="0"/>
        <pt x="317" y="697" on="1"/>
        <pt x="320" y="694" on="0"/>
        <pt x="318" y="689" on="1"/>
        <pt x="299" y="611" on="1"/>
        <pt x="473" y="611" on="1"/>
        <pt x="495" y="700" on="1"/>
        <pt x="625" y="700" on="1"/>
        <pt x="637" y="700" on="0"/>
        <pt x="633" y="689" on="1"/>
        <pt x="614" y="611" on="1"/>
        <pt x="655" y="611" on="1"/>
        <pt x="665" y="611" on="0"/>
        <pt x="663" y="600" on="1"/>
        <pt x="651" y="556" on="0"/>
        <pt x="641" y="512" on="1"/>
        <pt x="589" y="512" on="1"/>
        <pt x="488" y="108" on="1"/>
        <pt x="481" y="79" on="0"/>
        <pt x="467" y="24" on="0"/>
      </contour>
      <contour>
        <pt x="249" y="413" on="1"/>
        <pt x="423" y="413" on="1"/>
        <pt x="448" y="512" on="1"/>
        <pt x="274" y="512" on="1"/>
      </contour>
    </TTGlyph>
    <TTGlyph name="Hcircumflex" xMin="4" yMin="0" xMax="670" yMax="946">
      <contour>
        <pt x="320" y="775" on="1"/>
        <pt x="207" y="775" on="1"/>
        <pt x="196" y="775" on="0"/>
        <pt x="198" y="783" on="1"/>
        <pt x="199" y="787" on="0"/>
        <pt x="208" y="795" on="0"/>
        <pt x="224" y="808" on="1"/>
        <pt x="238" y="819" on="0"/>
        <pt x="285" y="857" on="0"/>
        <pt x="338" y="899" on="0"/>
        <pt x="384" y="936" on="0"/>
        <pt x="397" y="946" on="1"/>
        <pt x="531" y="946" on="1"/>
        <pt x="539" y="946" on="0"/>
        <pt x="547" y="939" on="0"/>
        <pt x="557" y="927" on="1"/>
        <pt x="565" y="918" on="0"/>
        <pt x="605" y="864" on="0"/>
        <pt x="652" y="800" on="0"/>
        <pt x="670" y="775" on="1"/>
        <pt x="552" y="775" on="1"/>
        <pt x="541" y="775" on="0"/>
        <pt x="531" y="779" on="0"/>
        <pt x="525" y="785" on="1"/>
        <pt x="516" y="795" on="0"/>
        <pt x="476" y="837" on="0"/>
        <pt x="450" y="864" on="1"/>
        <pt x="413" y="839" on="0"/>
        <pt x="350" y="796" on="0"/>
      </contour>
      <contour>
        <pt x="461" y="0" on="1"/>
        <pt x="331" y="0" on="1"/>
        <pt x="326" y="0" on="0"/>
        <pt x="323" y="3" on="1"/>
        <pt x="322" y="5" on="0"/>
        <pt x="322" y="11" on="1"/>
        <pt x="391" y="287" on="1"/>
        <pt x="218" y="287" on="1"/>
        <pt x="146" y="0" on="1"/>
        <pt x="16" y="0" on="1"/>
        <pt x="4" y="0" on="0"/>
        <pt x="8" y="11" on="1"/>
        <pt x="153" y="594" on="1"/>
        <pt x="160" y="621" on="0"/>
        <pt x="173" y="674" on="0"/>
        <pt x="180" y="700" on="1"/>
        <pt x="310" y="700" on="1"/>
        <pt x="316" y="700" on="0"/>
        <pt x="317" y="697" on="1"/>
        <pt x="320" y="694" on="0"/>
        <pt x="318" y="689" on="1"/>
        <pt x="249" y="413" on="1"/>
        <pt x="423" y="413" on="1"/>
        <pt x="495" y="700" on="1"/>
        <pt x="625" y="700" on="1"/>
        <pt x="637" y="700" on="0"/>
        <pt x="633" y="689" on="1"/>
        <pt x="488" y="108" on="1"/>
        <pt x="481" y="79" on="0"/>
        <pt x="467" y="24" on="0"/>
      </contour>
    </TTGlyph>
    <TTGlyph name="I" xMin="7" yMin="0" xMax="635" yMax="700">
      <contour>
        <pt x="36" y="121" on="1"/>
        <pt x="192" y="121" on="1"/>
        <pt x="307" y="579" on="1"/>
        <pt x="162" y="579" on="1"/>
        <pt x="157" y="579" on="0"/>
        <pt x="155" y="582" on="1"/>
        <pt x="152" y="585" on="0"/>
        <pt x="154" y="590" on="1"/>
        <pt x="161" y="619" on="0"/>
        <pt x="174" y="671" on="0"/>
        <pt x="181" y="700" on="1"/>
        <pt x="623" y="700" on="1"/>
        <pt x="635" y="700" on="0"/>
        <pt x="631" y="689" on="1"/>
        <pt x="624" y="660" on="0"/>
        <pt x="611" y="608" on="0"/>
        <pt x="604" y="579" on="1"/>
        <pt x="448" y="579" on="1"/>
        <pt x="334" y="121" on="1"/>
        <pt x="478" y="121" on="1"/>
        <pt x="489" y="121" on="0"/>
        <pt x="487" y="110" on="1"/>
        <pt x="480" y="82" on="0"/>
        <pt x="467" y="29" on="0"/>
        <pt x="459" y="0" on="1"/>
        <pt x="17" y="0" on="1"/>
        <pt x="12" y="0" on="0"/>
        <pt x="10" y="3" on="1"/>
        <pt x="7" y="6" on="0"/>
        <pt x="9" y="11" on="1"/>
        <pt x="16" y="40" on="0"/>
        <pt x="29" y="93" on="0"/>
      </contour>
    </TTGlyph>
    <TTGlyph name="IJ" xMin="-1" yMin="-164" xMax="647" yMax="700">
      <contour>
        <pt x="175" y="700" on="1"/>
        <pt x="305" y="700" on="1"/>
        <pt x="311" y="700" on="0"/>
        <pt x="312" y="697" on="1"/>
        <pt x="315" y="694" on="0"/>
        <pt x="313" y="689" on="1"/>
        <pt x="141" y="0" on="1"/>
        <pt x="11" y="0" on="1"/>
        <pt x="-1" y="0" on="0"/>
        <pt x="3" y="11" on="1"/>
        <pt x="149" y="594" on="1"/>
        <pt x="156" y="621" on="0"/>
        <pt x="168" y="674" on="0"/>
      </contour>
      <contour>
        <pt x="271" y="-32" on="1"/>
        <pt x="297" y="-32" on="0"/>
        <pt x="329" y="-5" on="0"/>
        <pt x="337" y="28" on="1"/>
        <pt x="474" y="574" on="1"/>
        <pt x="381" y="574" on="1"/>
        <pt x="370" y="574" on="0"/>
        <pt x="373" y="585" on="1"/>
        <pt x="381" y="616" on="0"/>
        <pt x="395" y="670" on="0"/>
        <pt x="402" y="700" on="1"/>
        <pt x="635" y="700" on="1"/>
        <pt x="647" y="700" on="0"/>
        <pt x="643" y="689" on="1"/>
        <pt x="480" y="36" on="1"/>
        <pt x="480" y="35" on="0"/>
        <pt x="480" y="35" on="1"/>
        <pt x="458" y="-53" on="0"/>
        <pt x="348" y="-164" on="0"/>
        <pt x="261" y="-164" on="1"/>
        <pt x="253" y="-164" on="1"/>
        <pt x="228" y="-164" on="0"/>
        <pt x="182" y="-153" on="0"/>
        <pt x="176" y="-145" on="1"/>
        <pt x="173" y="-142" on="0"/>
        <pt x="175" y="-137" on="1"/>
        <pt x="182" y="-108" on="0"/>
        <pt x="197" y="-49" on="0"/>
        <pt x="204" y="-19" on="1"/>
        <pt x="223" y="-19" on="1"/>
        <pt x="243" y="-32" on="0"/>
      </contour>
    </TTGlyph>
    <TTGlyph name="IJacute" xMin="-1" yMin="-164" xMax="830" yMax="955">
      <contour>
        <pt x="305" y="776" on="1"/>
        <pt x="198" y="776" on="1"/>
        <pt x="236" y="822" on="0"/>
        <pt x="311" y="909" on="0"/>
        <pt x="350" y="955" on="1"/>
        <pt x="502" y="955" on="1"/>
        <pt x="508" y="955" on="0"/>
        <pt x="510" y="946" on="0"/>
        <pt x="505" y="941" on="1"/>
        <pt x="473" y="913" on="0"/>
        <pt x="423" y="870" on="0"/>
        <pt x="366" y="820" on="0"/>
        <pt x="322" y="782" on="1"/>
        <pt x="316" y="776" on="0"/>
      </contour>
      <contour>
        <pt x="625" y="776" on="1"/>
        <pt x="518" y="776" on="1"/>
        <pt x="556" y="822" on="0"/>
        <pt x="631" y="909" on="0"/>
        <pt x="670" y="955" on="1"/>
        <pt x="822" y="955" on="1"/>
        <pt x="828" y="955" on="0"/>
        <pt x="830" y="946" on="0"/>
        <pt x="825" y="941" on="1"/>
        <pt x="793" y="913" on="0"/>
        <pt x="743" y="870" on="0"/>
        <pt x="686" y="820" on="0"/>
        <pt x="642" y="782" on="1"/>
        <pt x="636" y="776" on="0"/>
      </contour>
      <contour>
        <pt x="175" y="700" on="1"/>
        <pt x="305" y="700" on="1"/>
        <pt x="311" y="700" on="0"/>
        <pt x="312" y="697" on="1"/>
        <pt x="315" y="694" on="0"/>
        <pt x="313" y="689" on="1"/>
        <pt x="141" y="0" on="1"/>
        <pt x="11" y="0" on="1"/>
        <pt x="-1" y="0" on="0"/>
        <pt x="3" y="11" on="1"/>
        <pt x="149" y="594" on="1"/>
        <pt x="156" y="621" on="0"/>
        <pt x="168" y="674" on="0"/>
      </contour>
      <contour>
        <pt x="271" y="-32" on="1"/>
        <pt x="297" y="-32" on="0"/>
        <pt x="329" y="-5" on="0"/>
        <pt x="337" y="28" on="1"/>
        <pt x="474" y="574" on="1"/>
        <pt x="381" y="574" on="1"/>
        <pt x="370" y="574" on="0"/>
        <pt x="373" y="585" on="1"/>
        <pt x="381" y="616" on="0"/>
        <pt x="395" y="670" on="0"/>
        <pt x="402" y="700" on="1"/>
        <pt x="635" y="700" on="1"/>
        <pt x="647" y="700" on="0"/>
        <pt x="643" y="689" on="1"/>
        <pt x="480" y="36" on="1"/>
        <pt x="480" y="35" on="0"/>
        <pt x="480" y="35" on="1"/>
        <pt x="458" y="-53" on="0"/>
        <pt x="348" y="-164" on="0"/>
        <pt x="261" y="-164" on="1"/>
        <pt x="253" y="-164" on="1"/>
        <pt x="228" y="-164" on="0"/>
        <pt x="182" y="-153" on="0"/>
        <pt x="176" y="-145" on="1"/>
        <pt x="173" y="-142" on="0"/>
        <pt x="175" y="-137" on="1"/>
        <pt x="182" y="-108" on="0"/>
        <pt x="197" y="-49" on="0"/>
        <pt x="204" y="-19" on="1"/>
        <pt x="223" y="-19" on="1"/>
        <pt x="243" y="-32" on="0"/>
      </contour>
    </TTGlyph>
    <TTGlyph name="Iacute" xMin="7" yMin="0" xMax="679" yMax="955">
      <contour>
        <pt x="474" y="775" on="1"/>
        <pt x="368" y="775" on="1"/>
        <pt x="406" y="821" on="0"/>
        <pt x="481" y="909" on="0"/>
        <pt x="519" y="955" on="1"/>
        <pt x="672" y="955" on="1"/>
        <pt x="678" y="955" on="0"/>
        <pt x="679" y="945" on="0"/>
        <pt x="674" y="940" on="1"/>
        <pt x="642" y="912" on="0"/>
        <pt x="593" y="869" on="0"/>
        <pt x="536" y="819" on="0"/>
        <pt x="492" y="781" on="1"/>
        <pt x="489" y="779" on="0"/>
        <pt x="480" y="775" on="0"/>
      </contour>
      <contour>
        <pt x="38" y="126" on="1"/>
        <pt x="194" y="126" on="1"/>
        <pt x="306" y="574" on="1"/>
        <pt x="161" y="574" on="1"/>
        <pt x="156" y="574" on="0"/>
        <pt x="154" y="577" on="1"/>
        <pt x="151" y="580" on="0"/>
        <pt x="153" y="585" on="1"/>
        <pt x="161" y="616" on="0"/>
        <pt x="174" y="670" on="0"/>
        <pt x="181" y="700" on="1"/>
        <pt x="623" y="700" on="1"/>
        <pt x="634" y="700" on="0"/>
        <pt x="632" y="689" on="1"/>
        <pt x="625" y="659" on="0"/>
        <pt x="611" y="605" on="0"/>
        <pt x="603" y="574" on="1"/>
        <pt x="447" y="574" on="1"/>
        <pt x="335" y="126" on="1"/>
        <pt x="480" y="126" on="1"/>
        <pt x="492" y="126" on="0"/>
        <pt x="488" y="115" on="1"/>
        <pt x="481" y="85" on="0"/>
        <pt x="467" y="30" on="0"/>
        <pt x="459" y="0" on="1"/>
        <pt x="17" y="0" on="1"/>
        <pt x="12" y="0" on="0"/>
        <pt x="10" y="3" on="1"/>
        <pt x="7" y="6" on="0"/>
        <pt x="9" y="11" on="1"/>
        <pt x="17" y="41" on="0"/>
        <pt x="31" y="95" on="0"/>
      </contour>
    </TTGlyph>
    <TTGlyph name="Ibreve" xMin="7" yMin="0" xMax="660" yMax="947">
      <contour>
        <pt x="376" y="947" on="1"/>
        <pt x="381" y="914" on="0"/>
        <pt x="419" y="888" on="0"/>
        <pt x="455" y="888" on="1"/>
        <pt x="491" y="888" on="0"/>
        <pt x="541" y="914" on="0"/>
        <pt x="563" y="947" on="1"/>
        <pt x="646" y="947" on="1"/>
        <pt x="656" y="947" on="0"/>
        <pt x="660" y="939" on="0"/>
        <pt x="655" y="927" on="1"/>
        <pt x="640" y="890" on="0"/>
        <pt x="577" y="824" on="0"/>
        <pt x="496" y="783" on="0"/>
        <pt x="452" y="783" on="1"/>
        <pt x="405" y="783" on="1"/>
        <pt x="361" y="783" on="0"/>
        <pt x="300" y="824" on="0"/>
        <pt x="272" y="890" on="0"/>
        <pt x="275" y="927" on="1"/>
        <pt x="276" y="939" on="0"/>
        <pt x="283" y="947" on="0"/>
        <pt x="293" y="947" on="1"/>
      </contour>
      <contour>
        <pt x="38" y="126" on="1"/>
        <pt x="194" y="126" on="1"/>
        <pt x="306" y="574" on="1"/>
        <pt x="161" y="574" on="1"/>
        <pt x="156" y="574" on="0"/>
        <pt x="154" y="577" on="1"/>
        <pt x="151" y="580" on="0"/>
        <pt x="153" y="585" on="1"/>
        <pt x="161" y="616" on="0"/>
        <pt x="174" y="670" on="0"/>
        <pt x="181" y="700" on="1"/>
        <pt x="623" y="700" on="1"/>
        <pt x="634" y="700" on="0"/>
        <pt x="632" y="689" on="1"/>
        <pt x="625" y="659" on="0"/>
        <pt x="611" y="605" on="0"/>
        <pt x="603" y="574" on="1"/>
        <pt x="447" y="574" on="1"/>
        <pt x="335" y="126" on="1"/>
        <pt x="480" y="126" on="1"/>
        <pt x="492" y="126" on="0"/>
        <pt x="488" y="115" on="1"/>
        <pt x="481" y="85" on="0"/>
        <pt x="467" y="30" on="0"/>
        <pt x="459" y="0" on="1"/>
        <pt x="17" y="0" on="1"/>
        <pt x="12" y="0" on="0"/>
        <pt x="10" y="3" on="1"/>
        <pt x="7" y="6" on="0"/>
        <pt x="9" y="11" on="1"/>
        <pt x="17" y="41" on="0"/>
        <pt x="31" y="95" on="0"/>
      </contour>
    </TTGlyph>
    <TTGlyph name="Icircumflex" xMin="7" yMin="0" xMax="670" yMax="946">
      <contour>
        <pt x="320" y="775" on="1"/>
        <pt x="207" y="775" on="1"/>
        <pt x="196" y="775" on="0"/>
        <pt x="198" y="783" on="1"/>
        <pt x="199" y="787" on="0"/>
        <pt x="208" y="795" on="0"/>
        <pt x="224" y="808" on="1"/>
        <pt x="238" y="819" on="0"/>
        <pt x="285" y="857" on="0"/>
        <pt x="338" y="899" on="0"/>
        <pt x="384" y="936" on="0"/>
        <pt x="397" y="946" on="1"/>
        <pt x="531" y="946" on="1"/>
        <pt x="539" y="946" on="0"/>
        <pt x="547" y="939" on="0"/>
        <pt x="557" y="927" on="1"/>
        <pt x="565" y="918" on="0"/>
        <pt x="605" y="864" on="0"/>
        <pt x="652" y="800" on="0"/>
        <pt x="670" y="775" on="1"/>
        <pt x="552" y="775" on="1"/>
        <pt x="541" y="775" on="0"/>
        <pt x="531" y="779" on="0"/>
        <pt x="525" y="785" on="1"/>
        <pt x="516" y="795" on="0"/>
        <pt x="476" y="837" on="0"/>
        <pt x="450" y="864" on="1"/>
        <pt x="413" y="839" on="0"/>
        <pt x="350" y="796" on="0"/>
      </contour>
      <contour>
        <pt x="38" y="126" on="1"/>
        <pt x="194" y="126" on="1"/>
        <pt x="306" y="574" on="1"/>
        <pt x="161" y="574" on="1"/>
        <pt x="156" y="574" on="0"/>
        <pt x="154" y="577" on="1"/>
        <pt x="151" y="580" on="0"/>
        <pt x="153" y="585" on="1"/>
        <pt x="161" y="616" on="0"/>
        <pt x="174" y="670" on="0"/>
        <pt x="181" y="700" on="1"/>
        <pt x="623" y="700" on="1"/>
        <pt x="634" y="700" on="0"/>
        <pt x="632" y="689" on="1"/>
        <pt x="625" y="659" on="0"/>
        <pt x="611" y="605" on="0"/>
        <pt x="603" y="574" on="1"/>
        <pt x="447" y="574" on="1"/>
        <pt x="335" y="126" on="1"/>
        <pt x="480" y="126" on="1"/>
        <pt x="492" y="126" on="0"/>
        <pt x="488" y="115" on="1"/>
        <pt x="481" y="85" on="0"/>
        <pt x="467" y="30" on="0"/>
        <pt x="459" y="0" on="1"/>
        <pt x="17" y="0" on="1"/>
        <pt x="12" y="0" on="0"/>
        <pt x="10" y="3" on="1"/>
        <pt x="7" y="6" on="0"/>
        <pt x="9" y="11" on="1"/>
        <pt x="17" y="41" on="0"/>
        <pt x="31" y="95" on="0"/>
      </contour>
    </TTGlyph>
    <TTGlyph name="Idieresis" xMin="7" yMin="0" xMax="644" yMax="927">
      <contour>
        <pt x="394" y="791" on="1"/>
        <pt x="262" y="791" on="1"/>
        <pt x="250" y="791" on="0"/>
        <pt x="254" y="802" on="1"/>
        <pt x="285" y="927" on="1"/>
        <pt x="417" y="927" on="1"/>
        <pt x="429" y="927" on="0"/>
        <pt x="425" y="916" on="1"/>
      </contour>
      <contour>
        <pt x="610" y="791" on="1"/>
        <pt x="479" y="791" on="1"/>
        <pt x="468" y="791" on="0"/>
        <pt x="470" y="802" on="1"/>
        <pt x="501" y="927" on="1"/>
        <pt x="633" y="927" on="1"/>
        <pt x="644" y="927" on="0"/>
        <pt x="642" y="916" on="1"/>
      </contour>
      <contour>
        <pt x="38" y="126" on="1"/>
        <pt x="194" y="126" on="1"/>
        <pt x="306" y="574" on="1"/>
        <pt x="161" y="574" on="1"/>
        <pt x="156" y="574" on="0"/>
        <pt x="154" y="577" on="1"/>
        <pt x="151" y="580" on="0"/>
        <pt x="153" y="585" on="1"/>
        <pt x="161" y="616" on="0"/>
        <pt x="174" y="670" on="0"/>
        <pt x="181" y="700" on="1"/>
        <pt x="623" y="700" on="1"/>
        <pt x="634" y="700" on="0"/>
        <pt x="632" y="689" on="1"/>
        <pt x="625" y="659" on="0"/>
        <pt x="611" y="605" on="0"/>
        <pt x="603" y="574" on="1"/>
        <pt x="447" y="574" on="1"/>
        <pt x="335" y="126" on="1"/>
        <pt x="480" y="126" on="1"/>
        <pt x="492" y="126" on="0"/>
        <pt x="488" y="115" on="1"/>
        <pt x="481" y="85" on="0"/>
        <pt x="467" y="30" on="0"/>
        <pt x="459" y="0" on="1"/>
        <pt x="17" y="0" on="1"/>
        <pt x="12" y="0" on="0"/>
        <pt x="10" y="3" on="1"/>
        <pt x="7" y="6" on="0"/>
        <pt x="9" y="11" on="1"/>
        <pt x="17" y="41" on="0"/>
        <pt x="31" y="95" on="0"/>
      </contour>
    </TTGlyph>
    <TTGlyph name="Idotaccent" xMin="7" yMin="0" xMax="634" yMax="929">
      <contour>
        <pt x="512" y="791" on="1"/>
        <pt x="360" y="791" on="1"/>
        <pt x="348" y="791" on="0"/>
        <pt x="352" y="802" on="1"/>
        <pt x="384" y="929" on="1"/>
        <pt x="535" y="929" on="1"/>
        <pt x="546" y="929" on="0"/>
        <pt x="544" y="918" on="1"/>
      </contour>
      <contour>
        <pt x="38" y="126" on="1"/>
        <pt x="194" y="126" on="1"/>
        <pt x="306" y="574" on="1"/>
        <pt x="161" y="574" on="1"/>
        <pt x="156" y="574" on="0"/>
        <pt x="154" y="577" on="1"/>
        <pt x="151" y="580" on="0"/>
        <pt x="153" y="585" on="1"/>
        <pt x="161" y="616" on="0"/>
        <pt x="174" y="670" on="0"/>
        <pt x="181" y="700" on="1"/>
        <pt x="623" y="700" on="1"/>
        <pt x="634" y="700" on="0"/>
        <pt x="632" y="689" on="1"/>
        <pt x="625" y="659" on="0"/>
        <pt x="611" y="605" on="0"/>
        <pt x="603" y="574" on="1"/>
        <pt x="447" y="574" on="1"/>
        <pt x="335" y="126" on="1"/>
        <pt x="480" y="126" on="1"/>
        <pt x="492" y="126" on="0"/>
        <pt x="488" y="115" on="1"/>
        <pt x="481" y="85" on="0"/>
        <pt x="467" y="30" on="0"/>
        <pt x="459" y="0" on="1"/>
        <pt x="17" y="0" on="1"/>
        <pt x="12" y="0" on="0"/>
        <pt x="10" y="3" on="1"/>
        <pt x="7" y="6" on="0"/>
        <pt x="9" y="11" on="1"/>
        <pt x="17" y="41" on="0"/>
        <pt x="31" y="95" on="0"/>
      </contour>
    </TTGlyph>
    <TTGlyph name="Idotbelow" xMin="7" yMin="-239" xMax="634" yMax="700">
      <contour>
        <pt x="38" y="126" on="1"/>
        <pt x="194" y="126" on="1"/>
        <pt x="306" y="574" on="1"/>
        <pt x="161" y="574" on="1"/>
        <pt x="156" y="574" on="0"/>
        <pt x="154" y="577" on="1"/>
        <pt x="151" y="580" on="0"/>
        <pt x="153" y="585" on="1"/>
        <pt x="161" y="616" on="0"/>
        <pt x="174" y="670" on="0"/>
        <pt x="181" y="700" on="1"/>
        <pt x="623" y="700" on="1"/>
        <pt x="634" y="700" on="0"/>
        <pt x="632" y="689" on="1"/>
        <pt x="625" y="659" on="0"/>
        <pt x="611" y="605" on="0"/>
        <pt x="603" y="574" on="1"/>
        <pt x="447" y="574" on="1"/>
        <pt x="335" y="126" on="1"/>
        <pt x="480" y="126" on="1"/>
        <pt x="492" y="126" on="0"/>
        <pt x="488" y="115" on="1"/>
        <pt x="481" y="85" on="0"/>
        <pt x="467" y="30" on="0"/>
        <pt x="459" y="0" on="1"/>
        <pt x="17" y="0" on="1"/>
        <pt x="12" y="0" on="0"/>
        <pt x="10" y="3" on="1"/>
        <pt x="7" y="6" on="0"/>
        <pt x="9" y="11" on="1"/>
        <pt x="17" y="41" on="0"/>
        <pt x="31" y="95" on="0"/>
      </contour>
      <contour>
        <pt x="254" y="-239" on="1"/>
        <pt x="103" y="-239" on="1"/>
        <pt x="92" y="-239" on="0"/>
        <pt x="94" y="-228" on="1"/>
        <pt x="126" y="-101" on="1"/>
        <pt x="278" y="-101" on="1"/>
        <pt x="290" y="-101" on="0"/>
        <pt x="286" y="-112" on="1"/>
      </contour>
    </TTGlyph>
    <TTGlyph name="Igrave" xMin="7" yMin="0" xMax="634" yMax="955">
      <contour>
        <pt x="485" y="775" on="1"/>
        <pt x="379" y="775" on="1"/>
        <pt x="368" y="775" on="0"/>
        <pt x="364" y="782" on="1"/>
        <pt x="339" y="820" on="0"/>
        <pt x="307" y="869" on="0"/>
        <pt x="280" y="913" on="0"/>
        <pt x="262" y="941" on="1"/>
        <pt x="259" y="946" on="0"/>
        <pt x="265" y="955" on="0"/>
        <pt x="271" y="955" on="1"/>
        <pt x="424" y="955" on="1"/>
        <pt x="439" y="909" on="0"/>
        <pt x="470" y="821" on="0"/>
      </contour>
      <contour>
        <pt x="38" y="126" on="1"/>
        <pt x="194" y="126" on="1"/>
        <pt x="306" y="574" on="1"/>
        <pt x="161" y="574" on="1"/>
        <pt x="156" y="574" on="0"/>
        <pt x="154" y="577" on="1"/>
        <pt x="151" y="580" on="0"/>
        <pt x="153" y="585" on="1"/>
        <pt x="161" y="616" on="0"/>
        <pt x="174" y="670" on="0"/>
        <pt x="181" y="700" on="1"/>
        <pt x="623" y="700" on="1"/>
        <pt x="634" y="700" on="0"/>
        <pt x="632" y="689" on="1"/>
        <pt x="625" y="659" on="0"/>
        <pt x="611" y="605" on="0"/>
        <pt x="603" y="574" on="1"/>
        <pt x="447" y="574" on="1"/>
        <pt x="335" y="126" on="1"/>
        <pt x="480" y="126" on="1"/>
        <pt x="492" y="126" on="0"/>
        <pt x="488" y="115" on="1"/>
        <pt x="481" y="85" on="0"/>
        <pt x="467" y="30" on="0"/>
        <pt x="459" y="0" on="1"/>
        <pt x="17" y="0" on="1"/>
        <pt x="12" y="0" on="0"/>
        <pt x="10" y="3" on="1"/>
        <pt x="7" y="6" on="0"/>
        <pt x="9" y="11" on="1"/>
        <pt x="17" y="41" on="0"/>
        <pt x="31" y="95" on="0"/>
      </contour>
    </TTGlyph>
    <TTGlyph name="Imacron" xMin="7" yMin="0" xMax="639" yMax="912">
      <contour>
        <pt x="282" y="912" on="1"/>
        <pt x="629" y="912" on="1"/>
        <pt x="639" y="912" on="0"/>
        <pt x="637" y="901" on="1"/>
        <pt x="630" y="875" on="0"/>
        <pt x="619" y="827" on="0"/>
        <pt x="612" y="801" on="1"/>
        <pt x="265" y="801" on="1"/>
        <pt x="254" y="801" on="0"/>
        <pt x="257" y="812" on="1"/>
        <pt x="264" y="838" on="0"/>
        <pt x="275" y="886" on="0"/>
      </contour>
      <contour>
        <pt x="38" y="126" on="1"/>
        <pt x="194" y="126" on="1"/>
        <pt x="306" y="574" on="1"/>
        <pt x="161" y="574" on="1"/>
        <pt x="156" y="574" on="0"/>
        <pt x="154" y="577" on="1"/>
        <pt x="151" y="580" on="0"/>
        <pt x="153" y="585" on="1"/>
        <pt x="161" y="616" on="0"/>
        <pt x="174" y="670" on="0"/>
        <pt x="181" y="700" on="1"/>
        <pt x="623" y="700" on="1"/>
        <pt x="634" y="700" on="0"/>
        <pt x="632" y="689" on="1"/>
        <pt x="625" y="659" on="0"/>
        <pt x="611" y="605" on="0"/>
        <pt x="603" y="574" on="1"/>
        <pt x="447" y="574" on="1"/>
        <pt x="335" y="126" on="1"/>
        <pt x="480" y="126" on="1"/>
        <pt x="492" y="126" on="0"/>
        <pt x="488" y="115" on="1"/>
        <pt x="481" y="85" on="0"/>
        <pt x="467" y="30" on="0"/>
        <pt x="459" y="0" on="1"/>
        <pt x="17" y="0" on="1"/>
        <pt x="12" y="0" on="0"/>
        <pt x="10" y="3" on="1"/>
        <pt x="7" y="6" on="0"/>
        <pt x="9" y="11" on="1"/>
        <pt x="17" y="41" on="0"/>
        <pt x="31" y="95" on="0"/>
      </contour>
    </TTGlyph>
    <TTGlyph name="Iogonek" xMin="7" yMin="-250" xMax="634" yMax="700">
      <contour>
        <pt x="38" y="126" on="1"/>
        <pt x="194" y="126" on="1"/>
        <pt x="306" y="574" on="1"/>
        <pt x="161" y="574" on="1"/>
        <pt x="156" y="574" on="0"/>
        <pt x="154" y="577" on="1"/>
        <pt x="151" y="580" on="0"/>
        <pt x="153" y="585" on="1"/>
        <pt x="161" y="616" on="0"/>
        <pt x="174" y="670" on="0"/>
        <pt x="181" y="700" on="1"/>
        <pt x="623" y="700" on="1"/>
        <pt x="634" y="700" on="0"/>
        <pt x="632" y="689" on="1"/>
        <pt x="625" y="659" on="0"/>
        <pt x="611" y="605" on="0"/>
        <pt x="603" y="574" on="1"/>
        <pt x="447" y="574" on="1"/>
        <pt x="335" y="126" on="1"/>
        <pt x="480" y="126" on="1"/>
        <pt x="492" y="126" on="0"/>
        <pt x="488" y="115" on="1"/>
        <pt x="481" y="85" on="0"/>
        <pt x="467" y="30" on="0"/>
        <pt x="459" y="0" on="1"/>
        <pt x="458" y="-4" on="0"/>
        <pt x="453" y="-9" on="0"/>
        <pt x="444" y="-11" on="1"/>
        <pt x="389" y="-21" on="0"/>
        <pt x="329" y="-60" on="0"/>
        <pt x="323" y="-86" on="1"/>
        <pt x="314" y="-123" on="0"/>
        <pt x="357" y="-123" on="1"/>
        <pt x="371" y="-123" on="0"/>
        <pt x="396" y="-115" on="0"/>
        <pt x="409" y="-108" on="1"/>
        <pt x="427" y="-108" on="1"/>
        <pt x="425" y="-117" on="0"/>
        <pt x="420" y="-140" on="0"/>
        <pt x="410" y="-180" on="0"/>
        <pt x="401" y="-216" on="1"/>
        <pt x="397" y="-230" on="0"/>
        <pt x="344" y="-250" on="0"/>
        <pt x="310" y="-250" on="1"/>
        <pt x="242" y="-250" on="0"/>
        <pt x="180" y="-184" on="0"/>
        <pt x="195" y="-125" on="1"/>
        <pt x="205" y="-84" on="0"/>
        <pt x="257" y="-21" on="0"/>
        <pt x="289" y="0" on="1"/>
        <pt x="17" y="0" on="1"/>
        <pt x="12" y="0" on="0"/>
        <pt x="10" y="3" on="1"/>
        <pt x="7" y="6" on="0"/>
        <pt x="9" y="11" on="1"/>
        <pt x="17" y="41" on="0"/>
        <pt x="31" y="95" on="0"/>
      </contour>
    </TTGlyph>
    <TTGlyph name="Itilde" xMin="7" yMin="0" xMax="669" yMax="954">
      <contour>
        <pt x="563" y="897" on="1"/>
        <pt x="586" y="897" on="0"/>
        <pt x="629" y="916" on="0"/>
        <pt x="651" y="938" on="1"/>
        <pt x="669" y="938" on="1"/>
        <pt x="663" y="913" on="0"/>
        <pt x="647" y="850" on="0"/>
        <pt x="642" y="830" on="1"/>
        <pt x="641" y="822" on="0"/>
        <pt x="637" y="813" on="0"/>
        <pt x="630" y="808" on="1"/>
        <pt x="610" y="792" on="0"/>
        <pt x="560" y="771" on="0"/>
        <pt x="527" y="771" on="1"/>
        <pt x="495" y="771" on="0"/>
        <pt x="446" y="788" on="0"/>
        <pt x="403" y="811" on="0"/>
        <pt x="360" y="828" on="0"/>
        <pt x="334" y="828" on="1"/>
        <pt x="287" y="828" on="0"/>
        <pt x="246" y="787" on="1"/>
        <pt x="228" y="787" on="1"/>
        <pt x="234" y="812" on="0"/>
        <pt x="250" y="876" on="0"/>
        <pt x="255" y="895" on="1"/>
        <pt x="257" y="903" on="0"/>
        <pt x="260" y="911" on="0"/>
        <pt x="267" y="917" on="1"/>
        <pt x="287" y="934" on="0"/>
        <pt x="337" y="954" on="0"/>
        <pt x="370" y="954" on="1"/>
        <pt x="402" y="954" on="0"/>
        <pt x="451" y="937" on="0"/>
        <pt x="494" y="914" on="0"/>
        <pt x="537" y="897" on="0"/>
      </contour>
      <contour>
        <pt x="38" y="126" on="1"/>
        <pt x="194" y="126" on="1"/>
        <pt x="306" y="574" on="1"/>
        <pt x="161" y="574" on="1"/>
        <pt x="156" y="574" on="0"/>
        <pt x="154" y="577" on="1"/>
        <pt x="151" y="580" on="0"/>
        <pt x="153" y="585" on="1"/>
        <pt x="161" y="616" on="0"/>
        <pt x="174" y="670" on="0"/>
        <pt x="181" y="700" on="1"/>
        <pt x="623" y="700" on="1"/>
        <pt x="634" y="700" on="0"/>
        <pt x="632" y="689" on="1"/>
        <pt x="625" y="659" on="0"/>
        <pt x="611" y="605" on="0"/>
        <pt x="603" y="574" on="1"/>
        <pt x="447" y="574" on="1"/>
        <pt x="335" y="126" on="1"/>
        <pt x="480" y="126" on="1"/>
        <pt x="492" y="126" on="0"/>
        <pt x="488" y="115" on="1"/>
        <pt x="481" y="85" on="0"/>
        <pt x="467" y="30" on="0"/>
        <pt x="459" y="0" on="1"/>
        <pt x="17" y="0" on="1"/>
        <pt x="12" y="0" on="0"/>
        <pt x="10" y="3" on="1"/>
        <pt x="7" y="6" on="0"/>
        <pt x="9" y="11" on="1"/>
        <pt x="17" y="41" on="0"/>
        <pt x="31" y="95" on="0"/>
      </contour>
    </TTGlyph>
    <TTGlyph name="J" xMin="27" yMin="-20" xMax="616" yMax="700">
      <contour>
        <pt x="220" y="104" on="1"/>
        <pt x="272" y="104" on="0"/>
        <pt x="337" y="159" on="0"/>
        <pt x="354" y="226" on="1"/>
        <pt x="443" y="579" on="1"/>
        <pt x="212" y="579" on="1"/>
        <pt x="208" y="579" on="0"/>
        <pt x="205" y="582" on="1"/>
        <pt x="203" y="586" on="0"/>
        <pt x="204" y="590" on="1"/>
        <pt x="212" y="619" on="0"/>
        <pt x="225" y="671" on="0"/>
        <pt x="232" y="700" on="1"/>
        <pt x="604" y="700" on="1"/>
        <pt x="616" y="700" on="0"/>
        <pt x="612" y="689" on="1"/>
        <pt x="496" y="229" on="1"/>
        <pt x="496" y="226" on="0"/>
        <pt x="495" y="223" on="1"/>
        <pt x="436" y="-20" on="0"/>
        <pt x="209" y="-20" on="1"/>
        <pt x="202" y="-20" on="1"/>
        <pt x="132" y="-20" on="0"/>
        <pt x="41" y="12" on="0"/>
        <pt x="28" y="28" on="1"/>
        <pt x="27" y="31" on="0"/>
        <pt x="27" y="38" on="1"/>
        <pt x="34" y="65" on="0"/>
        <pt x="47" y="115" on="0"/>
        <pt x="54" y="142" on="1"/>
        <pt x="72" y="142" on="1"/>
        <pt x="105" y="122" on="0"/>
        <pt x="173" y="104" on="0"/>
      </contour>
    </TTGlyph>
    <TTGlyph name="Jcircumflex" xMin="22" yMin="-20" xMax="666" yMax="946">
      <contour>
        <pt x="316" y="775" on="1"/>
        <pt x="203" y="775" on="1"/>
        <pt x="192" y="775" on="0"/>
        <pt x="194" y="783" on="1"/>
        <pt x="195" y="787" on="0"/>
        <pt x="203" y="795" on="0"/>
        <pt x="219" y="808" on="1"/>
        <pt x="233" y="819" on="0"/>
        <pt x="281" y="857" on="0"/>
        <pt x="334" y="899" on="0"/>
        <pt x="380" y="936" on="0"/>
        <pt x="393" y="946" on="1"/>
        <pt x="527" y="946" on="1"/>
        <pt x="535" y="946" on="0"/>
        <pt x="543" y="939" on="0"/>
        <pt x="553" y="927" on="1"/>
        <pt x="561" y="918" on="0"/>
        <pt x="601" y="864" on="0"/>
        <pt x="648" y="800" on="0"/>
        <pt x="666" y="775" on="1"/>
        <pt x="548" y="775" on="1"/>
        <pt x="537" y="775" on="0"/>
        <pt x="527" y="779" on="0"/>
        <pt x="521" y="785" on="1"/>
        <pt x="512" y="795" on="0"/>
        <pt x="472" y="837" on="0"/>
        <pt x="446" y="864" on="1"/>
        <pt x="409" y="839" on="0"/>
        <pt x="346" y="796" on="0"/>
      </contour>
      <contour>
        <pt x="208" y="108" on="1"/>
        <pt x="269" y="108" on="0"/>
        <pt x="340" y="166" on="0"/>
        <pt x="356" y="233" on="1"/>
        <pt x="441" y="574" on="1"/>
        <pt x="212" y="574" on="1"/>
        <pt x="207" y="574" on="0"/>
        <pt x="204" y="577" on="1"/>
        <pt x="203" y="579" on="0"/>
        <pt x="203" y="585" on="1"/>
        <pt x="211" y="616" on="0"/>
        <pt x="225" y="670" on="0"/>
        <pt x="232" y="700" on="1"/>
        <pt x="603" y="700" on="1"/>
        <pt x="614" y="700" on="0"/>
        <pt x="612" y="689" on="1"/>
        <pt x="500" y="241" on="1"/>
        <pt x="500" y="240" on="0"/>
        <pt x="499" y="239" on="1"/>
        <pt x="480" y="164" on="0"/>
        <pt x="396" y="47" on="0"/>
        <pt x="269" y="-20" on="0"/>
        <pt x="185" y="-20" on="1"/>
        <pt x="160" y="-20" on="1"/>
        <pt x="131" y="-20" on="0"/>
        <pt x="73" y="-9" on="0"/>
        <pt x="31" y="7" on="0"/>
        <pt x="25" y="15" on="1"/>
        <pt x="22" y="18" on="0"/>
        <pt x="24" y="23" on="1"/>
        <pt x="32" y="54" on="0"/>
        <pt x="46" y="110" on="0"/>
        <pt x="53" y="141" on="1"/>
        <pt x="72" y="141" on="1"/>
        <pt x="134" y="108" on="0"/>
      </contour>
    </TTGlyph>
    <TTGlyph name="K" xMin="5" yMin="-8" xMax="670" yMax="700">
      <contour>
        <pt x="181" y="700" on="1"/>
        <pt x="311" y="700" on="1"/>
        <pt x="317" y="700" on="0"/>
        <pt x="318" y="697" on="1"/>
        <pt x="321" y="694" on="0"/>
        <pt x="319" y="689" on="1"/>
        <pt x="247" y="400" on="1"/>
        <pt x="313" y="475" on="0"/>
        <pt x="446" y="626" on="0"/>
        <pt x="512" y="700" on="1"/>
        <pt x="661" y="700" on="1"/>
        <pt x="670" y="700" on="0"/>
        <pt x="668" y="693" on="1"/>
        <pt x="668" y="691" on="0"/>
        <pt x="661" y="682" on="0"/>
        <pt x="639" y="657" on="0"/>
        <pt x="614" y="629" on="1"/>
        <pt x="563" y="574" on="0"/>
        <pt x="441" y="445" on="0"/>
        <pt x="370" y="369" on="1"/>
        <pt x="451" y="154" on="1"/>
        <pt x="459" y="135" on="0"/>
        <pt x="477" y="124" on="0"/>
        <pt x="501" y="124" on="1"/>
        <pt x="532" y="124" on="1"/>
        <pt x="525" y="94" on="0"/>
        <pt x="509" y="33" on="0"/>
        <pt x="501" y="3" on="1"/>
        <pt x="498" y="-8" on="0"/>
        <pt x="487" y="-8" on="1"/>
        <pt x="446" y="-8" on="1"/>
        <pt x="398" y="-8" on="0"/>
        <pt x="355" y="24" on="0"/>
        <pt x="339" y="64" on="1"/>
        <pt x="265" y="258" on="1"/>
        <pt x="230" y="222" on="0"/>
        <pt x="192" y="181" on="1"/>
        <pt x="147" y="0" on="1"/>
        <pt x="17" y="0" on="1"/>
        <pt x="5" y="0" on="0"/>
        <pt x="9" y="11" on="1"/>
        <pt x="154" y="594" on="1"/>
        <pt x="161" y="621" on="0"/>
        <pt x="174" y="674" on="0"/>
      </contour>
    </TTGlyph>
    <TTGlyph name="Kcommaaccent" xMin="5" yMin="-249" xMax="670" yMax="700">
      <contour>
        <pt x="181" y="700" on="1"/>
        <pt x="311" y="700" on="1"/>
        <pt x="316" y="700" on="0"/>
        <pt x="319" y="697" on="1"/>
        <pt x="320" y="695" on="0"/>
        <pt x="320" y="689" on="1"/>
        <pt x="247" y="399" on="1"/>
        <pt x="313" y="474" on="0"/>
        <pt x="447" y="625" on="0"/>
        <pt x="513" y="700" on="1"/>
        <pt x="661" y="700" on="1"/>
        <pt x="670" y="700" on="0"/>
        <pt x="668" y="692" on="1"/>
        <pt x="668" y="690" on="0"/>
        <pt x="662" y="681" on="0"/>
        <pt x="640" y="657" on="0"/>
        <pt x="614" y="630" on="1"/>
        <pt x="563" y="577" on="0"/>
        <pt x="443" y="452" on="0"/>
        <pt x="372" y="379" on="1"/>
        <pt x="458" y="154" on="1"/>
        <pt x="465" y="135" on="0"/>
        <pt x="481" y="125" on="0"/>
        <pt x="503" y="125" on="1"/>
        <pt x="532" y="125" on="1"/>
        <pt x="525" y="94" on="0"/>
        <pt x="510" y="33" on="0"/>
        <pt x="502" y="3" on="1"/>
        <pt x="499" y="-8" on="0"/>
        <pt x="488" y="-8" on="1"/>
        <pt x="447" y="-8" on="1"/>
        <pt x="394" y="-8" on="0"/>
        <pt x="348" y="23" on="0"/>
        <pt x="332" y="64" on="1"/>
        <pt x="256" y="258" on="1"/>
        <pt x="227" y="227" on="0"/>
        <pt x="196" y="196" on="1"/>
        <pt x="147" y="0" on="1"/>
        <pt x="17" y="0" on="1"/>
        <pt x="5" y="0" on="0"/>
        <pt x="9" y="11" on="1"/>
        <pt x="155" y="594" on="1"/>
        <pt x="162" y="621" on="0"/>
        <pt x="174" y="674" on="0"/>
      </contour>
      <contour>
        <pt x="204" y="-249" on="1"/>
        <pt x="99" y="-249" on="1"/>
        <pt x="122" y="-199" on="0"/>
        <pt x="165" y="-107" on="0"/>
        <pt x="185" y="-62" on="1"/>
        <pt x="317" y="-62" on="1"/>
        <pt x="323" y="-62" on="0"/>
        <pt x="329" y="-69" on="0"/>
        <pt x="325" y="-75" on="1"/>
        <pt x="297" y="-118" on="0"/>
        <pt x="251" y="-193" on="0"/>
        <pt x="222" y="-239" on="1"/>
        <pt x="220" y="-243" on="0"/>
        <pt x="211" y="-249" on="0"/>
      </contour>
    </TTGlyph>
    <TTGlyph name="L" xMin="5" yMin="0" xMax="501" yMax="700">
      <contour>
        <pt x="36" y="121" on="1"/>
        <pt x="156" y="600" on="1"/>
        <pt x="162" y="625" on="0"/>
        <pt x="175" y="675" on="0"/>
        <pt x="181" y="700" on="1"/>
        <pt x="311" y="700" on="1"/>
        <pt x="317" y="700" on="0"/>
        <pt x="318" y="697" on="1"/>
        <pt x="321" y="694" on="0"/>
        <pt x="319" y="689" on="1"/>
        <pt x="177" y="121" on="1"/>
        <pt x="490" y="121" on="1"/>
        <pt x="501" y="121" on="0"/>
        <pt x="499" y="110" on="1"/>
        <pt x="491" y="82" on="0"/>
        <pt x="478" y="29" on="0"/>
        <pt x="471" y="0" on="1"/>
        <pt x="17" y="0" on="1"/>
        <pt x="5" y="0" on="0"/>
        <pt x="9" y="11" on="1"/>
      </contour>
    </TTGlyph>
    <TTGlyph name="Lacute" xMin="5" yMin="0" xMax="523" yMax="955">
      <contour>
        <pt x="318" y="775" on="1"/>
        <pt x="212" y="775" on="1"/>
        <pt x="250" y="821" on="0"/>
        <pt x="325" y="909" on="0"/>
        <pt x="363" y="955" on="1"/>
        <pt x="516" y="955" on="1"/>
        <pt x="522" y="955" on="0"/>
        <pt x="523" y="945" on="0"/>
        <pt x="518" y="940" on="1"/>
        <pt x="486" y="912" on="0"/>
        <pt x="437" y="869" on="0"/>
        <pt x="380" y="819" on="0"/>
        <pt x="336" y="781" on="1"/>
        <pt x="333" y="779" on="0"/>
        <pt x="324" y="775" on="0"/>
      </contour>
      <contour>
        <pt x="38" y="126" on="1"/>
        <pt x="156" y="600" on="1"/>
        <pt x="163" y="625" on="0"/>
        <pt x="175" y="675" on="0"/>
        <pt x="181" y="700" on="1"/>
        <pt x="311" y="700" on="1"/>
        <pt x="316" y="700" on="0"/>
        <pt x="319" y="697" on="1"/>
        <pt x="320" y="695" on="0"/>
        <pt x="320" y="689" on="1"/>
        <pt x="179" y="126" on="1"/>
        <pt x="491" y="126" on="1"/>
        <pt x="502" y="126" on="0"/>
        <pt x="500" y="115" on="1"/>
        <pt x="493" y="84" on="0"/>
        <pt x="479" y="30" on="0"/>
        <pt x="471" y="0" on="1"/>
        <pt x="17" y="0" on="1"/>
        <pt x="5" y="0" on="0"/>
        <pt x="9" y="11" on="1"/>
        <pt x="38" y="125" on="1"/>
        <pt x="38" y="125" on="0"/>
      </contour>
    </TTGlyph>
    <TTGlyph name="Lcaron" xMin="5" yMin="0" xMax="631" yMax="700">
      <contour>
        <pt x="38" y="126" on="1"/>
        <pt x="156" y="600" on="1"/>
        <pt x="163" y="625" on="0"/>
        <pt x="175" y="675" on="0"/>
        <pt x="181" y="700" on="1"/>
        <pt x="311" y="700" on="1"/>
        <pt x="316" y="700" on="0"/>
        <pt x="319" y="697" on="1"/>
        <pt x="320" y="695" on="0"/>
        <pt x="320" y="689" on="1"/>
        <pt x="179" y="126" on="1"/>
        <pt x="491" y="126" on="1"/>
        <pt x="502" y="126" on="0"/>
        <pt x="500" y="115" on="1"/>
        <pt x="493" y="84" on="0"/>
        <pt x="479" y="30" on="0"/>
        <pt x="471" y="0" on="1"/>
        <pt x="17" y="0" on="1"/>
        <pt x="5" y="0" on="0"/>
        <pt x="9" y="11" on="1"/>
        <pt x="38" y="125" on="1"/>
        <pt x="38" y="125" on="0"/>
      </contour>
      <contour>
        <pt x="506" y="475" on="1"/>
        <pt x="425" y="475" on="1"/>
        <pt x="442" y="537" on="0"/>
        <pt x="469" y="638" on="0"/>
        <pt x="487" y="700" on="1"/>
        <pt x="620" y="700" on="1"/>
        <pt x="627" y="700" on="0"/>
        <pt x="631" y="691" on="0"/>
        <pt x="628" y="685" on="1"/>
        <pt x="599" y="631" on="0"/>
        <pt x="553" y="542" on="0"/>
        <pt x="525" y="486" on="1"/>
        <pt x="519" y="475" on="0"/>
      </contour>
    </TTGlyph>
    <TTGlyph name="Lcommaaccent" xMin="5" yMin="-249" xMax="502" yMax="700">
      <contour>
        <pt x="38" y="126" on="1"/>
        <pt x="156" y="600" on="1"/>
        <pt x="163" y="625" on="0"/>
        <pt x="175" y="675" on="0"/>
        <pt x="181" y="700" on="1"/>
        <pt x="311" y="700" on="1"/>
        <pt x="316" y="700" on="0"/>
        <pt x="319" y="697" on="1"/>
        <pt x="320" y="695" on="0"/>
        <pt x="320" y="689" on="1"/>
        <pt x="179" y="126" on="1"/>
        <pt x="491" y="126" on="1"/>
        <pt x="502" y="126" on="0"/>
        <pt x="500" y="115" on="1"/>
        <pt x="493" y="84" on="0"/>
        <pt x="479" y="30" on="0"/>
        <pt x="471" y="0" on="1"/>
        <pt x="17" y="0" on="1"/>
        <pt x="5" y="0" on="0"/>
        <pt x="9" y="11" on="1"/>
        <pt x="38" y="125" on="1"/>
        <pt x="38" y="125" on="0"/>
      </contour>
      <contour>
        <pt x="189" y="-249" on="1"/>
        <pt x="84" y="-249" on="1"/>
        <pt x="107" y="-199" on="0"/>
        <pt x="150" y="-107" on="0"/>
        <pt x="170" y="-62" on="1"/>
        <pt x="302" y="-62" on="1"/>
        <pt x="308" y="-62" on="0"/>
        <pt x="314" y="-69" on="0"/>
        <pt x="310" y="-75" on="1"/>
        <pt x="282" y="-118" on="0"/>
        <pt x="236" y="-193" on="0"/>
        <pt x="207" y="-239" on="1"/>
        <pt x="205" y="-243" on="0"/>
        <pt x="196" y="-249" on="0"/>
      </contour>
    </TTGlyph>
    <TTGlyph name="Ldot" xMin="5" yMin="0" xMax="551" yMax="700">
      <contour>
        <pt x="38" y="126" on="1"/>
        <pt x="156" y="600" on="1"/>
        <pt x="163" y="625" on="0"/>
        <pt x="175" y="675" on="0"/>
        <pt x="181" y="700" on="1"/>
        <pt x="311" y="700" on="1"/>
        <pt x="316" y="700" on="0"/>
        <pt x="319" y="697" on="1"/>
        <pt x="320" y="695" on="0"/>
        <pt x="320" y="689" on="1"/>
        <pt x="179" y="126" on="1"/>
        <pt x="491" y="126" on="1"/>
        <pt x="502" y="126" on="0"/>
        <pt x="500" y="115" on="1"/>
        <pt x="493" y="84" on="0"/>
        <pt x="479" y="30" on="0"/>
        <pt x="471" y="0" on="1"/>
        <pt x="17" y="0" on="1"/>
        <pt x="5" y="0" on="0"/>
        <pt x="9" y="11" on="1"/>
        <pt x="38" y="125" on="1"/>
        <pt x="38" y="125" on="0"/>
      </contour>
      <contour>
        <pt x="515" y="327" on="1"/>
        <pt x="371" y="327" on="1"/>
        <pt x="360" y="327" on="0"/>
        <pt x="362" y="338" on="1"/>
        <pt x="396" y="474" on="1"/>
        <pt x="541" y="474" on="1"/>
        <pt x="551" y="474" on="0"/>
        <pt x="549" y="463" on="1"/>
      </contour>
    </TTGlyph>
    <TTGlyph name="Lslash" xMin="19" yMin="0" xMax="502" yMax="700">
      <contour>
        <pt x="476" y="528" on="1"/>
        <pt x="472" y="513" on="0"/>
        <pt x="459" y="463" on="0"/>
        <pt x="447" y="413" on="1"/>
        <pt x="443" y="399" on="0"/>
        <pt x="434" y="395" on="1"/>
        <pt x="249" y="310" on="1"/>
        <pt x="203" y="126" on="1"/>
        <pt x="491" y="126" on="1"/>
        <pt x="502" y="126" on="0"/>
        <pt x="500" y="115" on="1"/>
        <pt x="493" y="84" on="0"/>
        <pt x="479" y="30" on="0"/>
        <pt x="471" y="0" on="1"/>
        <pt x="41" y="0" on="1"/>
        <pt x="31" y="0" on="0"/>
        <pt x="33" y="11" on="1"/>
        <pt x="60" y="117" on="1"/>
        <pt x="94" y="253" on="1"/>
        <pt x="19" y="218" on="1"/>
        <pt x="23" y="233" on="0"/>
        <pt x="35" y="283" on="0"/>
        <pt x="47" y="330" on="1"/>
        <pt x="49" y="338" on="0"/>
        <pt x="53" y="346" on="0"/>
        <pt x="60" y="349" on="1"/>
        <pt x="125" y="378" on="1"/>
        <pt x="180" y="600" on="1"/>
        <pt x="187" y="625" on="0"/>
        <pt x="199" y="675" on="0"/>
        <pt x="205" y="700" on="1"/>
        <pt x="336" y="700" on="1"/>
        <pt x="340" y="700" on="0"/>
        <pt x="343" y="697" on="1"/>
        <pt x="345" y="693" on="0"/>
        <pt x="344" y="689" on="1"/>
        <pt x="280" y="436" on="1"/>
      </contour>
    </TTGlyph>
    <TTGlyph name="M" xMin="-13" yMin="0" xMax="652" yMax="700">
      <contour>
        <pt x="119" y="0" on="1"/>
        <pt x="-3" y="0" on="1"/>
        <pt x="-8" y="0" on="0"/>
        <pt x="-10" y="3" on="1"/>
        <pt x="-13" y="6" on="0"/>
        <pt x="-11" y="11" on="1"/>
        <pt x="136" y="600" on="1"/>
        <pt x="142" y="625" on="0"/>
        <pt x="155" y="675" on="0"/>
        <pt x="161" y="700" on="1"/>
        <pt x="276" y="700" on="1"/>
        <pt x="286" y="700" on="0"/>
        <pt x="288" y="690" on="1"/>
        <pt x="296" y="610" on="0"/>
        <pt x="313" y="451" on="0"/>
        <pt x="322" y="371" on="1"/>
        <pt x="372" y="453" on="0"/>
        <pt x="472" y="618" on="0"/>
        <pt x="522" y="700" on="1"/>
        <pt x="642" y="700" on="1"/>
        <pt x="648" y="700" on="0"/>
        <pt x="649" y="697" on="1"/>
        <pt x="652" y="694" on="0"/>
        <pt x="650" y="689" on="1"/>
        <pt x="503" y="100" on="1"/>
        <pt x="497" y="75" on="0"/>
        <pt x="484" y="25" on="0"/>
        <pt x="478" y="0" on="1"/>
        <pt x="356" y="0" on="1"/>
        <pt x="351" y="0" on="0"/>
        <pt x="349" y="3" on="1"/>
        <pt x="346" y="6" on="0"/>
        <pt x="348" y="11" on="1"/>
        <pt x="358" y="49" on="0"/>
        <pt x="376" y="125" on="0"/>
        <pt x="386" y="163" on="1"/>
        <pt x="391" y="182" on="0"/>
        <pt x="423" y="281" on="0"/>
        <pt x="466" y="413" on="0"/>
        <pt x="488" y="481" on="1"/>
        <pt x="436" y="401" on="0"/>
        <pt x="332" y="243" on="0"/>
        <pt x="280" y="164" on="1"/>
        <pt x="269" y="164" on="1"/>
        <pt x="261" y="164" on="0"/>
        <pt x="259" y="172" on="1"/>
        <pt x="249" y="250" on="0"/>
        <pt x="229" y="407" on="0"/>
        <pt x="218" y="486" on="1"/>
        <pt x="206" y="418" on="0"/>
        <pt x="183" y="284" on="0"/>
        <pt x="165" y="182" on="0"/>
        <pt x="160" y="163" on="1"/>
        <pt x="150" y="123" on="0"/>
        <pt x="130" y="41" on="0"/>
      </contour>
    </TTGlyph>
    <TTGlyph name="N" xMin="-5" yMin="0" xMax="645" yMax="700">
      <contour>
        <pt x="129" y="0" on="1"/>
        <pt x="7" y="0" on="1"/>
        <pt x="-5" y="0" on="0"/>
        <pt x="-1" y="11" on="1"/>
        <pt x="136" y="560" on="1"/>
        <pt x="145" y="595" on="0"/>
        <pt x="162" y="665" on="0"/>
        <pt x="171" y="700" on="1"/>
        <pt x="291" y="700" on="1"/>
        <pt x="299" y="700" on="0"/>
        <pt x="305" y="697" on="0"/>
        <pt x="306" y="690" on="1"/>
        <pt x="330" y="575" on="0"/>
        <pt x="381" y="340" on="0"/>
        <pt x="407" y="222" on="1"/>
        <pt x="414" y="267" on="0"/>
        <pt x="428" y="350" on="0"/>
        <pt x="438" y="405" on="0"/>
        <pt x="439" y="411" on="1"/>
        <pt x="511" y="700" on="1"/>
        <pt x="633" y="700" on="1"/>
        <pt x="645" y="700" on="0"/>
        <pt x="641" y="689" on="1"/>
        <pt x="469" y="0" on="1"/>
        <pt x="353" y="0" on="1"/>
        <pt x="350" y="0" on="0"/>
        <pt x="344" y="3" on="0"/>
        <pt x="343" y="8" on="1"/>
        <pt x="315" y="127" on="0"/>
        <pt x="261" y="368" on="0"/>
        <pt x="234" y="488" on="1"/>
        <pt x="225" y="434" on="0"/>
        <pt x="208" y="333" on="0"/>
        <pt x="194" y="261" on="0"/>
        <pt x="192" y="253" on="1"/>
      </contour>
    </TTGlyph>
    <TTGlyph name="Nacute" xMin="-3" yMin="0" xMax="679" yMax="954">
      <contour>
        <pt x="474" y="774" on="1"/>
        <pt x="368" y="774" on="1"/>
        <pt x="406" y="820" on="0"/>
        <pt x="481" y="908" on="0"/>
        <pt x="519" y="954" on="1"/>
        <pt x="672" y="954" on="1"/>
        <pt x="678" y="954" on="0"/>
        <pt x="679" y="945" on="0"/>
        <pt x="674" y="940" on="1"/>
        <pt x="642" y="912" on="0"/>
        <pt x="593" y="868" on="0"/>
        <pt x="536" y="819" on="0"/>
        <pt x="492" y="781" on="1"/>
        <pt x="485" y="774" on="0"/>
      </contour>
      <contour>
        <pt x="129" y="0" on="1"/>
        <pt x="8" y="0" on="1"/>
        <pt x="-3" y="0" on="0"/>
        <pt x="-1" y="11" on="1"/>
        <pt x="137" y="560" on="1"/>
        <pt x="145" y="595" on="0"/>
        <pt x="163" y="665" on="0"/>
        <pt x="172" y="700" on="1"/>
        <pt x="298" y="700" on="1"/>
        <pt x="306" y="700" on="0"/>
        <pt x="312" y="697" on="0"/>
        <pt x="313" y="690" on="1"/>
        <pt x="337" y="580" on="0"/>
        <pt x="385" y="353" on="0"/>
        <pt x="410" y="240" on="1"/>
        <pt x="417" y="282" on="0"/>
        <pt x="429" y="356" on="0"/>
        <pt x="438" y="406" on="0"/>
        <pt x="439" y="411" on="1"/>
        <pt x="511" y="700" on="1"/>
        <pt x="633" y="700" on="1"/>
        <pt x="645" y="700" on="0"/>
        <pt x="641" y="689" on="1"/>
        <pt x="469" y="0" on="1"/>
        <pt x="352" y="0" on="1"/>
        <pt x="343" y="0" on="0"/>
        <pt x="342" y="8" on="1"/>
        <pt x="315" y="127" on="0"/>
        <pt x="261" y="365" on="0"/>
        <pt x="234" y="484" on="1"/>
        <pt x="225" y="431" on="0"/>
        <pt x="208" y="331" on="0"/>
        <pt x="195" y="261" on="0"/>
        <pt x="193" y="253" on="1"/>
      </contour>
    </TTGlyph>
    <TTGlyph name="Ncaron" xMin="-3" yMin="0" xMax="700" yMax="946">
      <contour>
        <pt x="227" y="946" on="1"/>
        <pt x="344" y="946" on="1"/>
        <pt x="362" y="946" on="0"/>
        <pt x="371" y="935" on="1"/>
        <pt x="380" y="926" on="0"/>
        <pt x="421" y="884" on="0"/>
        <pt x="447" y="857" on="1"/>
        <pt x="484" y="882" on="0"/>
        <pt x="547" y="925" on="0"/>
        <pt x="577" y="946" on="1"/>
        <pt x="689" y="946" on="1"/>
        <pt x="700" y="946" on="0"/>
        <pt x="698" y="938" on="1"/>
        <pt x="697" y="934" on="0"/>
        <pt x="689" y="927" on="0"/>
        <pt x="673" y="913" on="1"/>
        <pt x="659" y="902" on="0"/>
        <pt x="612" y="864" on="0"/>
        <pt x="558" y="821" on="0"/>
        <pt x="512" y="784" on="0"/>
        <pt x="499" y="774" on="1"/>
        <pt x="366" y="774" on="1"/>
        <pt x="359" y="774" on="0"/>
        <pt x="349" y="781" on="0"/>
        <pt x="340" y="794" on="1"/>
        <pt x="333" y="804" on="0"/>
        <pt x="292" y="857" on="0"/>
        <pt x="245" y="921" on="0"/>
      </contour>
      <contour>
        <pt x="129" y="0" on="1"/>
        <pt x="8" y="0" on="1"/>
        <pt x="-3" y="0" on="0"/>
        <pt x="-1" y="11" on="1"/>
        <pt x="137" y="560" on="1"/>
        <pt x="145" y="595" on="0"/>
        <pt x="163" y="665" on="0"/>
        <pt x="172" y="700" on="1"/>
        <pt x="298" y="700" on="1"/>
        <pt x="306" y="700" on="0"/>
        <pt x="312" y="697" on="0"/>
        <pt x="313" y="690" on="1"/>
        <pt x="337" y="580" on="0"/>
        <pt x="385" y="353" on="0"/>
        <pt x="410" y="240" on="1"/>
        <pt x="417" y="282" on="0"/>
        <pt x="429" y="356" on="0"/>
        <pt x="438" y="406" on="0"/>
        <pt x="439" y="411" on="1"/>
        <pt x="511" y="700" on="1"/>
        <pt x="633" y="700" on="1"/>
        <pt x="645" y="700" on="0"/>
        <pt x="641" y="689" on="1"/>
        <pt x="469" y="0" on="1"/>
        <pt x="352" y="0" on="1"/>
        <pt x="343" y="0" on="0"/>
        <pt x="342" y="8" on="1"/>
        <pt x="315" y="127" on="0"/>
        <pt x="261" y="365" on="0"/>
        <pt x="234" y="484" on="1"/>
        <pt x="225" y="431" on="0"/>
        <pt x="208" y="331" on="0"/>
        <pt x="195" y="261" on="0"/>
        <pt x="193" y="253" on="1"/>
      </contour>
    </TTGlyph>
    <TTGlyph name="Ncommaaccent" xMin="-3" yMin="-249" xMax="645" yMax="700">
      <contour>
        <pt x="129" y="0" on="1"/>
        <pt x="8" y="0" on="1"/>
        <pt x="-3" y="0" on="0"/>
        <pt x="-1" y="11" on="1"/>
        <pt x="137" y="560" on="1"/>
        <pt x="145" y="595" on="0"/>
        <pt x="163" y="665" on="0"/>
        <pt x="172" y="700" on="1"/>
        <pt x="298" y="700" on="1"/>
        <pt x="306" y="700" on="0"/>
        <pt x="312" y="697" on="0"/>
        <pt x="313" y="690" on="1"/>
        <pt x="337" y="580" on="0"/>
        <pt x="385" y="353" on="0"/>
        <pt x="410" y="240" on="1"/>
        <pt x="417" y="282" on="0"/>
        <pt x="429" y="356" on="0"/>
        <pt x="438" y="406" on="0"/>
        <pt x="439" y="411" on="1"/>
        <pt x="511" y="700" on="1"/>
        <pt x="633" y="700" on="1"/>
        <pt x="645" y="700" on="0"/>
        <pt x="641" y="689" on="1"/>
        <pt x="469" y="0" on="1"/>
        <pt x="352" y="0" on="1"/>
        <pt x="343" y="0" on="0"/>
        <pt x="342" y="8" on="1"/>
        <pt x="315" y="127" on="0"/>
        <pt x="261" y="365" on="0"/>
        <pt x="234" y="484" on="1"/>
        <pt x="225" y="431" on="0"/>
        <pt x="208" y="331" on="0"/>
        <pt x="195" y="261" on="0"/>
        <pt x="193" y="253" on="1"/>
      </contour>
      <contour>
        <pt x="184" y="-249" on="1"/>
        <pt x="78" y="-249" on="1"/>
        <pt x="101" y="-199" on="0"/>
        <pt x="144" y="-107" on="0"/>
        <pt x="164" y="-62" on="1"/>
        <pt x="297" y="-62" on="1"/>
        <pt x="303" y="-62" on="0"/>
        <pt x="308" y="-69" on="0"/>
        <pt x="304" y="-75" on="1"/>
        <pt x="277" y="-118" on="0"/>
        <pt x="230" y="-193" on="0"/>
        <pt x="201" y="-239" on="1"/>
        <pt x="199" y="-243" on="0"/>
        <pt x="191" y="-249" on="0"/>
      </contour>
    </TTGlyph>
    <TTGlyph name="Nhookleft" xMin="-149" yMin="-191" xMax="645" yMax="700">
      <contour>
        <pt x="-66" y="-62" on="1"/>
        <pt x="-43" y="-62" on="0"/>
        <pt x="-12" y="-32" on="0"/>
        <pt x="-2" y="6" on="1"/>
        <pt x="-1" y="11" on="1"/>
        <pt x="-1" y="11" on="1"/>
        <pt x="-1" y="13" on="1"/>
        <pt x="1" y="20" on="1"/>
        <pt x="1" y="20" on="1"/>
        <pt x="137" y="560" on="1"/>
        <pt x="145" y="595" on="0"/>
        <pt x="163" y="665" on="0"/>
        <pt x="172" y="700" on="1"/>
        <pt x="298" y="700" on="1"/>
        <pt x="306" y="700" on="0"/>
        <pt x="312" y="697" on="0"/>
        <pt x="313" y="690" on="1"/>
        <pt x="337" y="580" on="0"/>
        <pt x="385" y="353" on="0"/>
        <pt x="410" y="240" on="1"/>
        <pt x="417" y="282" on="0"/>
        <pt x="429" y="356" on="0"/>
        <pt x="438" y="406" on="0"/>
        <pt x="439" y="411" on="1"/>
        <pt x="511" y="700" on="1"/>
        <pt x="633" y="700" on="1"/>
        <pt x="645" y="700" on="0"/>
        <pt x="641" y="689" on="1"/>
        <pt x="469" y="0" on="1"/>
        <pt x="352" y="0" on="1"/>
        <pt x="343" y="0" on="0"/>
        <pt x="342" y="8" on="1"/>
        <pt x="315" y="127" on="0"/>
        <pt x="261" y="365" on="0"/>
        <pt x="234" y="484" on="1"/>
        <pt x="225" y="431" on="0"/>
        <pt x="208" y="331" on="0"/>
        <pt x="195" y="261" on="0"/>
        <pt x="193" y="253" on="1"/>
        <pt x="130" y="6" on="1"/>
        <pt x="130" y="5" on="0"/>
        <pt x="130" y="3" on="1"/>
        <pt x="127" y="-8" on="1"/>
        <pt x="108" y="-88" on="0"/>
        <pt x="6" y="-191" on="0"/>
        <pt x="-71" y="-191" on="1"/>
        <pt x="-80" y="-191" on="1"/>
        <pt x="-102" y="-191" on="0"/>
        <pt x="-142" y="-181" on="0"/>
        <pt x="-147" y="-174" on="1"/>
        <pt x="-149" y="-170" on="0"/>
        <pt x="-148" y="-166" on="1"/>
        <pt x="-141" y="-138" on="0"/>
        <pt x="-127" y="-81" on="0"/>
        <pt x="-120" y="-53" on="1"/>
        <pt x="-101" y="-53" on="1"/>
        <pt x="-93" y="-57" on="0"/>
        <pt x="-77" y="-62" on="0"/>
      </contour>
    </TTGlyph>
    <TTGlyph name="Ntilde" xMin="-3" yMin="0" xMax="669" yMax="953">
      <contour>
        <pt x="563" y="896" on="1"/>
        <pt x="586" y="896" on="0"/>
        <pt x="629" y="915" on="0"/>
        <pt x="651" y="937" on="1"/>
        <pt x="669" y="937" on="1"/>
        <pt x="663" y="912" on="0"/>
        <pt x="647" y="849" on="0"/>
        <pt x="642" y="829" on="1"/>
        <pt x="640" y="822" on="0"/>
        <pt x="636" y="813" on="0"/>
        <pt x="630" y="808" on="1"/>
        <pt x="610" y="791" on="0"/>
        <pt x="560" y="771" on="0"/>
        <pt x="526" y="771" on="1"/>
        <pt x="494" y="771" on="0"/>
        <pt x="445" y="788" on="0"/>
        <pt x="403" y="810" on="0"/>
        <pt x="360" y="827" on="0"/>
        <pt x="334" y="827" on="1"/>
        <pt x="287" y="827" on="0"/>
        <pt x="246" y="786" on="1"/>
        <pt x="228" y="786" on="1"/>
        <pt x="234" y="811" on="0"/>
        <pt x="250" y="875" on="0"/>
        <pt x="255" y="894" on="1"/>
        <pt x="257" y="902" on="0"/>
        <pt x="260" y="910" on="0"/>
        <pt x="267" y="916" on="1"/>
        <pt x="287" y="933" on="0"/>
        <pt x="337" y="953" on="0"/>
        <pt x="370" y="953" on="1"/>
        <pt x="402" y="953" on="0"/>
        <pt x="451" y="936" on="0"/>
        <pt x="494" y="913" on="0"/>
        <pt x="537" y="896" on="0"/>
      </contour>
      <contour>
        <pt x="129" y="0" on="1"/>
        <pt x="8" y="0" on="1"/>
        <pt x="-3" y="0" on="0"/>
        <pt x="-1" y="11" on="1"/>
        <pt x="137" y="560" on="1"/>
        <pt x="145" y="595" on="0"/>
        <pt x="163" y="665" on="0"/>
        <pt x="172" y="700" on="1"/>
        <pt x="298" y="700" on="1"/>
        <pt x="306" y="700" on="0"/>
        <pt x="312" y="697" on="0"/>
        <pt x="313" y="690" on="1"/>
        <pt x="337" y="580" on="0"/>
        <pt x="385" y="353" on="0"/>
        <pt x="410" y="240" on="1"/>
        <pt x="417" y="282" on="0"/>
        <pt x="429" y="356" on="0"/>
        <pt x="438" y="406" on="0"/>
        <pt x="439" y="411" on="1"/>
        <pt x="511" y="700" on="1"/>
        <pt x="633" y="700" on="1"/>
        <pt x="645" y="700" on="0"/>
        <pt x="641" y="689" on="1"/>
        <pt x="469" y="0" on="1"/>
        <pt x="352" y="0" on="1"/>
        <pt x="343" y="0" on="0"/>
        <pt x="342" y="8" on="1"/>
        <pt x="315" y="127" on="0"/>
        <pt x="261" y="365" on="0"/>
        <pt x="234" y="484" on="1"/>
        <pt x="225" y="431" on="0"/>
        <pt x="208" y="331" on="0"/>
        <pt x="195" y="261" on="0"/>
        <pt x="193" y="253" on="1"/>
      </contour>
    </TTGlyph>
    <TTGlyph name="O" xMin="30" yMin="-20" xMax="608" yMax="720">
      <contour>
        <pt x="528" y="219" on="1"/>
        <pt x="506" y="132" on="0"/>
        <pt x="424" y="27" on="0"/>
        <pt x="310" y="-20" on="0"/>
        <pt x="241" y="-20" on="1"/>
        <pt x="167" y="-20" on="0"/>
        <pt x="67" y="42" on="0"/>
        <pt x="30" y="162" on="0"/>
        <pt x="52" y="248" on="1"/>
        <pt x="110" y="482" on="1"/>
        <pt x="142" y="607" on="0"/>
        <pt x="288" y="720" on="0"/>
        <pt x="394" y="720" on="1"/>
        <pt x="395" y="720" on="0"/>
        <pt x="395" y="720" on="1"/>
        <pt x="396" y="720" on="0"/>
        <pt x="397" y="720" on="1"/>
        <pt x="470" y="719" on="0"/>
        <pt x="570" y="657" on="0"/>
        <pt x="608" y="538" on="0"/>
        <pt x="587" y="454" on="1"/>
      </contour>
      <contour>
        <pt x="184" y="245" on="1"/>
        <pt x="167" y="175" on="0"/>
        <pt x="199" y="101" on="0"/>
        <pt x="259" y="101" on="1"/>
        <pt x="309" y="101" on="0"/>
        <pt x="382" y="164" on="0"/>
        <pt x="398" y="230" on="1"/>
        <pt x="455" y="457" on="1"/>
        <pt x="472" y="527" on="0"/>
        <pt x="438" y="599" on="0"/>
        <pt x="378" y="599" on="1"/>
        <pt x="329" y="599" on="0"/>
        <pt x="258" y="537" on="0"/>
        <pt x="241" y="472" on="1"/>
      </contour>
    </TTGlyph>
    <TTGlyph name="OE" xMin="-10" yMin="-9" xMax="682" yMax="709">
      <contour>
        <pt x="360" y="709" on="1"/>
        <pt x="395" y="709" on="0"/>
        <pt x="420" y="700" on="1"/>
        <pt x="673" y="700" on="1"/>
        <pt x="678" y="700" on="0"/>
        <pt x="681" y="697" on="1"/>
        <pt x="682" y="695" on="0"/>
        <pt x="682" y="689" on="1"/>
        <pt x="675" y="660" on="0"/>
        <pt x="661" y="606" on="0"/>
        <pt x="654" y="577" on="1"/>
        <pt x="484" y="577" on="1"/>
        <pt x="442" y="411" on="1"/>
        <pt x="564" y="411" on="1"/>
        <pt x="575" y="411" on="0"/>
        <pt x="573" y="400" on="1"/>
        <pt x="566" y="372" on="0"/>
        <pt x="553" y="322" on="0"/>
        <pt x="546" y="294" on="1"/>
        <pt x="413" y="294" on="1"/>
        <pt x="370" y="123" on="1"/>
        <pt x="529" y="123" on="1"/>
        <pt x="541" y="123" on="0"/>
        <pt x="537" y="112" on="1"/>
        <pt x="530" y="84" on="0"/>
        <pt x="517" y="29" on="0"/>
        <pt x="509" y="0" on="1"/>
        <pt x="246" y="0" on="1"/>
        <pt x="215" y="-9" on="0"/>
        <pt x="181" y="-9" on="1"/>
        <pt x="77" y="-9" on="0"/>
        <pt x="-10" y="118" on="0"/>
        <pt x="18" y="229" on="1"/>
        <pt x="80" y="478" on="1"/>
        <pt x="107" y="586" on="0"/>
        <pt x="258" y="709" on="0"/>
      </contour>
      <contour>
        <pt x="251" y="123" on="1"/>
        <pt x="251" y="123" on="1"/>
        <pt x="367" y="585" on="1"/>
        <pt x="366" y="588" on="0"/>
        <pt x="367" y="587" on="1"/>
        <pt x="352" y="589" on="0"/>
        <pt x="331" y="589" on="1"/>
        <pt x="285" y="589" on="0"/>
        <pt x="215" y="525" on="0"/>
        <pt x="201" y="469" on="1"/>
        <pt x="139" y="223" on="1"/>
        <pt x="126" y="171" on="0"/>
        <pt x="164" y="111" on="0"/>
        <pt x="213" y="111" on="1"/>
        <pt x="232" y="111" on="0"/>
        <pt x="249" y="113" on="1"/>
      </contour>
    </TTGlyph>
    <TTGlyph name="Oacute" xMin="17" yMin="-20" xMax="679" yMax="955">
      <contour>
        <pt x="474" y="775" on="1"/>
        <pt x="368" y="775" on="1"/>
        <pt x="406" y="821" on="0"/>
        <pt x="481" y="909" on="0"/>
        <pt x="519" y="955" on="1"/>
        <pt x="672" y="955" on="1"/>
        <pt x="678" y="955" on="0"/>
        <pt x="679" y="945" on="0"/>
        <pt x="674" y="940" on="1"/>
        <pt x="642" y="912" on="0"/>
        <pt x="593" y="869" on="0"/>
        <pt x="536" y="819" on="0"/>
        <pt x="492" y="781" on="1"/>
        <pt x="489" y="779" on="0"/>
        <pt x="480" y="775" on="0"/>
      </contour>
      <contour>
        <pt x="535" y="239" on="1"/>
        <pt x="514" y="156" on="0"/>
        <pt x="423" y="40" on="0"/>
        <pt x="300" y="-20" on="0"/>
        <pt x="231" y="-20" on="1"/>
        <pt x="113" y="-20" on="0"/>
        <pt x="17" y="109" on="0"/>
        <pt x="48" y="232" on="1"/>
        <pt x="105" y="461" on="1"/>
        <pt x="126" y="545" on="0"/>
        <pt x="217" y="660" on="0"/>
        <pt x="341" y="720" on="0"/>
        <pt x="409" y="720" on="1"/>
        <pt x="527" y="720" on="0"/>
        <pt x="623" y="591" on="0"/>
        <pt x="592" y="469" on="1"/>
      </contour>
      <contour>
        <pt x="181" y="232" on="1"/>
        <pt x="166" y="172" on="0"/>
        <pt x="196" y="106" on="0"/>
        <pt x="259" y="106" on="1"/>
        <pt x="310" y="106" on="0"/>
        <pt x="385" y="171" on="0"/>
        <pt x="402" y="241" on="1"/>
        <pt x="459" y="468" on="1"/>
        <pt x="474" y="528" on="0"/>
        <pt x="444" y="594" on="0"/>
        <pt x="381" y="594" on="1"/>
        <pt x="330" y="594" on="0"/>
        <pt x="255" y="529" on="0"/>
        <pt x="237" y="459" on="1"/>
      </contour>
    </TTGlyph>
    <TTGlyph name="Obreve" xMin="17" yMin="-20" xMax="660" yMax="947">
      <contour>
        <pt x="376" y="947" on="1"/>
        <pt x="381" y="914" on="0"/>
        <pt x="419" y="888" on="0"/>
        <pt x="455" y="888" on="1"/>
        <pt x="491" y="888" on="0"/>
        <pt x="541" y="914" on="0"/>
        <pt x="563" y="947" on="1"/>
        <pt x="646" y="947" on="1"/>
        <pt x="656" y="947" on="0"/>
        <pt x="660" y="939" on="0"/>
        <pt x="655" y="927" on="1"/>
        <pt x="640" y="890" on="0"/>
        <pt x="577" y="824" on="0"/>
        <pt x="496" y="783" on="0"/>
        <pt x="452" y="783" on="1"/>
        <pt x="405" y="783" on="1"/>
        <pt x="361" y="783" on="0"/>
        <pt x="300" y="824" on="0"/>
        <pt x="272" y="890" on="0"/>
        <pt x="275" y="927" on="1"/>
        <pt x="276" y="939" on="0"/>
        <pt x="283" y="947" on="0"/>
        <pt x="293" y="947" on="1"/>
      </contour>
      <contour>
        <pt x="535" y="239" on="1"/>
        <pt x="514" y="156" on="0"/>
        <pt x="423" y="40" on="0"/>
        <pt x="300" y="-20" on="0"/>
        <pt x="231" y="-20" on="1"/>
        <pt x="113" y="-20" on="0"/>
        <pt x="17" y="109" on="0"/>
        <pt x="48" y="232" on="1"/>
        <pt x="105" y="461" on="1"/>
        <pt x="126" y="545" on="0"/>
        <pt x="217" y="660" on="0"/>
        <pt x="341" y="720" on="0"/>
        <pt x="409" y="720" on="1"/>
        <pt x="527" y="720" on="0"/>
        <pt x="623" y="591" on="0"/>
        <pt x="592" y="469" on="1"/>
      </contour>
      <contour>
        <pt x="181" y="232" on="1"/>
        <pt x="166" y="172" on="0"/>
        <pt x="196" y="106" on="0"/>
        <pt x="259" y="106" on="1"/>
        <pt x="310" y="106" on="0"/>
        <pt x="385" y="171" on="0"/>
        <pt x="402" y="241" on="1"/>
        <pt x="459" y="468" on="1"/>
        <pt x="474" y="528" on="0"/>
        <pt x="444" y="594" on="0"/>
        <pt x="381" y="594" on="1"/>
        <pt x="330" y="594" on="0"/>
        <pt x="255" y="529" on="0"/>
        <pt x="237" y="459" on="1"/>
      </contour>
    </TTGlyph>
    <TTGlyph name="Ocircumflex" xMin="17" yMin="-20" xMax="670" yMax="946">
      <contour>
        <pt x="320" y="775" on="1"/>
        <pt x="207" y="775" on="1"/>
        <pt x="196" y="775" on="0"/>
        <pt x="198" y="783" on="1"/>
        <pt x="199" y="787" on="0"/>
        <pt x="208" y="795" on="0"/>
        <pt x="224" y="808" on="1"/>
        <pt x="238" y="819" on="0"/>
        <pt x="285" y="857" on="0"/>
        <pt x="338" y="899" on="0"/>
        <pt x="384" y="936" on="0"/>
        <pt x="397" y="946" on="1"/>
        <pt x="531" y="946" on="1"/>
        <pt x="539" y="946" on="0"/>
        <pt x="547" y="939" on="0"/>
        <pt x="557" y="927" on="1"/>
        <pt x="565" y="918" on="0"/>
        <pt x="605" y="864" on="0"/>
        <pt x="652" y="800" on="0"/>
        <pt x="670" y="775" on="1"/>
        <pt x="552" y="775" on="1"/>
        <pt x="541" y="775" on="0"/>
        <pt x="531" y="779" on="0"/>
        <pt x="525" y="785" on="1"/>
        <pt x="516" y="795" on="0"/>
        <pt x="476" y="837" on="0"/>
        <pt x="450" y="864" on="1"/>
        <pt x="413" y="839" on="0"/>
        <pt x="350" y="796" on="0"/>
      </contour>
      <contour>
        <pt x="535" y="239" on="1"/>
        <pt x="514" y="156" on="0"/>
        <pt x="423" y="40" on="0"/>
        <pt x="300" y="-20" on="0"/>
        <pt x="231" y="-20" on="1"/>
        <pt x="113" y="-20" on="0"/>
        <pt x="17" y="109" on="0"/>
        <pt x="48" y="232" on="1"/>
        <pt x="105" y="461" on="1"/>
        <pt x="126" y="545" on="0"/>
        <pt x="217" y="660" on="0"/>
        <pt x="341" y="720" on="0"/>
        <pt x="409" y="720" on="1"/>
        <pt x="527" y="720" on="0"/>
        <pt x="623" y="591" on="0"/>
        <pt x="592" y="469" on="1"/>
      </contour>
      <contour>
        <pt x="181" y="232" on="1"/>
        <pt x="166" y="172" on="0"/>
        <pt x="196" y="106" on="0"/>
        <pt x="259" y="106" on="1"/>
        <pt x="310" y="106" on="0"/>
        <pt x="385" y="171" on="0"/>
        <pt x="402" y="241" on="1"/>
        <pt x="459" y="468" on="1"/>
        <pt x="474" y="528" on="0"/>
        <pt x="444" y="594" on="0"/>
        <pt x="381" y="594" on="1"/>
        <pt x="330" y="594" on="0"/>
        <pt x="255" y="529" on="0"/>
        <pt x="237" y="459" on="1"/>
      </contour>
    </TTGlyph>
    <TTGlyph name="Odieresis" xMin="17" yMin="-20" xMax="644" yMax="927">
      <contour>
        <pt x="394" y="791" on="1"/>
        <pt x="262" y="791" on="1"/>
        <pt x="250" y="791" on="0"/>
        <pt x="254" y="802" on="1"/>
        <pt x="285" y="927" on="1"/>
        <pt x="417" y="927" on="1"/>
        <pt x="429" y="927" on="0"/>
        <pt x="425" y="916" on="1"/>
      </contour>
      <contour>
        <pt x="610" y="791" on="1"/>
        <pt x="479" y="791" on="1"/>
        <pt x="468" y="791" on="0"/>
        <pt x="470" y="802" on="1"/>
        <pt x="501" y="927" on="1"/>
        <pt x="633" y="927" on="1"/>
        <pt x="644" y="927" on="0"/>
        <pt x="642" y="916" on="1"/>
      </contour>
      <contour>
        <pt x="535" y="239" on="1"/>
        <pt x="514" y="156" on="0"/>
        <pt x="423" y="40" on="0"/>
        <pt x="300" y="-20" on="0"/>
        <pt x="231" y="-20" on="1"/>
        <pt x="113" y="-20" on="0"/>
        <pt x="17" y="109" on="0"/>
        <pt x="48" y="232" on="1"/>
        <pt x="105" y="461" on="1"/>
        <pt x="126" y="545" on="0"/>
        <pt x="217" y="660" on="0"/>
        <pt x="341" y="720" on="0"/>
        <pt x="409" y="720" on="1"/>
        <pt x="527" y="720" on="0"/>
        <pt x="623" y="591" on="0"/>
        <pt x="592" y="469" on="1"/>
      </contour>
      <contour>
        <pt x="181" y="232" on="1"/>
        <pt x="166" y="172" on="0"/>
        <pt x="196" y="106" on="0"/>
        <pt x="259" y="106" on="1"/>
        <pt x="310" y="106" on="0"/>
        <pt x="385" y="171" on="0"/>
        <pt x="402" y="241" on="1"/>
        <pt x="459" y="468" on="1"/>
        <pt x="474" y="528" on="0"/>
        <pt x="444" y="594" on="0"/>
        <pt x="381" y="594" on="1"/>
        <pt x="330" y="594" on="0"/>
        <pt x="255" y="529" on="0"/>
        <pt x="237" y="459" on="1"/>
      </contour>
    </TTGlyph>
    <TTGlyph name="Odotbelow" xMin="17" yMin="-239" xMax="623" yMax="720">
      <contour>
        <pt x="535" y="239" on="1"/>
        <pt x="514" y="156" on="0"/>
        <pt x="423" y="40" on="0"/>
        <pt x="300" y="-20" on="0"/>
        <pt x="231" y="-20" on="1"/>
        <pt x="113" y="-20" on="0"/>
        <pt x="17" y="109" on="0"/>
        <pt x="48" y="232" on="1"/>
        <pt x="105" y="461" on="1"/>
        <pt x="126" y="545" on="0"/>
        <pt x="217" y="660" on="0"/>
        <pt x="341" y="720" on="0"/>
        <pt x="409" y="720" on="1"/>
        <pt x="527" y="720" on="0"/>
        <pt x="623" y="591" on="0"/>
        <pt x="592" y="469" on="1"/>
      </contour>
      <contour>
        <pt x="181" y="232" on="1"/>
        <pt x="166" y="172" on="0"/>
        <pt x="196" y="106" on="0"/>
        <pt x="259" y="106" on="1"/>
        <pt x="310" y="106" on="0"/>
        <pt x="385" y="171" on="0"/>
        <pt x="402" y="241" on="1"/>
        <pt x="459" y="468" on="1"/>
        <pt x="474" y="528" on="0"/>
        <pt x="444" y="594" on="0"/>
        <pt x="381" y="594" on="1"/>
        <pt x="330" y="594" on="0"/>
        <pt x="255" y="529" on="0"/>
        <pt x="237" y="459" on="1"/>
      </contour>
      <contour>
        <pt x="254" y="-239" on="1"/>
        <pt x="103" y="-239" on="1"/>
        <pt x="92" y="-239" on="0"/>
        <pt x="94" y="-228" on="1"/>
        <pt x="126" y="-101" on="1"/>
        <pt x="278" y="-101" on="1"/>
        <pt x="290" y="-101" on="0"/>
        <pt x="286" y="-112" on="1"/>
      </contour>
    </TTGlyph>
    <TTGlyph name="Ograve" xMin="17" yMin="-20" xMax="623" yMax="955">
      <contour>
        <pt x="485" y="775" on="1"/>
        <pt x="379" y="775" on="1"/>
        <pt x="368" y="775" on="0"/>
        <pt x="364" y="782" on="1"/>
        <pt x="339" y="820" on="0"/>
        <pt x="307" y="869" on="0"/>
        <pt x="280" y="913" on="0"/>
        <pt x="262" y="941" on="1"/>
        <pt x="259" y="946" on="0"/>
        <pt x="265" y="955" on="0"/>
        <pt x="271" y="955" on="1"/>
        <pt x="424" y="955" on="1"/>
        <pt x="439" y="909" on="0"/>
        <pt x="470" y="821" on="0"/>
      </contour>
      <contour>
        <pt x="535" y="239" on="1"/>
        <pt x="514" y="156" on="0"/>
        <pt x="423" y="40" on="0"/>
        <pt x="300" y="-20" on="0"/>
        <pt x="231" y="-20" on="1"/>
        <pt x="113" y="-20" on="0"/>
        <pt x="17" y="109" on="0"/>
        <pt x="48" y="232" on="1"/>
        <pt x="105" y="461" on="1"/>
        <pt x="126" y="545" on="0"/>
        <pt x="217" y="660" on="0"/>
        <pt x="341" y="720" on="0"/>
        <pt x="409" y="720" on="1"/>
        <pt x="527" y="720" on="0"/>
        <pt x="623" y="591" on="0"/>
        <pt x="592" y="469" on="1"/>
      </contour>
      <contour>
        <pt x="181" y="232" on="1"/>
        <pt x="166" y="172" on="0"/>
        <pt x="196" y="106" on="0"/>
        <pt x="259" y="106" on="1"/>
        <pt x="310" y="106" on="0"/>
        <pt x="385" y="171" on="0"/>
        <pt x="402" y="241" on="1"/>
        <pt x="459" y="468" on="1"/>
        <pt x="474" y="528" on="0"/>
        <pt x="444" y="594" on="0"/>
        <pt x="381" y="594" on="1"/>
        <pt x="330" y="594" on="0"/>
        <pt x="255" y="529" on="0"/>
        <pt x="237" y="459" on="1"/>
      </contour>
    </TTGlyph>
    <TTGlyph name="Ohungarumlaut" xMin="17" yMin="-20" xMax="824" yMax="963">
      <contour>
        <pt x="372" y="783" on="1"/>
        <pt x="266" y="783" on="1"/>
        <pt x="304" y="829" on="0"/>
        <pt x="379" y="917" on="0"/>
        <pt x="417" y="963" on="1"/>
        <pt x="570" y="963" on="1"/>
        <pt x="576" y="963" on="0"/>
        <pt x="577" y="954" on="0"/>
        <pt x="572" y="949" on="1"/>
        <pt x="540" y="921" on="0"/>
        <pt x="491" y="877" on="0"/>
        <pt x="434" y="828" on="0"/>
        <pt x="390" y="790" on="1"/>
        <pt x="383" y="783" on="0"/>
      </contour>
      <contour>
        <pt x="619" y="783" on="1"/>
        <pt x="512" y="783" on="1"/>
        <pt x="550" y="829" on="0"/>
        <pt x="626" y="917" on="0"/>
        <pt x="664" y="963" on="1"/>
        <pt x="816" y="963" on="1"/>
        <pt x="822" y="963" on="0"/>
        <pt x="824" y="954" on="0"/>
        <pt x="819" y="949" on="1"/>
        <pt x="787" y="921" on="0"/>
        <pt x="738" y="877" on="0"/>
        <pt x="681" y="828" on="0"/>
        <pt x="637" y="790" on="1"/>
        <pt x="630" y="783" on="0"/>
      </contour>
      <contour>
        <pt x="535" y="239" on="1"/>
        <pt x="514" y="156" on="0"/>
        <pt x="423" y="40" on="0"/>
        <pt x="300" y="-20" on="0"/>
        <pt x="231" y="-20" on="1"/>
        <pt x="113" y="-20" on="0"/>
        <pt x="17" y="109" on="0"/>
        <pt x="48" y="232" on="1"/>
        <pt x="105" y="461" on="1"/>
        <pt x="126" y="545" on="0"/>
        <pt x="217" y="660" on="0"/>
        <pt x="341" y="720" on="0"/>
        <pt x="409" y="720" on="1"/>
        <pt x="527" y="720" on="0"/>
        <pt x="623" y="591" on="0"/>
        <pt x="592" y="469" on="1"/>
      </contour>
      <contour>
        <pt x="181" y="232" on="1"/>
        <pt x="166" y="172" on="0"/>
        <pt x="196" y="106" on="0"/>
        <pt x="259" y="106" on="1"/>
        <pt x="310" y="106" on="0"/>
        <pt x="385" y="171" on="0"/>
        <pt x="402" y="241" on="1"/>
        <pt x="459" y="468" on="1"/>
        <pt x="474" y="528" on="0"/>
        <pt x="444" y="594" on="0"/>
        <pt x="381" y="594" on="1"/>
        <pt x="330" y="594" on="0"/>
        <pt x="255" y="529" on="0"/>
        <pt x="237" y="459" on="1"/>
      </contour>
    </TTGlyph>
    <TTGlyph name="Omacron" xMin="17" yMin="-20" xMax="639" yMax="912">
      <contour>
        <pt x="282" y="912" on="1"/>
        <pt x="629" y="912" on="1"/>
        <pt x="639" y="912" on="0"/>
        <pt x="637" y="901" on="1"/>
        <pt x="630" y="875" on="0"/>
        <pt x="619" y="827" on="0"/>
        <pt x="612" y="801" on="1"/>
        <pt x="265" y="801" on="1"/>
        <pt x="254" y="801" on="0"/>
        <pt x="257" y="812" on="1"/>
        <pt x="264" y="838" on="0"/>
        <pt x="275" y="886" on="0"/>
      </contour>
      <contour>
        <pt x="535" y="239" on="1"/>
        <pt x="514" y="156" on="0"/>
        <pt x="423" y="40" on="0"/>
        <pt x="300" y="-20" on="0"/>
        <pt x="231" y="-20" on="1"/>
        <pt x="113" y="-20" on="0"/>
        <pt x="17" y="109" on="0"/>
        <pt x="48" y="232" on="1"/>
        <pt x="105" y="461" on="1"/>
        <pt x="126" y="545" on="0"/>
        <pt x="217" y="660" on="0"/>
        <pt x="341" y="720" on="0"/>
        <pt x="409" y="720" on="1"/>
        <pt x="527" y="720" on="0"/>
        <pt x="623" y="591" on="0"/>
        <pt x="592" y="469" on="1"/>
      </contour>
      <contour>
        <pt x="181" y="232" on="1"/>
        <pt x="166" y="172" on="0"/>
        <pt x="196" y="106" on="0"/>
        <pt x="259" y="106" on="1"/>
        <pt x="310" y="106" on="0"/>
        <pt x="385" y="171" on="0"/>
        <pt x="402" y="241" on="1"/>
        <pt x="459" y="468" on="1"/>
        <pt x="474" y="528" on="0"/>
        <pt x="444" y="594" on="0"/>
        <pt x="381" y="594" on="1"/>
        <pt x="330" y="594" on="0"/>
        <pt x="255" y="529" on="0"/>
        <pt x="237" y="459" on="1"/>
      </contour>
    </TTGlyph>
    <TTGlyph name="Oogonek" xMin="23" yMin="-240" xMax="623" yMax="720">
      <contour>
        <pt x="82" y="-115" on="1"/>
        <pt x="90" y="-83" on="0"/>
        <pt x="126" y="-30" on="0"/>
        <pt x="149" y="-10" on="1"/>
        <pt x="76" y="11" on="0"/>
        <pt x="23" y="133" on="0"/>
        <pt x="48" y="232" on="1"/>
        <pt x="105" y="461" on="1"/>
        <pt x="126" y="545" on="0"/>
        <pt x="217" y="660" on="0"/>
        <pt x="341" y="720" on="0"/>
        <pt x="409" y="720" on="1"/>
        <pt x="527" y="720" on="0"/>
        <pt x="623" y="591" on="0"/>
        <pt x="592" y="469" on="1"/>
        <pt x="535" y="239" on="1"/>
        <pt x="507" y="126" on="0"/>
        <pt x="362" y="-5" on="0"/>
        <pt x="272" y="-17" on="1"/>
        <pt x="219" y="-39" on="0"/>
        <pt x="209" y="-76" on="1"/>
        <pt x="200" y="-113" on="0"/>
        <pt x="243" y="-113" on="1"/>
        <pt x="257" y="-113" on="0"/>
        <pt x="283" y="-105" on="0"/>
        <pt x="296" y="-98" on="1"/>
        <pt x="314" y="-98" on="1"/>
        <pt x="312" y="-107" on="0"/>
        <pt x="306" y="-130" on="0"/>
        <pt x="296" y="-170" on="0"/>
        <pt x="287" y="-206" on="1"/>
        <pt x="283" y="-220" on="0"/>
        <pt x="231" y="-240" on="0"/>
        <pt x="197" y="-240" on="1"/>
        <pt x="129" y="-240" on="0"/>
        <pt x="67" y="-174" on="0"/>
      </contour>
      <contour>
        <pt x="181" y="232" on="1"/>
        <pt x="166" y="172" on="0"/>
        <pt x="196" y="106" on="0"/>
        <pt x="259" y="106" on="1"/>
        <pt x="310" y="106" on="0"/>
        <pt x="385" y="171" on="0"/>
        <pt x="402" y="241" on="1"/>
        <pt x="459" y="468" on="1"/>
        <pt x="474" y="528" on="0"/>
        <pt x="444" y="594" on="0"/>
        <pt x="381" y="594" on="1"/>
        <pt x="330" y="594" on="0"/>
        <pt x="255" y="529" on="0"/>
        <pt x="237" y="459" on="1"/>
      </contour>
    </TTGlyph>
    <TTGlyph name="Oslash" xMin="-48" yMin="-76" xMax="687" yMax="776">
      <contour>
        <pt x="687" y="776" on="1"/>
        <pt x="661" y="741" on="0"/>
        <pt x="610" y="673" on="0"/>
        <pt x="585" y="639" on="1"/>
        <pt x="619" y="576" on="0"/>
        <pt x="592" y="469" on="1"/>
        <pt x="535" y="239" on="1"/>
        <pt x="514" y="156" on="0"/>
        <pt x="423" y="40" on="0"/>
        <pt x="300" y="-20" on="0"/>
        <pt x="231" y="-20" on="1"/>
        <pt x="167" y="-20" on="0"/>
        <pt x="124" y="-1" on="1"/>
        <pt x="111" y="-18" on="0"/>
        <pt x="88" y="-50" on="0"/>
        <pt x="78" y="-64" on="1"/>
        <pt x="71" y="-73" on="0"/>
        <pt x="65" y="-76" on="0"/>
        <pt x="58" y="-76" on="1"/>
        <pt x="-48" y="-76" on="1"/>
        <pt x="-34" y="-57" on="0"/>
        <pt x="2" y="-5" on="0"/>
        <pt x="39" y="46" on="0"/>
        <pt x="53" y="65" on="1"/>
        <pt x="22" y="128" on="0"/>
        <pt x="48" y="232" on="1"/>
        <pt x="105" y="461" on="1"/>
        <pt x="126" y="545" on="0"/>
        <pt x="217" y="660" on="0"/>
        <pt x="341" y="720" on="0"/>
        <pt x="409" y="720" on="1"/>
        <pt x="472" y="720" on="0"/>
        <pt x="515" y="701" on="1"/>
        <pt x="539" y="735" on="0"/>
        <pt x="554" y="757" on="1"/>
        <pt x="564" y="770" on="0"/>
        <pt x="573" y="776" on="0"/>
        <pt x="583" y="776" on="1"/>
      </contour>
      <contour>
        <pt x="175" y="227" on="1"/>
        <pt x="173" y="221" on="0"/>
        <pt x="172" y="215" on="1"/>
        <pt x="238" y="309" on="0"/>
        <pt x="379" y="509" on="0"/>
        <pt x="438" y="593" on="1"/>
        <pt x="418" y="603" on="0"/>
        <pt x="383" y="603" on="1"/>
        <pt x="331" y="603" on="0"/>
        <pt x="253" y="536" on="0"/>
        <pt x="234" y="463" on="1"/>
      </contour>
      <contour>
        <pt x="465" y="473" on="1"/>
        <pt x="466" y="476" on="0"/>
        <pt x="467" y="480" on="1"/>
        <pt x="400" y="390" on="0"/>
        <pt x="289" y="242" on="0"/>
        <pt x="211" y="136" on="0"/>
        <pt x="193" y="112" on="1"/>
        <pt x="215" y="97" on="0"/>
        <pt x="257" y="97" on="1"/>
        <pt x="310" y="97" on="0"/>
        <pt x="387" y="164" on="0"/>
        <pt x="406" y="237" on="1"/>
      </contour>
    </TTGlyph>
    <TTGlyph name="Oslashacute" xMin="-48" yMin="-76" xMax="687" yMax="955">
      <contour>
        <pt x="474" y="775" on="1"/>
        <pt x="367" y="775" on="1"/>
        <pt x="405" y="821" on="0"/>
        <pt x="480" y="909" on="0"/>
        <pt x="519" y="955" on="1"/>
        <pt x="671" y="955" on="1"/>
        <pt x="677" y="955" on="0"/>
        <pt x="679" y="945" on="0"/>
        <pt x="674" y="940" on="1"/>
        <pt x="642" y="912" on="0"/>
        <pt x="592" y="869" on="0"/>
        <pt x="535" y="819" on="0"/>
        <pt x="491" y="781" on="1"/>
        <pt x="485" y="775" on="0"/>
      </contour>
      <contour>
        <pt x="687" y="776" on="1"/>
        <pt x="661" y="741" on="0"/>
        <pt x="610" y="673" on="0"/>
        <pt x="585" y="639" on="1"/>
        <pt x="619" y="576" on="0"/>
        <pt x="592" y="469" on="1"/>
        <pt x="535" y="239" on="1"/>
        <pt x="514" y="156" on="0"/>
        <pt x="423" y="40" on="0"/>
        <pt x="300" y="-20" on="0"/>
        <pt x="231" y="-20" on="1"/>
        <pt x="167" y="-20" on="0"/>
        <pt x="124" y="-1" on="1"/>
        <pt x="111" y="-18" on="0"/>
        <pt x="88" y="-50" on="0"/>
        <pt x="78" y="-64" on="1"/>
        <pt x="71" y="-73" on="0"/>
        <pt x="65" y="-76" on="0"/>
        <pt x="58" y="-76" on="1"/>
        <pt x="-48" y="-76" on="1"/>
        <pt x="-34" y="-57" on="0"/>
        <pt x="2" y="-5" on="0"/>
        <pt x="39" y="46" on="0"/>
        <pt x="53" y="65" on="1"/>
        <pt x="22" y="128" on="0"/>
        <pt x="48" y="232" on="1"/>
        <pt x="105" y="461" on="1"/>
        <pt x="126" y="545" on="0"/>
        <pt x="217" y="660" on="0"/>
        <pt x="341" y="720" on="0"/>
        <pt x="409" y="720" on="1"/>
        <pt x="472" y="720" on="0"/>
        <pt x="515" y="701" on="1"/>
        <pt x="539" y="735" on="0"/>
        <pt x="554" y="757" on="1"/>
        <pt x="564" y="770" on="0"/>
        <pt x="573" y="776" on="0"/>
        <pt x="583" y="776" on="1"/>
      </contour>
      <contour>
        <pt x="175" y="227" on="1"/>
        <pt x="173" y="221" on="0"/>
        <pt x="172" y="215" on="1"/>
        <pt x="238" y="309" on="0"/>
        <pt x="379" y="509" on="0"/>
        <pt x="438" y="593" on="1"/>
        <pt x="418" y="603" on="0"/>
        <pt x="383" y="603" on="1"/>
        <pt x="331" y="603" on="0"/>
        <pt x="253" y="536" on="0"/>
        <pt x="234" y="463" on="1"/>
      </contour>
      <contour>
        <pt x="465" y="473" on="1"/>
        <pt x="466" y="476" on="0"/>
        <pt x="467" y="480" on="1"/>
        <pt x="400" y="390" on="0"/>
        <pt x="289" y="242" on="0"/>
        <pt x="211" y="136" on="0"/>
        <pt x="193" y="112" on="1"/>
        <pt x="215" y="97" on="0"/>
        <pt x="257" y="97" on="1"/>
        <pt x="310" y="97" on="0"/>
        <pt x="387" y="164" on="0"/>
        <pt x="406" y="237" on="1"/>
      </contour>
    </TTGlyph>
    <TTGlyph name="Otilde" xMin="17" yMin="-20" xMax="669" yMax="954">
      <contour>
        <pt x="563" y="897" on="1"/>
        <pt x="586" y="897" on="0"/>
        <pt x="629" y="916" on="0"/>
        <pt x="651" y="938" on="1"/>
        <pt x="669" y="938" on="1"/>
        <pt x="663" y="913" on="0"/>
        <pt x="647" y="850" on="0"/>
        <pt x="642" y="830" on="1"/>
        <pt x="641" y="822" on="0"/>
        <pt x="637" y="813" on="0"/>
        <pt x="630" y="808" on="1"/>
        <pt x="610" y="792" on="0"/>
        <pt x="560" y="771" on="0"/>
        <pt x="527" y="771" on="1"/>
        <pt x="495" y="771" on="0"/>
        <pt x="446" y="788" on="0"/>
        <pt x="403" y="811" on="0"/>
        <pt x="360" y="828" on="0"/>
        <pt x="334" y="828" on="1"/>
        <pt x="287" y="828" on="0"/>
        <pt x="246" y="787" on="1"/>
        <pt x="228" y="787" on="1"/>
        <pt x="234" y="812" on="0"/>
        <pt x="250" y="876" on="0"/>
        <pt x="255" y="895" on="1"/>
        <pt x="257" y="903" on="0"/>
        <pt x="260" y="911" on="0"/>
        <pt x="267" y="917" on="1"/>
        <pt x="287" y="934" on="0"/>
        <pt x="337" y="954" on="0"/>
        <pt x="370" y="954" on="1"/>
        <pt x="402" y="954" on="0"/>
        <pt x="451" y="937" on="0"/>
        <pt x="494" y="914" on="0"/>
        <pt x="537" y="897" on="0"/>
      </contour>
      <contour>
        <pt x="535" y="239" on="1"/>
        <pt x="514" y="156" on="0"/>
        <pt x="423" y="40" on="0"/>
        <pt x="300" y="-20" on="0"/>
        <pt x="231" y="-20" on="1"/>
        <pt x="113" y="-20" on="0"/>
        <pt x="17" y="109" on="0"/>
        <pt x="48" y="232" on="1"/>
        <pt x="105" y="461" on="1"/>
        <pt x="126" y="545" on="0"/>
        <pt x="217" y="660" on="0"/>
        <pt x="341" y="720" on="0"/>
        <pt x="409" y="720" on="1"/>
        <pt x="527" y="720" on="0"/>
        <pt x="623" y="591" on="0"/>
        <pt x="592" y="469" on="1"/>
      </contour>
      <contour>
        <pt x="181" y="232" on="1"/>
        <pt x="166" y="172" on="0"/>
        <pt x="196" y="106" on="0"/>
        <pt x="259" y="106" on="1"/>
        <pt x="310" y="106" on="0"/>
        <pt x="385" y="171" on="0"/>
        <pt x="402" y="241" on="1"/>
        <pt x="459" y="468" on="1"/>
        <pt x="474" y="528" on="0"/>
        <pt x="444" y="594" on="0"/>
        <pt x="381" y="594" on="1"/>
        <pt x="330" y="594" on="0"/>
        <pt x="255" y="529" on="0"/>
        <pt x="237" y="459" on="1"/>
      </contour>
    </TTGlyph>
    <TTGlyph name="P" xMin="13" yMin="0" xMax="621" yMax="700">
      <contour>
        <pt x="149" y="0" on="1"/>
        <pt x="23" y="0" on="1"/>
        <pt x="18" y="0" on="0"/>
        <pt x="16" y="3" on="1"/>
        <pt x="13" y="6" on="0"/>
        <pt x="15" y="11" on="1"/>
        <pt x="157" y="579" on="1"/>
        <pt x="127" y="579" on="1"/>
        <pt x="122" y="579" on="0"/>
        <pt x="120" y="582" on="1"/>
        <pt x="117" y="585" on="0"/>
        <pt x="119" y="590" on="1"/>
        <pt x="126" y="619" on="0"/>
        <pt x="139" y="671" on="0"/>
        <pt x="146" y="700" on="1"/>
        <pt x="413" y="700" on="1"/>
        <pt x="537" y="700" on="0"/>
        <pt x="621" y="579" on="0"/>
        <pt x="595" y="476" on="1"/>
        <pt x="578" y="406" on="1"/>
        <pt x="553" y="307" on="0"/>
        <pt x="418" y="220" on="0"/>
        <pt x="319" y="220" on="1"/>
        <pt x="204" y="220" on="1"/>
        <pt x="174" y="100" on="1"/>
        <pt x="167" y="75" on="0"/>
        <pt x="155" y="25" on="0"/>
      </contour>
      <contour>
        <pt x="387" y="579" on="1"/>
        <pt x="294" y="579" on="1"/>
        <pt x="234" y="341" on="1"/>
        <pt x="341" y="341" on="1"/>
        <pt x="378" y="341" on="0"/>
        <pt x="430" y="384" on="0"/>
        <pt x="440" y="421" on="1"/>
        <pt x="457" y="492" on="1"/>
        <pt x="469" y="539" on="0"/>
        <pt x="437" y="579" on="0"/>
      </contour>
    </TTGlyph>
</ttFont>
